<svg width="254" height="225" viewBox="0 0 254 225" fill="none" xmlns="http://www.w3.org/2000/svg">
<path d="M110.874 3.81336L14.6557 52.0269C5.67151 56.5275 0 65.716 0 75.7671V126.817C0 136.868 5.67151 146.056 14.6553 150.557L65.7386 176.154C70.2791 178.426 74.5415 181.221 78.4386 184.474L121.668 220.553C123.212 221.838 127.001 225 127.001 225L175.56 184.476C179.46 181.221 183.721 178.426 188.262 176.154L239.345 150.557C248.329 146.056 254 136.868 254 126.817V75.7671C254 65.716 248.329 56.5275 239.345 52.0269L143.122 3.81336C138.049 1.27051 132.524 0 126.999 0C121.474 0 115.949 1.27051 110.874 3.81336ZM84.5881 37.2864L121.552 18.7575C124.981 17.0374 129.021 17.0374 132.45 18.7575L169.283 37.2254L126.835 58.5123L84.5881 37.2864ZM147.059 68.674L189.535 47.3718L223.947 64.5808C228.228 66.7217 228.232 72.8356 223.95 74.9823L191.75 91.1284L147.059 68.674ZM110.465 115.383L30.0156 74.95C25.7623 72.8128 25.7699 66.7348 30.025 64.6037L64.3486 47.4288L171.52 101.277L143.591 115.381C138.384 118.011 132.703 119.326 127.026 119.326C121.349 119.326 115.672 118.011 110.465 115.383ZM90.0595 170.535C85.0965 166.39 79.6437 162.821 73.8619 159.924L26.048 135.978C21.2446 133.573 18.2098 128.662 18.2004 123.291L18.1431 89.117L104.999 132.904C118.857 139.889 135.202 139.894 149.062 132.917L191.744 111.44L191.902 111.516L192.008 111.303L235.859 89.3114V123.205C235.859 128.584 232.824 133.502 228.019 135.912L180.138 159.924C174.355 162.821 168.906 166.391 163.939 170.535L127.001 201.363L90.0595 170.535Z" fill="url(#paint0_linear_452_2345)"/>
<defs>
<linearGradient id="paint0_linear_452_2345" x1="51.7287" y1="148.921" x2="232.128" y2="50.6278" gradientUnits="userSpaceOnUse">
<stop stop-color="#CBACF8"/>
<stop offset="1" stop-color="#648BCE"/>
</linearGradient>
</defs>
</svg>
