<svg width="1496" height="1281" viewBox="0 0 1496 1281" fill="none" xmlns="http://www.w3.org/2000/svg">
<path d="M1344.46 75.4882L675.003 -260.439C604.346 -295.854 521.158 -295.854 450.501 -260.439L-218.956 75.4882C-281.479 106.847 -321 170.874 -321 240.893V596.759C-321 666.777 -281.479 730.805 -218.956 762.195L136.826 940.517C168.462 956.368 198.165 975.87 225.343 998.554L526.426 1249.95L563.484 1281L600.574 1249.95L901.657 998.554C928.804 975.87 958.507 956.368 990.143 940.517L1345.92 762.195C1408.48 730.805 1447.97 666.777 1448 596.759V240.893C1447.69 170.531 1407.58 106.441 1344.46 75.4882Z" fill="url(#paint0_linear_759_2180)"/>
<circle opacity="0.4" cx="771.866" cy="475.866" r="514.443" transform="rotate(-140.754 771.866 475.866)" fill="url(#paint1_linear_759_2180)"/>
<defs>
<linearGradient id="paint0_linear_759_2180" x1="563.5" y1="75.4357" x2="563.5" y2="1281" gradientUnits="userSpaceOnUse">
<stop stop-color="white" stop-opacity="0"/>
<stop offset="1" stop-color="#9747FF"/>
</linearGradient>
<linearGradient id="paint1_linear_759_2180" x1="771.866" y1="-38.5771" x2="771.866" y2="990.308" gradientUnits="userSpaceOnUse">
<stop stop-color="#FFBA6D"/>
<stop offset="1" stop-color="#D9D9D9" stop-opacity="0"/>
</linearGradient>
</defs>
</svg>
