<svg width="1923" height="1255" viewBox="0 0 1923 1255" fill="none" xmlns="http://www.w3.org/2000/svg">
<g style="mix-blend-mode:multiply">
<path d="M1249.33 350.867L747.143 98.9214C694.14 72.3602 631.738 72.3602 578.734 98.9214L76.5474 350.867C29.6463 374.386 0 422.406 0 474.92L0 741.819C0 794.333 29.6463 842.354 76.5474 865.897L343.434 999.639C367.165 1011.53 389.447 1026.15 409.835 1043.17L635.689 1231.72L663.488 1255L691.311 1231.72L917.165 1043.17C937.53 1026.15 959.811 1011.53 983.542 999.639L1250.43 865.897C1297.35 842.354 1326.98 794.333 1327 741.819V474.92C1326.77 422.149 1296.68 374.081 1249.33 350.867Z" fill="url(#paint0_linear_748_2226)"/>
</g>
<g style="mix-blend-mode:multiply" opacity="0.4">
<circle cx="1242.5" cy="342.5" r="342.5" transform="rotate(-90 1242.5 342.5)" fill="url(#paint1_linear_748_2226)" fill-opacity="0.9" style="mix-blend-mode:soft-light"/>
</g>
<g style="mix-blend-mode:multiply" opacity="0.4">
<circle cx="1336.5" cy="611.5" r="586.5" transform="rotate(-90 1336.5 611.5)" fill="url(#paint2_linear_748_2226)" fill-opacity="0.9" style="mix-blend-mode:soft-light"/>
</g>
<defs>
<linearGradient id="paint0_linear_748_2226" x1="529.5" y1="581" x2="1120.5" y2="357.5" gradientUnits="userSpaceOnUse">
<stop stop-color="#FEFEFE" stop-opacity="0"/>
<stop offset="1" stop-color="#D6D9ED"/>
</linearGradient>
<linearGradient id="paint1_linear_748_2226" x1="1242.5" y1="0" x2="1242.5" y2="685" gradientUnits="userSpaceOnUse">
<stop stop-color="#9747FF" stop-opacity="0.51"/>
<stop offset="1" stop-color="#D9D9D9" stop-opacity="0"/>
</linearGradient>
<linearGradient id="paint2_linear_748_2226" x1="1203" y1="47" x2="913" y2="612" gradientUnits="userSpaceOnUse">
<stop stop-color="#FFBA6D" stop-opacity="0.71"/>
<stop offset="1" stop-color="#D9D9D9" stop-opacity="0"/>
</linearGradient>
</defs>
</svg>
