<svg width="85" height="87" viewBox="0 0 85 87" fill="none" xmlns="http://www.w3.org/2000/svg">
<path d="M26.7866 41.1211C27.0258 40.8611 27.3126 40.6519 27.6307 40.5054C27.9489 40.3588 28.2921 40.2779 28.6409 40.2672C28.9896 40.2565 29.337 40.3161 29.6631 40.4428C29.9893 40.5695 30.2879 40.7608 30.5419 41.0056C42.7656 52.7914 55.0309 59.9621 69.4642 63.6171C71.4116 58.1796 71.5843 52.1949 69.9025 46.3564C67.6713 38.6097 62.475 31.8604 54.8798 26.8392C48.0997 22.3567 41.3229 21.1893 34.767 20.061C26.4961 18.6371 18.6834 17.2913 11.2276 9.21151C10.3975 8.31772 9.26698 7.95918 8.18622 8.24975C6.95106 8.58959 6.12265 9.58873 5.72587 11.2404C4.79618 15.1061 5.39384 25.9403 8.00858 37.3778C12.2071 55.7531 18.9075 65.0512 23.79 69.617C30.0986 75.5116 38.3363 78.7758 46.5225 78.7758C48.0656 78.7783 49.6067 78.6625 51.1328 78.4292C58.0573 77.3553 63.8214 73.7954 67.0703 68.6162C52.2136 64.6604 39.5217 57.138 26.8945 44.9699C26.6401 44.7247 26.4354 44.4305 26.2923 44.1042C26.1491 43.7779 26.0703 43.4259 26.0602 43.0684C26.0502 42.7109 26.1092 42.3549 26.2339 42.0207C26.3585 41.6865 26.5463 41.3809 26.7866 41.1211ZM77.6007 65.2823C74.8066 64.8422 72.1006 64.29 69.4659 63.6222C68.9242 65.1358 68.2502 66.5962 67.4521 67.9858C67.3309 68.1982 67.2031 68.4089 67.072 68.6162C70.2765 69.4652 73.5213 70.1458 76.7938 70.6553C77.1421 70.7179 77.499 70.7088 77.8437 70.6284C78.1884 70.548 78.514 70.398 78.8013 70.1871C79.0887 69.9763 79.332 69.7088 79.5171 69.4005C79.7021 69.0921 79.8251 68.7491 79.8789 68.3914C79.9328 68.0337 79.9163 67.6687 79.8305 67.3176C79.7447 66.9666 79.5912 66.6366 79.3792 66.347C79.1671 66.0575 78.9008 65.8141 78.5956 65.6313C78.2905 65.4485 77.9528 65.3298 77.6023 65.2823H77.6007Z" fill="#5C6284"/>
</svg>
