<svg width="94" height="94" viewBox="0 0 94 94" fill="none" xmlns="http://www.w3.org/2000/svg">
<path d="M27.9062 47C35.2068 47 41.125 41.0818 41.125 33.7812C41.125 26.4807 35.2068 20.5625 27.9062 20.5625C20.6057 20.5625 14.6875 26.4807 14.6875 33.7812C14.6875 41.0818 20.6057 47 27.9062 47Z" fill="#5572DA"/>
<path d="M42.9609 54.3438C37.7909 51.7184 32.0848 50.6719 27.9062 50.6719C19.7216 50.6719 2.9375 55.6913 2.9375 65.7266V73.4375H30.4766V70.4871C30.4766 66.9989 31.9453 63.5014 34.5156 60.5859C36.5664 58.258 39.4378 56.0971 42.9609 54.3438Z" fill="#5572DA"/>
<path d="M62.4219 52.875C52.8621 52.875 33.7812 58.7794 33.7812 70.5V79.3125H91.0625V70.5C91.0625 58.7794 71.9816 52.875 62.4219 52.875Z" fill="#5572DA"/>
<path d="M62.4219 47C71.3447 47 78.5781 39.7666 78.5781 30.8438C78.5781 21.9209 71.3447 14.6875 62.4219 14.6875C53.499 14.6875 46.2656 21.9209 46.2656 30.8438C46.2656 39.7666 53.499 47 62.4219 47Z" fill="#5572DA"/>
</svg>
