<svg width="66" height="66" viewBox="0 0 66 66" fill="none" xmlns="http://www.w3.org/2000/svg">
<path d="M61.2839 14.2456L61.1828 12.6428L59.6017 12.36C48.5365 10.3747 43.9172 8.93941 33.5913 4.27537L32.7483 3.8916L31.9053 4.27537C21.5795 8.93941 16.9602 10.3747 5.89492 12.36L4.31381 12.6428L4.21275 14.2456C3.72025 22.0629 4.77049 29.3468 7.33789 35.8951C9.44031 41.2365 12.5518 46.123 16.5022 50.2877C23.3422 57.5447 30.6044 60.6967 31.9897 61.2544L32.7573 61.5627L33.5248 61.2544C34.9102 60.6967 42.1723 57.5447 49.0123 50.2877C52.9564 46.1215 56.0617 41.2351 58.1588 35.8951C60.7262 29.3468 61.7764 22.0629 61.2839 14.2456ZM28.9311 41.8768L19.6197 32.7483L22.4851 29.824L28.6855 35.899L42.7736 19.6273L45.8693 22.306L28.9311 41.8768Z" fill="#5572DA"/>
</svg>
