<svg width="66" height="66" viewBox="0 0 66 66" fill="none" xmlns="http://www.w3.org/2000/svg">
<path d="M36.8414 59.356H28.6544C28.1115 59.356 27.5909 59.5717 27.2071 59.9555C26.8232 60.3393 26.6076 60.8599 26.6076 61.4028C26.6076 61.9456 26.8232 62.4662 27.2071 62.8501C27.5909 63.2339 28.1115 63.4495 28.6544 63.4495H36.8414C37.3842 63.4495 37.9048 63.2339 38.2886 62.8501C38.6725 62.4662 38.8881 61.9456 38.8881 61.4028C38.8881 60.8599 38.6725 60.3393 38.2886 59.9555C37.9048 59.5717 37.3842 59.356 36.8414 59.356ZM38.8881 53.2158H26.6076C26.0648 53.2158 25.5442 53.4314 25.1603 53.8152C24.7765 54.1991 24.5609 54.7197 24.5609 55.2625C24.5609 55.8053 24.7765 56.326 25.1603 56.7098C25.5442 57.0936 26.0648 57.3093 26.6076 57.3093H38.8881C39.431 57.3093 39.9516 57.0936 40.3354 56.7098C40.7192 56.326 40.9349 55.8053 40.9349 55.2625C40.9349 54.7197 40.7192 54.1991 40.3354 53.8152C39.9516 53.4314 39.431 53.2158 38.8881 53.2158ZM47.2568 8.01961C43.4102 4.16788 38.2575 2.04693 32.7479 2.04693C30.0582 2.04052 27.3938 2.56555 24.9077 3.59187C22.4216 4.61819 20.1627 6.12558 18.2608 8.02744C16.359 9.9293 14.8516 12.1882 13.8253 14.6743C12.799 17.1604 12.2739 19.8248 12.2803 22.5145C12.2803 28.4782 14.5663 34.0569 18.5485 37.8191L19.1063 38.3423C21.4101 40.4965 24.5609 43.4476 24.5609 46.0521V49.1223C24.5609 49.6651 24.7765 50.1857 25.1603 50.5695C25.5442 50.9534 26.0648 51.169 26.6076 51.169H29.6777C29.9492 51.169 30.2095 51.0612 30.4014 50.8693C30.5933 50.6773 30.7011 50.417 30.7011 50.1456V35.1557C30.7012 34.9488 30.6385 34.7467 30.5213 34.5761C30.4042 34.4055 30.2381 34.2744 30.0449 34.2001C28.863 33.718 27.7402 33.1021 26.6984 32.3645C26.4643 32.215 26.2631 32.0194 26.107 31.7896C25.9509 31.5599 25.8432 31.3007 25.7905 31.028C25.7377 30.7553 25.7411 30.4747 25.8003 30.2033C25.8594 29.9319 25.9733 29.6754 26.1348 29.4494C26.2963 29.2234 26.5021 29.0327 26.7396 28.8888C26.9772 28.7449 27.2416 28.6508 27.5167 28.6124C27.7918 28.5739 28.0719 28.5919 28.3398 28.6651C28.6077 28.7384 28.858 28.8654 29.0752 29.0385C30.0218 29.7088 31.8447 30.7015 32.7479 30.7015C33.651 30.7015 35.4739 29.7062 36.4231 29.0385C36.865 28.7606 37.3964 28.6622 37.9086 28.7632C38.4208 28.8643 38.875 29.1572 39.1783 29.5821C39.4816 30.007 39.6111 30.5317 39.5403 31.0489C39.4694 31.5661 39.2037 32.0367 38.7973 32.3645C37.7554 33.1007 36.6326 33.7153 35.4509 34.1963C35.2577 34.2706 35.0916 34.4016 34.9744 34.5722C34.8572 34.7428 34.7946 34.9449 34.7946 35.1519V50.1456C34.7946 50.417 34.9024 50.6773 35.0944 50.8693C35.2863 51.0612 35.5466 51.169 35.818 51.169H38.8881C39.431 51.169 39.9516 50.9534 40.3354 50.5695C40.7192 50.1857 40.9349 49.6651 40.9349 49.1223V46.0521C40.9349 43.509 44.0511 40.5604 46.3268 38.4062L46.9549 37.8101C51.051 33.8995 53.2154 28.6048 53.2154 22.5145C53.229 19.8246 52.7093 17.1587 51.6866 14.6708C50.6639 12.1828 49.1583 9.92227 47.2568 8.01961Z" fill="#5572DA"/>
</svg>
