<svg width="390" height="101" viewBox="0 0 390 101" fill="none" xmlns="http://www.w3.org/2000/svg">
<path d="M0 50.416H201.017V100.832H12.9272C5.7877 100.832 0 95.0442 0 87.9048V50.416Z" fill="#FFBA6D"/>
<path d="M0 12.9272C0 5.78768 5.78768 0 12.9272 0H377.073C384.212 0 390 5.78768 390 12.9272V50H0V12.9272Z" fill="#D6D9ED"/>
<rect x="201.018" y="50.416" width="95.6609" height="50.4159" fill="#D47205"/>
<path d="M294 50.416H389.661V87.9048C389.661 95.0442 383.873 100.832 376.734 100.832H294V50.416Z" fill="#2E3142"/>
<path d="M37.8057 31.9272V18.3537H40.4041L48.4124 28.1267H47.1521V18.3537H50.2546V31.9272H47.6756L39.6478 22.1543H40.9082V31.9272H37.8057ZM57.6544 32.0824C56.7883 32.0824 56.0127 31.9143 55.3275 31.5782C54.6553 31.2421 54.1318 30.7315 53.7569 30.0463C53.382 29.3483 53.1945 28.4628 53.1945 27.3898V21.495H56.2195V26.9438C56.2195 27.8099 56.4005 28.4498 56.7624 28.8635C57.1373 29.2643 57.6609 29.4646 58.3331 29.4646C58.7985 29.4646 59.2121 29.3677 59.5741 29.1738C59.936 28.9669 60.2204 28.6567 60.4273 28.243C60.6341 27.8164 60.7375 27.2864 60.7375 26.653V21.495H63.7625V31.9272H60.8927V29.0574L61.4162 29.8912C61.0672 30.6151 60.5501 31.1645 59.8649 31.5394C59.1927 31.9014 58.4559 32.0824 57.6544 32.0824ZM71.7422 32.0824C70.5529 32.0824 69.5058 31.8497 68.6009 31.3843C67.7089 30.9189 67.0173 30.2855 66.5261 29.484C66.0349 28.6696 65.7893 27.7453 65.7893 26.7111C65.7893 25.664 66.0284 24.7397 66.5067 23.9383C66.998 23.1239 67.6637 22.4904 68.504 22.038C69.3442 21.5726 70.2944 21.3399 71.3544 21.3399C72.3756 21.3399 73.2935 21.5597 74.1079 21.9992C74.9352 22.4258 75.588 23.0463 76.0664 23.8607C76.5447 24.6622 76.7838 25.6253 76.7838 26.7499C76.7838 26.8663 76.7773 27.002 76.7644 27.1571C76.7515 27.2993 76.7386 27.4351 76.7256 27.5643H68.2519V25.7998H75.1356L73.9722 26.3233C73.9722 25.7804 73.8623 25.3085 73.6425 24.9078C73.4227 24.5071 73.119 24.1968 72.7311 23.977C72.3433 23.7444 71.8909 23.628 71.3738 23.628C70.8567 23.628 70.3978 23.7444 69.9971 23.977C69.6092 24.1968 69.3055 24.5135 69.0857 24.9272C68.8659 25.3279 68.756 25.8062 68.756 26.3621V26.8275C68.756 27.3963 68.8789 27.9004 69.1245 28.34C69.383 28.7666 69.7385 29.0962 70.191 29.3289C70.6563 29.5487 71.1993 29.6585 71.8198 29.6585C72.3756 29.6585 72.8604 29.5745 73.2741 29.4065C73.7007 29.2384 74.0885 28.9863 74.4375 28.6502L76.047 30.3954C75.5687 30.9383 74.9675 31.3585 74.2436 31.6558C73.5197 31.9402 72.6859 32.0824 71.7422 32.0824ZM81.4394 31.9272L77.0571 21.495H80.179L83.8245 30.4729H82.2732L86.0544 21.495H88.963L84.5613 31.9272H81.4394ZM96.2554 31.9272V29.8912L96.0615 29.4452V25.7998C96.0615 25.1534 95.8612 24.6493 95.4604 24.2873C95.0726 23.9253 94.4715 23.7444 93.6571 23.7444C93.1012 23.7444 92.5518 23.8348 92.0089 24.0158C91.4789 24.1839 91.0264 24.4166 90.6515 24.7139L89.5656 22.6003C90.1344 22.1996 90.8196 21.8893 91.6211 21.6696C92.4225 21.4498 93.2369 21.3399 94.0643 21.3399C95.6543 21.3399 96.8889 21.7148 97.7679 22.4646C98.647 23.2143 99.0865 24.3843 99.0865 25.9743V31.9272H96.2554ZM93.0754 32.0824C92.2609 32.0824 91.5629 31.9466 90.9812 31.6752C90.3994 31.3908 89.9534 31.0094 89.6432 30.5311C89.3329 30.0528 89.1778 29.5163 89.1778 28.9217C89.1778 28.3012 89.3265 27.7582 89.6238 27.2929C89.9341 26.8275 90.4188 26.4655 91.0781 26.207C91.7374 25.9355 92.5971 25.7998 93.6571 25.7998H96.43V27.5643H93.9867C93.2757 27.5643 92.7845 27.6807 92.513 27.9134C92.2545 28.1461 92.1252 28.4369 92.1252 28.7859C92.1252 29.1738 92.2739 29.484 92.5712 29.7167C92.8814 29.9365 93.3016 30.0463 93.8316 30.0463C94.3358 30.0463 94.7882 29.93 95.1889 29.6973C95.5897 29.4517 95.8805 29.0962 96.0615 28.6308L96.5269 30.027C96.3071 30.6992 95.9064 31.2098 95.3247 31.5588C94.743 31.9079 93.9932 32.0824 93.0754 32.0824ZM107.316 31.9272V21.495H110.205V24.4424L109.798 23.5892C110.108 22.8524 110.606 22.2965 111.291 21.9216C111.976 21.5338 112.81 21.3399 113.792 21.3399V24.1322C113.663 24.1192 113.547 24.1128 113.443 24.1128C113.34 24.0999 113.23 24.0934 113.114 24.0934C112.286 24.0934 111.614 24.3325 111.097 24.8108C110.593 25.2762 110.341 26.0066 110.341 27.002V31.9272H107.316ZM120.674 32.0824C119.484 32.0824 118.437 31.8497 117.532 31.3843C116.64 30.9189 115.949 30.2855 115.457 29.484C114.966 28.6696 114.721 27.7453 114.721 26.7111C114.721 25.664 114.96 24.7397 115.438 23.9383C115.929 23.1239 116.595 22.4904 117.435 22.038C118.276 21.5726 119.226 21.3399 120.286 21.3399C121.307 21.3399 122.225 21.5597 123.039 21.9992C123.867 22.4258 124.519 23.0463 124.998 23.8607C125.476 24.6622 125.715 25.6253 125.715 26.7499C125.715 26.8663 125.709 27.002 125.696 27.1571C125.683 27.2993 125.67 27.4351 125.657 27.5643H117.183V25.7998H124.067L122.903 26.3233C122.903 25.7804 122.794 25.3085 122.574 24.9078C122.354 24.5071 122.05 24.1968 121.662 23.977C121.275 23.7444 120.822 23.628 120.305 23.628C119.788 23.628 119.329 23.7444 118.928 23.977C118.541 24.1968 118.237 24.5135 118.017 24.9272C117.797 25.3279 117.687 25.8062 117.687 26.3621V26.8275C117.687 27.3963 117.81 27.9004 118.056 28.34C118.314 28.7666 118.67 29.0962 119.122 29.3289C119.588 29.5487 120.131 29.6585 120.751 29.6585C121.307 29.6585 121.792 29.5745 122.205 29.4065C122.632 29.2384 123.02 28.9863 123.369 28.6502L124.978 30.3954C124.5 30.9383 123.899 31.3585 123.175 31.6558C122.451 31.9402 121.617 32.0824 120.674 32.0824ZM131.239 32.0824C130.347 32.0824 129.487 31.979 128.66 31.7721C127.845 31.5524 127.199 31.2809 126.721 30.9577L127.729 28.7859C128.207 29.0833 128.77 29.3289 129.416 29.5228C130.075 29.7038 130.722 29.7943 131.355 29.7943C132.053 29.7943 132.544 29.7102 132.829 29.5422C133.126 29.3741 133.275 29.1414 133.275 28.8441C133.275 28.5985 133.158 28.4175 132.926 28.3012C132.706 28.1719 132.409 28.075 132.034 28.0103C131.659 27.9457 131.245 27.881 130.793 27.8164C130.353 27.7518 129.907 27.6677 129.455 27.5643C129.002 27.448 128.589 27.2799 128.214 27.0602C127.839 26.8404 127.535 26.5431 127.302 26.1682C127.083 25.7933 126.973 25.3085 126.973 24.7139C126.973 24.0546 127.16 23.4729 127.535 22.9687C127.923 22.4646 128.479 22.0703 129.203 21.7859C129.927 21.4886 130.793 21.3399 131.801 21.3399C132.512 21.3399 133.236 21.4175 133.973 21.5726C134.71 21.7277 135.324 21.9539 135.815 22.2513L134.807 24.4036C134.302 24.1063 133.792 23.9059 133.275 23.8025C132.771 23.6862 132.279 23.628 131.801 23.628C131.129 23.628 130.638 23.7185 130.327 23.8995C130.017 24.0805 129.862 24.3132 129.862 24.5976C129.862 24.8561 129.972 25.05 130.192 25.1793C130.424 25.3085 130.728 25.412 131.103 25.4895C131.478 25.5671 131.885 25.6382 132.325 25.7028C132.777 25.7545 133.23 25.8386 133.682 25.9549C134.134 26.0712 134.542 26.2393 134.904 26.4591C135.278 26.6659 135.582 26.9568 135.815 27.3316C136.048 27.6936 136.164 28.1719 136.164 28.7666C136.164 29.4129 135.97 29.9882 135.582 30.4923C135.194 30.9836 134.632 31.3714 133.895 31.6558C133.171 31.9402 132.286 32.0824 131.239 32.0824ZM143.208 32.0824C142.018 32.0824 140.971 31.8497 140.066 31.3843C139.174 30.9189 138.483 30.2855 137.992 29.484C137.5 28.6696 137.255 27.7453 137.255 26.7111C137.255 25.664 137.494 24.7397 137.972 23.9383C138.463 23.1239 139.129 22.4904 139.969 22.038C140.81 21.5726 141.76 21.3399 142.82 21.3399C143.841 21.3399 144.759 21.5597 145.573 21.9992C146.401 22.4258 147.053 23.0463 147.532 23.8607C148.01 24.6622 148.249 25.6253 148.249 26.7499C148.249 26.8663 148.243 27.002 148.23 27.1571C148.217 27.2993 148.204 27.4351 148.191 27.5643H139.717V25.7998H146.601L145.438 26.3233C145.438 25.7804 145.328 25.3085 145.108 24.9078C144.888 24.5071 144.584 24.1968 144.197 23.977C143.809 23.7444 143.356 23.628 142.839 23.628C142.322 23.628 141.863 23.7444 141.462 23.977C141.075 24.1968 140.771 24.5135 140.551 24.9272C140.331 25.3279 140.221 25.8062 140.221 26.3621V26.8275C140.221 27.3963 140.344 27.9004 140.59 28.34C140.848 28.7666 141.204 29.0962 141.656 29.3289C142.122 29.5487 142.665 29.6585 143.285 29.6585C143.841 29.6585 144.326 29.5745 144.74 29.4065C145.166 29.2384 145.554 28.9863 145.903 28.6502L147.512 30.3954C147.034 30.9383 146.433 31.3585 145.709 31.6558C144.985 31.9402 144.151 32.0824 143.208 32.0824ZM150.263 31.9272V21.495H153.152V24.4424L152.745 23.5892C153.055 22.8524 153.553 22.2965 154.238 21.9216C154.923 21.5338 155.757 21.3399 156.74 21.3399V24.1322C156.61 24.1192 156.494 24.1128 156.391 24.1128C156.287 24.0999 156.177 24.0934 156.061 24.0934C155.234 24.0934 154.561 24.3325 154.044 24.8108C153.54 25.2762 153.288 26.0066 153.288 27.002V31.9272H150.263ZM161.729 31.9272L157.347 21.495H160.469L164.114 30.4729H162.563L166.344 21.495H169.253L164.851 31.9272H161.729ZM176.545 31.9272V29.8912L176.351 29.4452V25.7998C176.351 25.1534 176.151 24.6493 175.75 24.2873C175.362 23.9253 174.761 23.7444 173.947 23.7444C173.391 23.7444 172.842 23.8348 172.299 24.0158C171.769 24.1839 171.316 24.4166 170.941 24.7139L169.855 22.6003C170.424 22.1996 171.109 21.8893 171.911 21.6696C172.712 21.4498 173.527 21.3399 174.354 21.3399C175.944 21.3399 177.179 21.7148 178.058 22.4646C178.937 23.2143 179.376 24.3843 179.376 25.9743V31.9272H176.545ZM173.365 32.0824C172.551 32.0824 171.853 31.9466 171.271 31.6752C170.689 31.3908 170.243 31.0094 169.933 30.5311C169.623 30.0528 169.468 29.5163 169.468 28.9217C169.468 28.3012 169.616 27.7582 169.914 27.2929C170.224 26.8275 170.709 26.4655 171.368 26.207C172.027 25.9355 172.887 25.7998 173.947 25.7998H176.72V27.5643H174.276C173.565 27.5643 173.074 27.6807 172.803 27.9134C172.544 28.1461 172.415 28.4369 172.415 28.7859C172.415 29.1738 172.564 29.484 172.861 29.7167C173.171 29.9365 173.591 30.0463 174.121 30.0463C174.625 30.0463 175.078 29.93 175.479 29.6973C175.879 29.4517 176.17 29.0962 176.351 28.6308L176.817 30.027C176.597 30.6992 176.196 31.2098 175.614 31.5588C175.033 31.9079 174.283 32.0824 173.365 32.0824ZM187.231 32.0824C186.107 32.0824 185.105 31.8561 184.226 31.4037C183.347 30.9383 182.655 30.2984 182.151 29.484C181.66 28.6696 181.414 27.7453 181.414 26.7111C181.414 25.664 181.66 24.7397 182.151 23.9383C182.655 23.1239 183.347 22.4904 184.226 22.038C185.105 21.5726 186.107 21.3399 187.231 21.3399C188.33 21.3399 189.287 21.5726 190.101 22.038C190.916 22.4904 191.517 23.1432 191.904 23.9964L189.558 25.2568C189.287 24.7656 188.944 24.4036 188.53 24.171C188.13 23.9383 187.69 23.8219 187.212 23.8219C186.695 23.8219 186.229 23.9383 185.816 24.171C185.402 24.4036 185.072 24.7333 184.827 25.1599C184.594 25.5865 184.478 26.1036 184.478 26.7111C184.478 27.3187 184.594 27.8358 184.827 28.2624C185.072 28.689 185.402 29.0186 185.816 29.2513C186.229 29.484 186.695 29.6004 187.212 29.6004C187.69 29.6004 188.13 29.4905 188.53 29.2707C188.944 29.038 189.287 28.6696 189.558 28.1654L191.904 29.4452C191.517 30.2855 190.916 30.9383 190.101 31.4037C189.287 31.8561 188.33 32.0824 187.231 32.0824ZM193.57 31.9272V21.495H196.595V31.9272H193.57ZM195.083 20.0407C194.527 20.0407 194.075 19.8791 193.725 19.556C193.376 19.2328 193.202 18.832 193.202 18.3537C193.202 17.8754 193.376 17.4747 193.725 17.1515C194.075 16.8283 194.527 16.6667 195.083 16.6667C195.639 16.6667 196.091 16.8219 196.44 17.1321C196.789 17.4294 196.964 17.8173 196.964 18.2956C196.964 18.7997 196.789 19.2199 196.44 19.556C196.104 19.8791 195.652 20.0407 195.083 20.0407ZM204.367 32.0824C203.255 32.0824 202.266 31.8497 201.4 31.3843C200.547 30.9189 199.868 30.2855 199.364 29.484C198.873 28.6696 198.627 27.7453 198.627 26.7111C198.627 25.664 198.873 24.7397 199.364 23.9383C199.868 23.1239 200.547 22.4904 201.4 22.038C202.266 21.5726 203.255 21.3399 204.367 21.3399C205.466 21.3399 206.448 21.5726 207.314 22.038C208.18 22.4904 208.859 23.1174 209.35 23.9189C209.841 24.7204 210.087 25.6511 210.087 26.7111C210.087 27.7453 209.841 28.6696 209.35 29.484C208.859 30.2855 208.18 30.9189 207.314 31.3843C206.448 31.8497 205.466 32.0824 204.367 32.0824ZM204.367 29.6004C204.871 29.6004 205.323 29.484 205.724 29.2513C206.125 29.0186 206.442 28.689 206.674 28.2624C206.907 27.8229 207.023 27.3058 207.023 26.7111C207.023 26.1036 206.907 25.5865 206.674 25.1599C206.442 24.7333 206.125 24.4036 205.724 24.171C205.323 23.9383 204.871 23.8219 204.367 23.8219C203.863 23.8219 203.41 23.9383 203.009 24.171C202.609 24.4036 202.285 24.7333 202.04 25.1599C201.807 25.5865 201.691 26.1036 201.691 26.7111C201.691 27.3058 201.807 27.8229 202.04 28.2624C202.285 28.689 202.609 29.0186 203.009 29.2513C203.41 29.484 203.863 29.6004 204.367 29.6004ZM202.563 20.1571L205.181 17.3648H208.439L204.929 20.1571H202.563ZM218.45 21.3399C219.277 21.3399 220.014 21.508 220.66 21.8441C221.32 22.1672 221.837 22.6714 222.212 23.3565C222.586 24.0288 222.774 24.8949 222.774 25.9549V31.9272H219.749V26.4203C219.749 25.58 219.561 24.9595 219.187 24.5588C218.825 24.158 218.308 23.9577 217.635 23.9577C217.157 23.9577 216.724 24.0611 216.336 24.2679C215.961 24.4618 215.664 24.7656 215.444 25.1793C215.237 25.5929 215.134 26.123 215.134 26.7693V31.9272H212.109V21.495H214.998V24.3843L214.455 23.5117C214.83 22.8136 215.367 22.2771 216.065 21.9022C216.763 21.5274 217.558 21.3399 218.45 21.3399Z" fill="#2E3142"/>
<circle cx="290.348" cy="48.3483" r="31.3483" fill="#5572DA"/>
<path d="M279.097 64.792V36.3882L282.204 39.4949H272.884V33.7254H286.287V64.792H279.097ZM300.382 59.5107V39.0067H306.108V59.5107H300.382ZM292.704 51.9659V46.5514H313.83V51.9659H292.704Z" fill="white"/>
<path d="M115.94 73.4521C115.074 73.072 114.139 72.8762 113.193 72.877H88.4701C87.5245 72.8761 86.5891 73.0716 85.7231 73.4513C84.4991 73.9865 83.4576 74.8668 82.7258 75.9844C81.994 77.102 81.6037 78.4086 81.6025 79.7445V89.3591C81.6025 89.7234 81.7472 90.0727 82.0048 90.3303C82.2624 90.5879 82.6118 90.7326 82.976 90.7326C83.3403 90.7326 83.6897 90.5879 83.9473 90.3303C84.2049 90.0727 84.3496 89.7234 84.3496 89.3591V88.6723C84.3518 88.4909 84.4249 88.3175 84.5532 88.1892C84.6815 88.0609 84.8549 87.9878 85.0363 87.9856H116.627C116.808 87.9878 116.982 88.0609 117.11 88.1892C117.239 88.3175 117.312 88.4909 117.314 88.6723V89.3591C117.314 89.7234 117.459 90.0727 117.716 90.3303C117.974 90.5879 118.323 90.7326 118.687 90.7326C119.052 90.7326 119.401 90.5879 119.659 90.3303C119.916 90.0727 120.061 89.7234 120.061 89.3591V79.7445C120.059 78.4088 119.669 77.1024 118.937 75.9849C118.206 74.8674 117.164 73.9873 115.94 73.4521ZM111.133 60.5154H90.5304C89.2554 60.5154 88.0326 61.0219 87.1311 61.9234C86.2295 62.8249 85.7231 64.0477 85.7231 65.3227V71.5035C85.7231 71.5567 85.7355 71.6091 85.7593 71.6567C85.7831 71.7043 85.8176 71.7458 85.8602 71.7777C85.9027 71.8097 85.9521 71.8313 86.0044 71.8409C86.0568 71.8506 86.1106 71.8479 86.1617 71.8331C86.9115 71.6138 87.6889 71.5028 88.4701 71.5035H88.8332C88.918 71.504 88.9999 71.4732 89.0633 71.4169C89.1267 71.3606 89.1671 71.2829 89.1766 71.1987C89.2515 70.5276 89.571 69.9075 90.0741 69.457C90.5772 69.0065 91.2286 68.7571 91.9039 68.7564H96.7111C97.3869 68.7565 98.0389 69.0056 98.5425 69.4562C99.0462 69.9067 99.366 70.5271 99.441 71.1987C99.4505 71.2829 99.4909 71.3606 99.5543 71.4169C99.6177 71.4732 99.6996 71.504 99.7844 71.5035H101.884C101.969 71.504 102.051 71.4732 102.114 71.4169C102.178 71.3606 102.218 71.2829 102.228 71.1987C102.302 70.528 102.622 69.9083 103.124 69.4579C103.627 69.0075 104.277 68.7578 104.952 68.7564H109.759C110.435 68.7565 111.087 69.0056 111.591 69.4562C112.095 69.9067 112.414 70.5271 112.489 71.1987C112.499 71.2829 112.539 71.3606 112.603 71.4169C112.666 71.4732 112.748 71.504 112.833 71.5035H113.193C113.975 71.5031 114.752 71.6144 115.502 71.834C115.553 71.8487 115.607 71.8514 115.659 71.8418C115.712 71.8321 115.761 71.8104 115.804 71.7783C115.846 71.7463 115.881 71.7047 115.904 71.657C115.928 71.6093 115.94 71.5567 115.94 71.5035V65.3227C115.94 64.0477 115.434 62.8249 114.532 61.9234C113.631 61.0219 112.408 60.5154 111.133 60.5154Z" fill="black"/>
</svg>
