<svg width="256" height="281" viewBox="0 0 256 281" fill="none" xmlns="http://www.w3.org/2000/svg">
<g filter="url(#filter0_d_768_2071)">
<path d="M14 30C14 18.9543 22.9543 10 34 10H222C233.046 10 242 18.9543 242 30V242.554C242 253.6 233.046 262.554 222 262.554H34C22.9543 262.554 14 253.6 14 242.554V30Z" fill="white"/>
</g>
<path d="M183.5 79.7979H72.5C67.3914 79.7979 63.25 83.9162 63.25 88.9965V93.5958C63.25 98.676 67.3914 102.794 72.5 102.794H183.5C188.609 102.794 192.75 98.676 192.75 93.5958V88.9965C192.75 83.9162 188.609 79.7979 183.5 79.7979Z" fill="#5572DA"/>
<path d="M75.5208 111.993C75.1958 111.991 74.8741 112.058 74.5767 112.188C74.2793 112.318 74.0128 112.509 73.7946 112.749C73.5764 112.988 73.4114 113.271 73.3104 113.578C73.2093 113.885 73.1746 114.21 73.2083 114.531L80.8135 187.131C80.812 187.153 80.812 187.174 80.8135 187.195C81.2109 190.553 82.8343 193.649 85.3755 195.895C87.9167 198.141 91.1989 199.381 94.5989 199.38H161.398C164.797 199.38 168.078 198.139 170.618 195.893C173.158 193.647 174.781 190.552 175.178 187.195V187.134L182.772 114.531C182.805 114.21 182.771 113.885 182.67 113.578C182.569 113.271 182.404 112.988 182.185 112.749C181.967 112.509 181.701 112.318 181.403 112.188C181.106 112.058 180.784 111.991 180.459 111.993H75.5208ZM147.457 163.934C147.897 164.359 148.247 164.866 148.488 165.427C148.728 165.987 148.854 166.59 148.859 167.2C148.863 167.809 148.746 168.414 148.513 168.978C148.28 169.542 147.937 170.054 147.504 170.485C147.07 170.916 146.555 171.257 145.987 171.488C145.42 171.72 144.812 171.836 144.199 171.832C143.586 171.827 142.98 171.701 142.416 171.462C141.853 171.222 141.342 170.873 140.915 170.436L128 157.592L115.082 170.436C114.211 171.278 113.041 171.745 111.826 171.737C110.611 171.728 109.449 171.244 108.589 170.39C107.73 169.536 107.243 168.38 107.234 167.172C107.225 165.964 107.694 164.801 108.54 163.934L121.459 151.087L108.54 138.241C107.694 137.374 107.225 136.211 107.234 135.003C107.243 133.795 107.73 132.638 108.589 131.784C109.449 130.93 110.611 130.447 111.826 130.438C113.041 130.43 114.211 130.897 115.082 131.739L128 144.582L140.915 131.739C141.787 130.897 142.956 130.43 144.171 130.438C145.386 130.447 146.549 130.93 147.408 131.784C148.267 132.638 148.754 133.795 148.763 135.003C148.772 136.211 148.303 137.374 147.457 138.241L134.539 151.087L147.457 163.934Z" fill="#5572DA"/>
<defs>
<filter id="filter0_d_768_2071" x="0" y="0" width="256" height="280.554" filterUnits="userSpaceOnUse" color-interpolation-filters="sRGB">
<feFlood flood-opacity="0" result="BackgroundImageFix"/>
<feColorMatrix in="SourceAlpha" type="matrix" values="0 0 0 0 0 0 0 0 0 0 0 0 0 0 0 0 0 0 127 0" result="hardAlpha"/>
<feOffset dy="4"/>
<feGaussianBlur stdDeviation="7"/>
<feComposite in2="hardAlpha" operator="out"/>
<feColorMatrix type="matrix" values="0 0 0 0 0 0 0 0 0 0 0 0 0 0 0 0 0 0 0.3 0"/>
<feBlend mode="normal" in2="BackgroundImageFix" result="effect1_dropShadow_768_2071"/>
<feBlend mode="normal" in="SourceGraphic" in2="effect1_dropShadow_768_2071" result="shape"/>
</filter>
</defs>
</svg>
