<svg width="384" height="304" viewBox="0 0 384 304" fill="none" xmlns="http://www.w3.org/2000/svg">
<g filter="url(#filter0_d_496_5640)">
<rect x="17" y="14" width="346" height="265.31" rx="22.5933" fill="white" fill-opacity="0.9" shape-rendering="crispEdges"/>
</g>
<circle cx="38.3019" cy="35.3028" r="4.51866" fill="#FFBA6D"/>
<circle cx="53.794" cy="35.3028" r="4.51866" fill="#CBACF8"/>
<circle cx="69.2862" cy="35.3028" r="4.51866" fill="#2E3142"/>
<path d="M35.0742 52.4082H329.755" stroke="black" stroke-width="0.645522"/>
<rect x="36.3652" y="57.25" width="90.3731" height="208.504" fill="url(#paint0_linear_496_5640)"/>
<rect x="134.484" y="65.6416" width="49.7052" height="11.6194" fill="#5572DA"/>
<rect x="186.127" y="65.6416" width="49.7052" height="11.6194" fill="#E2E3EB"/>
<rect x="135.131" y="82.4248" width="194.948" height="183.328" fill="#5C6284"/>
<path d="M298.938 139.25C298.938 134.443 297.028 129.833 293.629 126.434C290.23 123.035 285.62 121.125 280.812 121.125H276.281V116.721C276.281 114.283 274.406 112.19 271.968 112.068C271.355 112.039 270.743 112.134 270.168 112.348C269.594 112.562 269.068 112.891 268.624 113.314C268.18 113.737 267.827 114.246 267.585 114.81C267.343 115.373 267.219 115.98 267.219 116.594V121.125H203.781V116.721C203.781 114.283 201.906 112.19 199.468 112.068C198.855 112.039 198.243 112.134 197.668 112.348C197.094 112.562 196.568 112.891 196.124 113.314C195.68 113.737 195.327 114.246 195.085 114.81C194.843 115.373 194.719 115.98 194.719 116.594V121.125H190.188C185.38 121.125 180.77 123.035 177.371 126.434C173.972 129.833 172.062 134.443 172.062 139.25V142.649C172.062 142.949 172.182 143.237 172.394 143.45C172.607 143.662 172.895 143.781 173.195 143.781H297.805C298.105 143.781 298.393 143.662 298.606 143.45C298.818 143.237 298.938 142.949 298.938 142.649V139.25ZM172.062 220.813C172.062 225.62 173.972 230.23 177.371 233.629C180.77 237.028 185.38 238.938 190.188 238.938H280.812C285.62 238.938 290.23 237.028 293.629 233.629C297.028 230.23 298.938 225.62 298.938 220.813V153.693C298.938 153.468 298.848 153.252 298.689 153.093C298.529 152.933 298.313 152.844 298.088 152.844H172.912C172.687 152.844 172.471 152.933 172.311 153.093C172.152 153.252 172.062 153.468 172.062 153.693V220.813ZM269.484 161.906C270.829 161.906 272.143 162.305 273.261 163.052C274.378 163.799 275.249 164.86 275.764 166.102C276.278 167.344 276.413 168.711 276.151 170.029C275.888 171.348 275.241 172.559 274.29 173.509C273.34 174.46 272.129 175.107 270.81 175.369C269.492 175.632 268.125 175.497 266.883 174.983C265.641 174.468 264.58 173.597 263.833 172.479C263.086 171.362 262.688 170.047 262.688 168.703C262.688 166.901 263.404 165.172 264.678 163.897C265.953 162.622 267.682 161.906 269.484 161.906ZM269.484 184.563C270.829 184.563 272.143 184.961 273.261 185.708C274.378 186.455 275.249 187.516 275.764 188.758C276.278 190 276.413 191.367 276.151 192.685C275.888 194.004 275.241 195.215 274.29 196.166C273.34 197.116 272.129 197.763 270.81 198.026C269.492 198.288 268.125 198.153 266.883 197.639C265.641 197.124 264.58 196.253 263.833 195.136C263.086 194.018 262.688 192.704 262.688 191.359C262.688 189.557 263.404 187.828 264.678 186.553C265.953 185.279 267.682 184.563 269.484 184.563ZM246.828 161.906C248.172 161.906 249.487 162.305 250.604 163.052C251.722 163.799 252.593 164.86 253.108 166.102C253.622 167.344 253.757 168.711 253.494 170.029C253.232 171.348 252.585 172.559 251.634 173.509C250.684 174.46 249.473 175.107 248.154 175.369C246.836 175.632 245.469 175.497 244.227 174.983C242.985 174.468 241.924 173.597 241.177 172.479C240.43 171.362 240.031 170.047 240.031 168.703C240.031 166.901 240.747 165.172 242.022 163.897C243.297 162.622 245.025 161.906 246.828 161.906ZM246.828 184.563C248.172 184.563 249.487 184.961 250.604 185.708C251.722 186.455 252.593 187.516 253.108 188.758C253.622 190 253.757 191.367 253.494 192.685C253.232 194.004 252.585 195.215 251.634 196.166C250.684 197.116 249.473 197.763 248.154 198.026C246.836 198.288 245.469 198.153 244.227 197.639C242.985 197.124 241.924 196.253 241.177 195.136C240.43 194.018 240.031 192.704 240.031 191.359C240.031 189.557 240.747 187.828 242.022 186.553C243.297 185.279 245.025 184.563 246.828 184.563ZM246.828 207.219C248.172 207.219 249.487 207.617 250.604 208.364C251.722 209.111 252.593 210.173 253.108 211.415C253.622 212.657 253.757 214.023 253.494 215.342C253.232 216.66 252.585 217.871 251.634 218.822C250.684 219.772 249.473 220.42 248.154 220.682C246.836 220.944 245.469 220.81 244.227 220.295C242.985 219.781 241.924 218.91 241.177 217.792C240.43 216.674 240.031 215.36 240.031 214.016C240.031 212.213 240.747 210.484 242.022 209.21C243.297 207.935 245.025 207.219 246.828 207.219ZM224.172 184.563C225.516 184.563 226.83 184.961 227.948 185.708C229.066 186.455 229.937 187.516 230.451 188.758C230.966 190 231.1 191.367 230.838 192.685C230.576 194.004 229.929 195.215 228.978 196.166C228.027 197.116 226.816 197.763 225.498 198.026C224.179 198.288 222.813 198.153 221.571 197.639C220.329 197.124 219.267 196.253 218.52 195.136C217.774 194.018 217.375 192.704 217.375 191.359C217.375 189.557 218.091 187.828 219.366 186.553C220.64 185.279 222.369 184.563 224.172 184.563ZM224.172 207.219C225.516 207.219 226.83 207.617 227.948 208.364C229.066 209.111 229.937 210.173 230.451 211.415C230.966 212.657 231.1 214.023 230.838 215.342C230.576 216.66 229.929 217.871 228.978 218.822C228.027 219.772 226.816 220.42 225.498 220.682C224.179 220.944 222.813 220.81 221.571 220.295C220.329 219.781 219.267 218.91 218.52 217.792C217.774 216.674 217.375 215.36 217.375 214.016C217.375 212.213 218.091 210.484 219.366 209.21C220.64 207.935 222.369 207.219 224.172 207.219ZM201.516 184.563C202.86 184.563 204.174 184.961 205.292 185.708C206.41 186.455 207.281 187.516 207.795 188.758C208.31 190 208.444 191.367 208.182 192.685C207.92 194.004 207.272 195.215 206.322 196.166C205.371 197.116 204.16 197.763 202.842 198.026C201.523 198.288 200.157 198.153 198.915 197.639C197.673 197.124 196.611 196.253 195.864 195.136C195.117 194.018 194.719 192.704 194.719 191.359C194.719 189.557 195.435 187.828 196.71 186.553C197.984 185.279 199.713 184.563 201.516 184.563ZM201.516 207.219C202.86 207.219 204.174 207.617 205.292 208.364C206.41 209.111 207.281 210.173 207.795 211.415C208.31 212.657 208.444 214.023 208.182 215.342C207.92 216.66 207.272 217.871 206.322 218.822C205.371 219.772 204.16 220.42 202.842 220.682C201.523 220.944 200.157 220.81 198.915 220.295C197.673 219.781 196.611 218.91 195.864 217.792C195.117 216.674 194.719 215.36 194.719 214.016C194.719 212.213 195.435 210.484 196.71 209.21C197.984 207.935 199.713 207.219 201.516 207.219Z" fill="white"/>
<defs>
<filter id="filter0_d_496_5640" x="0.216419" y="0.444031" width="383.44" height="302.75" filterUnits="userSpaceOnUse" color-interpolation-filters="sRGB">
<feFlood flood-opacity="0" result="BackgroundImageFix"/>
<feColorMatrix in="SourceAlpha" type="matrix" values="0 0 0 0 0 0 0 0 0 0 0 0 0 0 0 0 0 0 127 0" result="hardAlpha"/>
<feMorphology radius="3.22761" operator="dilate" in="SourceAlpha" result="effect1_dropShadow_496_5640"/>
<feOffset dx="1.93657" dy="5.16418"/>
<feGaussianBlur stdDeviation="7.74627"/>
<feComposite in2="hardAlpha" operator="out"/>
<feColorMatrix type="matrix" values="0 0 0 0 0 0 0 0 0 0 0 0 0 0 0 0 0 0 0.25 0"/>
<feBlend mode="normal" in2="BackgroundImageFix" result="effect1_dropShadow_496_5640"/>
<feBlend mode="normal" in="SourceGraphic" in2="effect1_dropShadow_496_5640" result="shape"/>
</filter>
<linearGradient id="paint0_linear_496_5640" x1="81.5518" y1="57.25" x2="81.5518" y2="265.754" gradientUnits="userSpaceOnUse">
<stop stop-color="#648BCE"/>
<stop offset="1" stop-color="#CBACF8"/>
</linearGradient>
</defs>
</svg>
