<svg width="323" height="323" viewBox="0 0 323 323" fill="none" xmlns="http://www.w3.org/2000/svg">
<path d="M230 118.868C233.612 113.056 235.508 106.343 235.469 99.5082C235.43 92.6739 233.457 85.9991 229.778 80.2591C226.1 74.5191 220.867 69.9495 214.689 67.0809C208.51 64.2124 201.639 63.1627 194.873 64.0538C188.107 64.9449 181.724 67.7401 176.466 72.1149C171.207 76.4897 167.289 82.2645 165.166 88.7685C163.043 95.2725 162.803 102.239 164.473 108.858C166.143 115.478 169.655 121.479 174.601 126.164L107.02 234.897C106.006 236.53 105.325 238.347 105.017 240.242L103.138 251.85C103.119 252.167 103.186 252.483 103.332 252.765C103.478 253.047 103.696 253.283 103.965 253.451C104.234 253.618 104.543 253.709 104.861 253.715C105.178 253.721 105.491 253.641 105.767 253.484L115.344 246.661C116.907 245.545 118.235 244.13 119.25 242.499L186.831 133.766C194.618 136.63 203.163 136.713 211.027 133.999C218.891 131.285 225.591 125.941 230 118.868ZM208.597 105.566C206.783 104.438 205.345 102.796 204.466 100.845C203.587 98.8952 203.306 96.7252 203.658 94.6098C204.011 92.4943 204.981 90.5285 206.446 88.9608C207.911 87.3931 209.805 86.2941 211.889 85.8025C213.973 85.311 216.153 85.4492 218.153 86.1995C220.153 86.9498 221.884 88.2786 223.127 90.0179C224.369 91.7571 225.068 93.8287 225.134 95.9706C225.2 98.1126 224.63 100.229 223.497 102.051C221.978 104.495 219.555 106.239 216.76 106.898C213.966 107.557 211.03 107.078 208.597 105.566Z" fill="#5572DA"/>
</svg>
