<svg width="558" height="488" viewBox="0 0 558 488" fill="none" xmlns="http://www.w3.org/2000/svg">
<g style="mix-blend-mode:multiply">
<path d="M510.708 82.524L204.93 -70.8713C172.656 -87.0429 134.66 -87.0429 102.387 -70.8713L-203.391 82.524C-231.949 96.8433 -250 126.08 -250 158.053V320.553C-250 352.526 -231.949 381.763 -203.391 396.097L-40.8855 477.525C-26.4358 484.763 -12.8688 493.668 -0.45491 504.026L137.066 618.823L153.993 633L170.934 618.823L308.455 504.026C320.855 493.668 334.422 484.763 348.871 477.525L511.377 396.097C539.949 381.763 557.986 352.526 558 320.553V158.053C557.858 125.924 539.536 96.6581 510.708 82.524Z" fill="url(#paint0_linear_711_2368)"/>
</g>
<g style="mix-blend-mode:multiply" opacity="0.4">
<circle cx="83.1551" cy="398.155" r="305.327" transform="rotate(155.986 83.1551 398.155)" fill="url(#paint1_linear_711_2368)"/>
</g>
<defs>
<linearGradient id="paint0_linear_711_2368" x1="154" y1="82.5" x2="154" y2="633" gradientUnits="userSpaceOnUse">
<stop stop-color="#EAEAEA"/>
<stop offset="1" stop-color="#CBACF8"/>
</linearGradient>
<linearGradient id="paint1_linear_711_2368" x1="83.1551" y1="92.8282" x2="83.1551" y2="703.482" gradientUnits="userSpaceOnUse">
<stop stop-color="#FFBA6D"/>
<stop offset="1" stop-color="#D9D9D9" stop-opacity="0"/>
</linearGradient>
</defs>
</svg>
