<svg width="1728" height="1631" viewBox="0 0 1728 1631" fill="none" xmlns="http://www.w3.org/2000/svg">
<g style="mix-blend-mode:multiply">
<path d="M429.134 1553.33L681.079 1051.14C707.64 998.14 707.64 935.738 681.079 882.734L429.134 380.547C405.615 333.646 357.594 304 305.08 304L38.1811 304C-14.3329 304 -62.3537 333.646 -85.8961 380.547L-219.638 647.434C-231.526 671.165 -246.153 693.447 -263.166 713.835L-451.715 939.689L-475 967.488L-451.715 995.311L-263.166 1221.17C-246.153 1241.53 -231.526 1263.81 -219.638 1287.54L-85.8961 1554.43C-62.3538 1601.35 -14.3329 1630.98 38.181 1631L305.08 1631C357.852 1630.77 405.919 1600.68 429.134 1553.33Z" fill="url(#paint0_linear_705_2324)"/>
</g>
<g style="mix-blend-mode:multiply" opacity="0.4">
<circle cx="970.061" cy="792.061" r="560.075" transform="rotate(-44.8023 970.061 792.061)" fill="url(#paint1_linear_705_2324)" fill-opacity="0.9" style="mix-blend-mode:soft-light"/>
</g>
<defs>
<linearGradient id="paint0_linear_705_2324" x1="247.5" y1="729.5" x2="1056" y2="1242" gradientUnits="userSpaceOnUse">
<stop stop-color="#FEFEFE"/>
<stop offset="1" stop-color="#D6D9ED"/>
</linearGradient>
<linearGradient id="paint1_linear_705_2324" x1="1229.59" y1="-125.69" x2="1029.52" y2="810.155" gradientUnits="userSpaceOnUse">
<stop offset="0.0639265" stop-color="#9747FF" stop-opacity="0.51"/>
<stop offset="1" stop-color="#D9D9D9" stop-opacity="0"/>
</linearGradient>
</defs>
</svg>
