<svg width="1102" height="1208" viewBox="0 0 1102 1208" fill="none" xmlns="http://www.w3.org/2000/svg">
<g style="mix-blend-mode:multiply">
<path d="M168.526 907.495L313.017 619.488C328.25 589.091 328.25 553.303 313.017 522.905L168.526 234.898C155.037 208 127.497 190.998 97.3802 190.998L-55.6878 190.998C-85.8048 190.998 -113.345 208 -126.847 234.898L-203.548 387.959C-210.366 401.569 -218.754 414.348 -228.512 426.04L-336.646 555.569L-350 571.512L-336.646 587.468L-228.512 716.997C-218.755 728.676 -210.366 741.455 -203.548 755.064L-126.847 908.125C-113.345 935.037 -85.8048 952.026 -55.6878 952.039L97.3802 952.039C127.645 951.905 155.212 934.648 168.526 907.495Z" fill="url(#paint0_linear_716_2377)"/>
</g>
<g style="mix-blend-mode:multiply" opacity="0.4">
<circle cx="497.895" cy="603.895" r="427.021" transform="rotate(-44.8023 497.895 603.895)" fill="url(#paint1_linear_716_2377)" fill-opacity="0.9" style="mix-blend-mode:soft-light"/>
</g>
<defs>
<linearGradient id="paint0_linear_716_2377" x1="107.5" y1="756.5" x2="528.036" y2="728.946" gradientUnits="userSpaceOnUse">
<stop offset="0.0749312" stop-color="#FEFEFE"/>
<stop offset="1" stop-color="#D6D9ED"/>
</linearGradient>
<linearGradient id="paint1_linear_716_2377" x1="695.765" y1="-95.8306" x2="543.229" y2="617.69" gradientUnits="userSpaceOnUse">
<stop offset="0.0639265" stop-color="#9747FF" stop-opacity="0.51"/>
<stop offset="1" stop-color="#D9D9D9" stop-opacity="0"/>
</linearGradient>
</defs>
</svg>
