<svg width="1533" height="2236" viewBox="0 0 1533 2236" fill="none" xmlns="http://www.w3.org/2000/svg">
<g style="mix-blend-mode:multiply">
<path d="M416.316 1522.73L949.569 1345.78C1005.83 1327.08 1049.95 1282.96 1068.65 1226.7L1245.6 693.446C1262.13 643.652 1249.14 588.733 1212.01 551.6L1023.28 362.874C986.148 325.741 931.229 312.748 881.418 329.265L598.131 423.413C572.944 431.787 546.846 437.2 520.4 439.586L227.372 465.965L191.25 469.157L188.042 505.296L161.663 798.323C159.293 824.753 153.88 850.851 145.506 876.038L51.3583 1159.33C34.8247 1209.15 47.8339 1264.05 84.9504 1301.2L273.677 1489.93C311.157 1527.08 366.423 1539.79 416.316 1522.73Z" fill="url(#paint0_linear_523_1672)"/>
</g>
<g style="mix-blend-mode:multiply" opacity="0.4">
<circle cx="169.57" cy="1443.91" r="560.075" transform="rotate(45 169.57 1443.91)" fill="url(#paint1_linear_523_1672)" fill-opacity="0.9" style="mix-blend-mode:soft-light"/>
</g>
<defs>
<linearGradient id="paint0_linear_523_1672" x1="820.336" y1="1118.77" x2="271.499" y2="1789.69" gradientUnits="userSpaceOnUse">
<stop stop-color="#FEFEFE"/>
<stop offset="1" stop-color="#D6D9ED"/>
</linearGradient>
<linearGradient id="paint1_linear_523_1672" x1="169.57" y1="585.338" x2="169.57" y2="1952.34" gradientUnits="userSpaceOnUse">
<stop offset="0.0639265" stop-color="#9747FF" stop-opacity="0.51"/>
<stop offset="1" stop-color="#D9D9D9" stop-opacity="0"/>
</linearGradient>
</defs>
</svg>
