<svg width="189" height="50" viewBox="0 0 189 50" fill="none" xmlns="http://www.w3.org/2000/svg">
<g clip-path="url(#clip0_50_6446)">
<path d="M180.429 29.4358C178.206 29.4358 176.403 27.2707 176.403 24.5994C176.403 21.9286 178.206 19.7631 180.429 19.7631C182.653 19.7631 184.455 21.9286 184.455 24.5994C184.455 27.2707 182.653 29.4358 180.429 29.4358ZM184.455 8.47797V18.0272C183.205 17.0901 181.677 16.5391 180.027 16.5391C175.802 16.5391 172.378 20.1479 172.378 24.5999C172.378 29.0519 175.802 32.6606 180.027 32.6606C182.026 32.6606 183.845 31.8521 185.207 30.5289V32.6598H188.48V8.47797H184.455Z" fill="white"/>
<path d="M144.183 29.4364C141.956 29.4364 140.15 27.0941 140.15 24.2055V24.2047C140.15 21.3156 141.956 18.9737 144.183 18.9737C146.41 18.9737 148.216 21.316 148.216 24.2051C148.216 27.0941 146.41 29.4364 144.183 29.4364ZM144.592 15.7494C142.936 15.7494 141.402 16.3321 140.15 17.3217V8.10223H136.125V32.2696H139.397V30.4107C140.762 31.8066 142.587 32.6608 144.592 32.6608C148.817 32.6608 152.241 28.8748 152.241 24.2051C152.241 19.5353 148.817 15.7494 144.592 15.7494Z" fill="white"/>
<path d="M115.177 28.4874C114.946 28.5792 114.696 28.6304 114.433 28.6304C113.321 28.6304 112.42 27.7279 112.42 26.6149V17.7973H116.445V14.5733H112.42V10.1036L108.394 12.1364V14.5733H105.566V17.7973H108.394V26.6149C108.394 29.9539 111.098 32.6607 114.433 32.6607C115.186 32.6607 115.907 32.5224 116.572 32.27L115.177 28.4874Z" fill="white"/>
<path d="M127.833 27.7707C127.399 28.3886 126.787 28.8457 126.046 29.1239C125.677 29.2635 125.279 29.3565 124.868 29.4072C124.663 29.4326 124.454 29.4445 124.244 29.4482C124.14 29.4499 124.034 29.4491 123.931 29.4453L123.8 29.4356C123.757 29.4317 123.715 29.425 123.672 29.4204C123.337 29.37 123.046 29.2428 122.829 29.0694C122.612 28.8964 122.466 28.6841 122.378 28.4752C122.354 28.4241 122.339 28.3708 122.32 28.3213C122.305 28.2697 122.29 28.2202 122.28 28.1716L122.272 28.1357C122.27 28.1234 122.269 28.1116 122.266 28.0997C122.259 28.0769 122.259 28.0528 122.254 28.0304C122.25 27.9847 122.244 27.9416 122.243 27.9001C122.235 27.742 122.253 27.5868 122.289 27.432C122.294 27.4121 122.3 27.3914 122.305 27.3698C122.313 27.3491 122.318 27.3271 122.326 27.3047C122.335 27.2823 122.341 27.2587 122.353 27.235L122.367 27.1982L122.386 27.161C122.409 27.1102 122.439 27.0574 122.472 27.0011C122.508 26.9466 122.545 26.8895 122.593 26.8336C122.682 26.7195 122.794 26.6036 122.926 26.5004C122.99 26.4472 123.06 26.3972 123.132 26.3495C123.205 26.3042 123.28 26.2577 123.358 26.2201C123.512 26.141 123.676 26.0801 123.83 26.0412C123.849 26.0357 123.867 26.0323 123.886 26.0277L123.914 26.0209L123.955 26.0146L124.124 25.9884C124.241 25.9731 124.357 25.9558 124.479 25.9427C124.962 25.8877 125.468 25.8492 125.976 25.8243C126.484 25.7985 126.997 25.7858 127.512 25.7837C127.87 25.7824 128.229 25.7862 128.589 25.798V25.8061C128.473 26.5495 128.221 27.2269 127.833 27.7707ZM128.236 16.1448C128.182 16.13 128.129 16.1156 128.075 16.1012C127.208 15.8746 126.298 15.7537 125.36 15.7537C122.877 15.7537 120.591 16.5994 118.775 18.0185L120.67 20.6945L120.67 20.6941C121.769 19.6132 123.279 18.9505 124.941 18.9615C125.666 18.9666 126.36 19.099 127.002 19.3375C127.004 19.3383 127.006 19.3392 127.007 19.3396C127.04 19.3514 127.071 19.365 127.103 19.3772C127.975 19.7418 128.589 20.6035 128.589 21.6091V22.6325C128.212 22.6485 127.835 22.66 127.458 22.6714L125.852 22.7187C125.313 22.7352 124.773 22.7509 124.212 22.7842C124.073 22.7906 123.928 22.802 123.785 22.8113L123.564 22.8308L123.507 22.8359L123.438 22.8434C123.392 22.8481 123.345 22.8528 123.3 22.8591C123.118 22.8828 122.942 22.9145 122.767 22.9496C122.594 22.9877 122.422 23.0274 122.253 23.0761C121.577 23.2693 120.915 23.542 120.279 23.9742C119.965 24.1916 119.656 24.4466 119.378 24.757C119.099 25.0652 118.849 25.4234 118.657 25.8243C118.271 26.629 118.131 27.5504 118.268 28.4321C118.282 28.542 118.306 28.6491 118.327 28.7564C118.351 28.863 118.38 28.9683 118.41 29.0723C118.474 29.2791 118.547 29.4821 118.638 29.6745C118.815 30.0631 119.044 30.4196 119.31 30.7376C119.577 31.0552 119.879 31.3351 120.205 31.5736C120.53 31.8108 120.879 32.0045 121.236 32.1589C121.951 32.4675 122.693 32.6122 123.4 32.6502C123.488 32.654 123.576 32.6595 123.664 32.6604L123.926 32.66C124.085 32.6566 124.24 32.6494 124.397 32.6384C124.711 32.6164 125.025 32.5788 125.337 32.5254C125.962 32.4202 126.584 32.2485 127.189 32.0007C127.491 31.8755 127.788 31.7326 128.077 31.5681C128.365 31.4032 128.645 31.2184 128.912 31.0137C129.059 30.8999 129.202 30.7798 129.341 30.6547V32.2747H132.614V21.9559C132.613 19.1945 130.762 16.8667 128.236 16.1448Z" fill="white"/>
<path d="M87.1719 20.9708H79.115V24.1951H83.9515V28.2602C82.8483 28.9947 81.5322 29.4214 80.1186 29.4214C76.2261 29.4214 73.0711 26.1877 73.0711 22.1988C73.0711 18.2095 76.2261 14.9758 80.1186 14.9758C81.8439 14.9758 83.424 15.6113 84.6488 16.6664L87.1686 14.144C85.2536 12.6491 82.7972 11.7514 80.119 11.7514C74.0037 11.7514 69.046 16.4321 69.046 22.2059C69.046 27.8893 73.8495 32.5138 79.8322 32.6572C79.9277 32.6597 80.0231 32.6605 80.119 32.6605C80.2145 32.6605 80.3099 32.6597 80.4049 32.6572C81.6251 32.6373 82.8119 32.4901 83.9515 32.2296C85.0754 31.9725 86.1536 31.6059 87.1719 31.1408V20.9708Z" fill="white"/>
<path d="M155.997 32.6606H156.024C155.932 32.6598 155.842 32.6576 155.752 32.6525C155.833 32.6576 155.915 32.6606 155.997 32.6606Z" fill="#5C6284"/>
<path d="M93.7134 22.5975C94.2869 20.495 95.9544 18.974 97.9226 18.974C99.8913 18.974 101.559 20.495 102.132 22.5975H93.7134ZM105.566 24.2049C105.566 23.6552 105.515 23.1181 105.42 22.5975C104.705 18.6966 101.44 15.7496 97.5205 15.7496C93.0773 15.7496 89.475 19.5352 89.475 24.2049C89.475 28.8751 93.0773 32.6606 97.5205 32.6606C100.497 32.6606 102.398 31.9226 104.904 29.1546L101.903 27.6407C101.233 28.3055 100.445 28.8531 99.5242 29.1596C98.965 29.3457 98.644 29.4299 97.703 29.4299C95.8341 29.3216 94.27 27.8407 93.7159 25.822H105.418C105.515 25.2984 105.566 24.758 105.566 24.2049Z" fill="white"/>
<path d="M158.4 22.5975C158.973 20.495 160.641 18.974 162.609 18.974C164.578 18.974 166.245 20.495 166.819 22.5975H158.4ZM170.252 24.2049C170.252 23.6552 170.202 23.1181 170.106 22.5975C169.392 18.6966 166.127 15.7496 162.207 15.7496C157.764 15.7496 154.161 19.5352 154.161 24.2049C154.161 28.8751 157.764 32.6606 162.207 32.6606C165.184 32.6606 167.084 31.9226 169.591 29.1546L166.589 27.6407C165.919 28.3055 165.131 28.8531 164.211 29.1596C163.651 29.3457 163.33 29.4299 162.389 29.4299C160.52 29.3216 158.956 27.8407 158.402 25.822H170.105C170.201 25.2984 170.252 24.758 170.252 24.2049Z" fill="white"/>
<path d="M25.0973 0.846617L3.75135 11.5507C1.75822 12.5499 0.5 14.5899 0.5 16.8213V28.155C0.5 30.3865 1.75822 32.4264 3.75128 33.4256L15.0841 39.1086C16.0914 39.6131 17.037 40.2334 17.9016 40.9557L27.4921 48.9657C27.8346 49.2511 28.6751 49.953 28.6751 49.953L39.4478 40.9561C40.3132 40.2334 41.2584 39.6131 42.2657 39.1086L53.5984 33.4256C55.5916 32.4264 56.8497 30.3865 56.8497 28.155V16.8213C56.8497 14.5899 55.5916 12.5499 53.5984 11.5507L32.2516 0.846617C31.126 0.28207 29.9003 0 28.6747 0C27.449 0 26.2233 0.28207 25.0973 0.846617ZM19.2658 8.27808L27.4663 4.16441C28.227 3.78254 29.1232 3.78254 29.8839 4.16441L38.0553 8.26455L28.6383 12.9905L19.2658 8.27808ZM33.125 15.2465L42.5483 10.5172L50.1824 14.3378C51.1323 14.8131 51.1332 16.1705 50.1832 16.6471L43.0395 20.2317L33.125 15.2465ZM25.0065 25.6166L7.15893 16.6399C6.21535 16.1654 6.21704 14.816 7.16103 14.3429L14.7757 10.5298L38.5515 22.4848L32.3555 25.6161C31.2004 26.2001 29.94 26.4919 28.6805 26.4919C27.4211 26.4919 26.1617 26.2001 25.0065 25.6166ZM20.4796 37.8612C19.3786 36.9409 18.1689 36.1485 16.8862 35.5053L6.27874 30.189C5.21311 29.6549 4.53984 28.5648 4.53774 27.3723L4.52504 19.7852L23.7939 29.5065C26.8682 31.0572 30.4946 31.0585 33.5693 29.5095L43.0382 24.7412L43.0733 24.7581L43.0969 24.7108L52.8251 19.8283V27.3532C52.8251 28.5474 52.1519 29.6393 51.0858 30.1742L40.4635 35.5053C39.1804 36.1485 37.9716 36.941 36.8697 37.8612L28.6751 44.7053L20.4796 37.8612Z" fill="url(#paint0_linear_50_6446)"/>
</g>
<defs>
<linearGradient id="paint0_linear_50_6446" x1="11.976" y1="33.0624" x2="52.0109" y2="11.265" gradientUnits="userSpaceOnUse">
<stop stop-color="#CBACF8"/>
<stop offset="1" stop-color="#648BCE"/>
</linearGradient>
<clipPath id="clip0_50_6446">
<rect width="188" height="50" fill="white" transform="translate(0.5)"/>
</clipPath>
</defs>
</svg>
