<svg width="218" height="58" viewBox="0 0 218 58" fill="none" xmlns="http://www.w3.org/2000/svg">
<g clip-path="url(#clip0_48_1644)">
<path d="M208.641 34.1456C206.063 34.1456 203.973 31.6341 203.973 28.5354C203.973 25.4372 206.063 22.9252 208.641 22.9252C211.219 22.9252 213.31 25.4372 213.31 28.5354C213.31 31.6341 211.219 34.1456 208.641 34.1456ZM213.31 9.83447V20.9116C211.861 19.8246 210.089 19.1854 208.175 19.1854C203.276 19.1854 199.306 23.3716 199.306 28.5359C199.306 33.7002 203.276 37.8863 208.175 37.8863C210.493 37.8863 212.602 36.9484 214.182 35.4136V37.8854H217.977V9.83447H213.31Z" fill="#5C6284"/>
<path d="M166.611 34.1462C164.028 34.1462 161.935 31.4291 161.935 28.0783V28.0774C161.935 24.7261 164.028 22.0095 166.611 22.0095C169.193 22.0095 171.287 24.7266 171.287 28.0779C171.287 31.4291 169.193 34.1462 166.611 34.1462ZM167.086 18.2693C165.165 18.2693 163.387 18.9452 161.935 20.0931V9.39856H157.267V37.4327H161.062V35.2764C162.644 36.8956 164.76 37.8864 167.086 37.8864C171.984 37.8864 175.955 33.4948 175.955 28.0779C175.955 22.6609 171.984 18.2693 167.086 18.2693Z" fill="#5C6284"/>
<path d="M132.976 33.0454C132.709 33.1519 132.418 33.2112 132.114 33.2112C130.824 33.2112 129.779 32.1644 129.779 30.8733V20.6448H134.447V16.9051H129.779V11.7202L125.112 14.0782V16.9051H121.832V20.6448H125.112V30.8733C125.112 34.7465 128.246 37.8865 132.114 37.8865C132.987 37.8865 133.823 37.726 134.594 37.4332L132.976 33.0454Z" fill="#5C6284"/>
<path d="M147.652 32.2141C147.149 32.9308 146.439 33.461 145.58 33.7838C145.153 33.9457 144.691 34.0536 144.214 34.1125C143.976 34.1419 143.734 34.1556 143.491 34.16C143.37 34.162 143.246 34.161 143.127 34.1566L142.975 34.1453C142.925 34.1409 142.877 34.133 142.827 34.1277C142.438 34.0693 142.101 33.9217 141.85 33.7205C141.598 33.5199 141.428 33.2736 141.327 33.0313C141.299 32.972 141.281 32.9101 141.259 32.8528C141.242 32.7929 141.225 32.7355 141.213 32.6791L141.203 32.6374C141.201 32.6232 141.2 32.6095 141.197 32.5957C141.189 32.5692 141.188 32.5413 141.183 32.5153C141.178 32.4623 141.171 32.4122 141.17 32.3642C141.161 32.1807 141.182 32.0008 141.223 31.8212C141.229 31.7981 141.236 31.7741 141.241 31.7491C141.251 31.725 141.256 31.6995 141.267 31.6735C141.277 31.6476 141.283 31.6201 141.297 31.5926L141.314 31.5499L141.335 31.5068C141.362 31.4479 141.398 31.3866 141.435 31.3213C141.477 31.2581 141.52 31.1918 141.575 31.1271C141.68 30.9947 141.809 30.8602 141.962 30.7405C142.037 30.6788 142.118 30.6208 142.201 30.5654C142.286 30.5129 142.372 30.459 142.463 30.4154C142.642 30.3236 142.832 30.253 143.01 30.2079C143.032 30.2015 143.053 30.1976 143.075 30.1922L143.107 30.1843L143.155 30.1769L143.351 30.1466C143.487 30.1289 143.621 30.1087 143.763 30.0936C144.322 30.0298 144.909 29.9851 145.498 29.9562C146.088 29.9263 146.683 29.9116 147.28 29.9091C147.695 29.9076 148.112 29.912 148.528 29.9258V29.9351C148.394 30.7974 148.102 31.5833 147.652 32.2141ZM148.12 18.728C148.057 18.7108 147.995 18.6942 147.932 18.6775C146.927 18.4145 145.872 18.2743 144.784 18.2743C141.905 18.2743 139.255 19.2553 137.148 20.9016L139.346 24.0056L139.346 24.0051C140.621 22.7514 142.371 21.9827 144.298 21.9954C145.139 22.0013 145.943 22.1549 146.688 22.4315C146.69 22.4325 146.693 22.4335 146.695 22.434C146.733 22.4477 146.769 22.4634 146.806 22.4776C147.817 22.9005 148.528 23.9001 148.528 25.0666V26.2537C148.091 26.2723 147.654 26.2856 147.217 26.2989L145.355 26.3538C144.73 26.3729 144.104 26.3911 143.453 26.4298C143.292 26.4371 143.124 26.4504 142.958 26.4612L142.701 26.4838L142.636 26.4897L142.555 26.4984C142.502 26.5039 142.448 26.5093 142.396 26.5167C142.185 26.5441 141.98 26.5809 141.778 26.6216C141.577 26.6658 141.377 26.7118 141.182 26.7683C140.398 26.9924 139.63 27.3088 138.893 27.8102C138.528 28.0622 138.17 28.3581 137.847 28.7181C137.525 29.0757 137.234 29.4912 137.012 29.9562C136.565 30.8896 136.402 31.9585 136.56 32.9813C136.577 33.1088 136.604 33.233 136.629 33.3575C136.657 33.4811 136.69 33.6032 136.726 33.724C136.799 33.9638 136.885 34.1993 136.99 34.4225C137.195 34.8733 137.461 35.2867 137.769 35.6556C138.079 36.024 138.429 36.3488 138.806 36.6254C139.184 36.9006 139.589 37.1252 140.002 37.3043C140.831 37.6624 141.691 37.8302 142.511 37.8743C142.613 37.8787 142.716 37.8851 142.818 37.8861L143.121 37.8856C143.306 37.8817 143.486 37.8733 143.668 37.8606C144.032 37.835 144.395 37.7914 144.757 37.7296C145.482 37.6074 146.204 37.4083 146.905 37.1208C147.255 36.9756 147.6 36.8099 147.935 36.619C148.269 36.4277 148.594 36.2134 148.903 35.976C149.074 35.844 149.24 35.7047 149.401 35.5595V37.4387H153.196V25.4689C153.194 22.2657 151.049 19.5654 148.12 18.728Z" fill="#5C6284"/>
<path d="M100.503 24.326H91.16V28.0663H96.7682V32.7818C95.489 33.6338 93.9629 34.1287 92.3237 34.1287C87.8101 34.1287 84.1517 30.3777 84.1517 25.7505C84.1517 21.1229 87.8101 17.3718 92.3237 17.3718C94.3243 17.3718 96.1566 18.1091 97.5768 19.3329L100.499 16.407C98.2782 14.6729 95.4298 13.6316 92.3242 13.6316C85.233 13.6316 79.4843 19.0612 79.4843 25.7588C79.4843 32.3515 85.0542 37.716 91.9917 37.8823C92.1023 37.8852 92.213 37.8862 92.3242 37.8862C92.4349 37.8862 92.5455 37.8852 92.6558 37.8823C94.0707 37.8592 95.4468 37.6885 96.7682 37.3863C98.0715 37.0881 99.3218 36.6628 100.503 36.1233V24.326Z" fill="#5C6284"/>
<path d="M180.311 37.8863H180.341C180.235 37.8854 180.131 37.8828 180.026 37.877C180.12 37.8828 180.215 37.8863 180.311 37.8863Z" fill="#5C6284"/>
<path d="M108.088 26.2132C108.753 23.7743 110.687 22.0099 112.969 22.0099C115.252 22.0099 117.185 23.7743 117.85 26.2132H108.088ZM121.831 28.0778C121.831 27.4401 121.773 26.8171 121.662 26.2132C120.834 21.6881 117.048 18.2697 112.503 18.2697C107.35 18.2697 103.173 22.6609 103.173 28.0778C103.173 33.4952 107.35 37.8864 112.503 37.8864C115.954 37.8864 118.158 37.0303 121.064 33.8194L117.584 32.0633C116.807 32.8344 115.894 33.4697 114.826 33.8253C114.178 34.0411 113.805 34.1387 112.714 34.1387C110.547 34.0132 108.733 32.2953 108.091 29.9536H121.661C121.772 29.3462 121.831 28.7194 121.831 28.0778Z" fill="#5C6284"/>
<path d="M183.096 26.2132C183.762 23.7743 185.695 22.0099 187.977 22.0099C190.26 22.0099 192.194 23.7743 192.859 26.2132H183.096ZM196.84 28.0778C196.84 27.4401 196.782 26.8171 196.671 26.2132C195.842 21.6881 192.056 18.2697 187.511 18.2697C182.359 18.2697 178.182 22.6609 178.182 28.0778C178.182 33.4952 182.359 37.8864 187.511 37.8864C190.963 37.8864 193.167 37.0303 196.073 33.8194L192.593 32.0633C191.816 32.8344 190.902 33.4697 189.834 33.8253C189.186 34.0411 188.814 34.1387 187.723 34.1387C185.556 34.0132 183.742 32.2953 183.099 29.9536H196.669C196.781 29.3462 196.84 28.7194 196.84 28.0778Z" fill="#5C6284"/>
<path d="M28.5223 0.982076L3.77018 13.3988C1.459 14.5578 0 16.9242 0 19.5127V32.6598C0 35.2483 1.459 37.6146 3.7701 38.7737L16.9113 45.366C18.0793 45.9511 19.1758 46.6708 20.1784 47.5086L31.2993 56.8002C31.6965 57.1313 32.6711 57.9455 32.6711 57.9455L45.1628 47.5091C46.1663 46.6708 47.2624 45.9511 48.4305 45.366L61.5716 38.7737C63.8828 37.6146 65.3417 35.2483 65.3417 32.6598V19.5127C65.3417 16.9242 63.8828 14.5578 61.5716 13.3988L36.8183 0.982076C35.5132 0.327202 34.0918 0 32.6706 0C31.2494 0 29.8281 0.327202 28.5223 0.982076ZM21.7603 9.60257L31.2694 4.83072C32.1515 4.38775 33.1908 4.38775 34.0728 4.83072L43.5481 9.58687L32.6285 15.069L21.7603 9.60257ZM37.8311 17.686L48.7581 12.1999L57.6105 16.6319C58.7119 17.1832 58.7129 18.7578 57.6114 19.3106L49.3277 23.4688L37.8311 17.686ZM28.4171 29.7152L7.72153 19.3023C6.62737 18.7519 6.62933 17.1866 7.72395 16.6378L16.5537 12.2146L44.1235 26.0823L36.9389 29.7147C35.5993 30.3922 34.1379 30.7306 32.6774 30.7306C31.217 30.7306 29.7566 30.3922 28.4171 29.7152ZM23.1679 43.9189C21.8911 42.8515 20.4884 41.9323 19.001 41.1862L6.70087 35.0193C5.4652 34.3997 4.68449 33.1352 4.68206 31.7519L4.66733 22.9508L27.011 34.2275C30.5759 36.0263 34.7809 36.0278 38.3464 34.231L49.3262 28.6998L49.3669 28.7194L49.3943 28.6645L60.6748 23.0009V31.7298C60.6748 33.115 59.8942 34.3816 58.6581 35.0021L46.3407 41.1862C44.8528 41.9323 43.4511 42.8516 42.1734 43.9189L32.6711 51.8581L23.1679 43.9189Z" fill="url(#paint0_linear_48_1644)"/>
</g>
<defs>
<linearGradient id="paint0_linear_48_1644" x1="13.3072" y1="38.3524" x2="59.7385" y2="13.0817" gradientUnits="userSpaceOnUse">
<stop stop-color="#CBACF8"/>
<stop offset="1" stop-color="#648BCE"/>
</linearGradient>
<clipPath id="clip0_48_1644">
<rect width="218" height="58" fill="white"/>
</clipPath>
</defs>
</svg>
