<svg width="659" height="514" viewBox="0 0 659 514" fill="none" xmlns="http://www.w3.org/2000/svg">
<g filter="url(#filter0_d_645_2429)">
<rect x="91" y="21" width="536" height="411" rx="35" fill="white" fill-opacity="0.9" shape-rendering="crispEdges"/>
</g>
<path d="M119 80.5H575.5" stroke="black"/>
<rect x="121" y="88" width="140" height="323" fill="url(#paint0_linear_645_2429)"/>
<rect x="273" y="101" width="77" height="18" fill="#5572DA"/>
<rect x="353" y="101" width="77" height="18" fill="#E2E3EB"/>
<rect x="274" y="127" width="302" height="284" fill="#D9D9D9"/>
<g filter="url(#filter1_d_645_2429)">
<rect x="100" y="163" width="397" height="97" rx="35" fill="white" fill-opacity="0.9" shape-rendering="crispEdges"/>
</g>
<g filter="url(#filter2_d_645_2429)">
<rect x="26" y="272" width="397" height="97" rx="35" fill="white" fill-opacity="0.9" shape-rendering="crispEdges"/>
</g>
<g filter="url(#filter3_d_645_2429)">
<rect x="100" y="380" width="397" height="97" rx="35" fill="white" fill-opacity="0.9" shape-rendering="crispEdges"/>
</g>
<path d="M145 403.375H179V407.562H145V403.375ZM140.75 409.656H183.25V413.844H140.75V409.656ZM189.625 453.625H134.375V415.938H189.625V453.625Z" fill="#2E3142"/>
<path d="M149.836 327.5V312.012H156.541C157.927 312.012 159.122 312.24 160.125 312.698C161.128 313.14 161.903 313.782 162.448 314.623C162.994 315.463 163.267 316.466 163.267 317.632C163.267 318.782 162.994 319.778 162.448 320.619C161.903 321.445 161.128 322.079 160.125 322.522C159.122 322.964 157.927 323.185 156.541 323.185H151.828L153.421 321.614V327.5H149.836ZM159.683 327.5L155.811 321.88H159.638L163.555 327.5H159.683ZM153.421 322.013L151.828 320.331H156.342C157.448 320.331 158.274 320.095 158.82 319.623C159.366 319.136 159.638 318.472 159.638 317.632C159.638 316.776 159.366 316.112 158.82 315.64C158.274 315.168 157.448 314.932 156.342 314.932H151.828L153.421 313.229V322.013ZM171.771 327.677C170.414 327.677 169.219 327.411 168.187 326.88C167.169 326.349 166.38 325.627 165.819 324.712C165.259 323.783 164.979 322.728 164.979 321.548C164.979 320.353 165.251 319.299 165.797 318.384C166.358 317.455 167.117 316.732 168.076 316.216C169.035 315.685 170.119 315.419 171.329 315.419C172.494 315.419 173.541 315.67 174.471 316.171C175.415 316.658 176.16 317.366 176.706 318.295C177.251 319.21 177.524 320.309 177.524 321.592C177.524 321.725 177.517 321.88 177.502 322.057C177.487 322.219 177.473 322.374 177.458 322.522H167.789V320.508H175.643L174.316 321.106C174.316 320.486 174.191 319.948 173.94 319.49C173.689 319.033 173.342 318.679 172.9 318.428C172.457 318.163 171.941 318.03 171.351 318.03C170.761 318.03 170.237 318.163 169.78 318.428C169.337 318.679 168.991 319.04 168.74 319.512C168.489 319.97 168.364 320.515 168.364 321.15V321.681C168.364 322.33 168.504 322.905 168.784 323.407C169.079 323.893 169.485 324.27 170.001 324.535C170.532 324.786 171.152 324.911 171.86 324.911C172.494 324.911 173.047 324.815 173.519 324.624C174.006 324.432 174.449 324.144 174.847 323.761L176.683 325.752C176.138 326.372 175.452 326.851 174.626 327.19C173.8 327.515 172.848 327.677 171.771 327.677ZM186.858 327.677C185.855 327.677 184.978 327.456 184.225 327.013C183.473 326.571 182.883 325.9 182.455 325C182.042 324.085 181.836 322.935 181.836 321.548C181.836 320.147 182.035 318.996 182.433 318.096C182.831 317.197 183.407 316.525 184.159 316.083C184.911 315.64 185.811 315.419 186.858 315.419C187.979 315.419 188.982 315.677 189.868 316.193C190.767 316.695 191.475 317.403 191.992 318.318C192.523 319.232 192.788 320.309 192.788 321.548C192.788 322.802 192.523 323.886 191.992 324.801C191.475 325.715 190.767 326.423 189.868 326.925C188.982 327.426 187.979 327.677 186.858 327.677ZM179.822 331.792V315.596H183.119V318.03L183.053 321.57L183.274 325.088V331.792H179.822ZM186.261 324.845C186.836 324.845 187.345 324.712 187.788 324.447C188.245 324.181 188.606 323.805 188.872 323.318C189.152 322.817 189.292 322.227 189.292 321.548C189.292 320.855 189.152 320.265 188.872 319.778C188.606 319.291 188.245 318.915 187.788 318.65C187.345 318.384 186.836 318.251 186.261 318.251C185.686 318.251 185.169 318.384 184.712 318.65C184.255 318.915 183.893 319.291 183.628 319.778C183.362 320.265 183.23 320.855 183.23 321.548C183.23 322.227 183.362 322.817 183.628 323.318C183.893 323.805 184.255 324.181 184.712 324.447C185.169 324.712 185.686 324.845 186.261 324.845ZM200.763 327.677C199.495 327.677 198.366 327.411 197.378 326.88C196.404 326.349 195.63 325.627 195.055 324.712C194.494 323.783 194.214 322.728 194.214 321.548C194.214 320.353 194.494 319.299 195.055 318.384C195.63 317.455 196.404 316.732 197.378 316.216C198.366 315.685 199.495 315.419 200.763 315.419C202.017 315.419 203.138 315.685 204.126 316.216C205.115 316.732 205.889 317.447 206.45 318.362C207.01 319.276 207.29 320.338 207.29 321.548C207.29 322.728 207.01 323.783 206.45 324.712C205.889 325.627 205.115 326.349 204.126 326.88C203.138 327.411 202.017 327.677 200.763 327.677ZM200.763 324.845C201.338 324.845 201.855 324.712 202.312 324.447C202.769 324.181 203.131 323.805 203.396 323.318C203.662 322.817 203.794 322.227 203.794 321.548C203.794 320.855 203.662 320.265 203.396 319.778C203.131 319.291 202.769 318.915 202.312 318.65C201.855 318.384 201.338 318.251 200.763 318.251C200.188 318.251 199.672 318.384 199.214 318.65C198.757 318.915 198.388 319.291 198.108 319.778C197.842 320.265 197.71 320.855 197.71 321.548C197.71 322.227 197.842 322.817 198.108 323.318C198.388 323.805 198.757 324.181 199.214 324.447C199.672 324.712 200.188 324.845 200.763 324.845ZM209.598 327.5V315.596H212.894V318.959L212.43 317.986C212.784 317.145 213.352 316.511 214.133 316.083C214.915 315.64 215.867 315.419 216.988 315.419V318.605C216.84 318.59 216.707 318.583 216.589 318.583C216.471 318.568 216.346 318.561 216.213 318.561C215.269 318.561 214.502 318.834 213.912 319.38C213.337 319.911 213.049 320.744 213.049 321.88V327.5H209.598ZM224.318 327.677C222.917 327.677 221.826 327.323 221.044 326.615C220.262 325.892 219.871 324.823 219.871 323.407V312.963H223.323V323.362C223.323 323.864 223.456 324.255 223.721 324.535C223.987 324.801 224.348 324.933 224.805 324.933C225.351 324.933 225.816 324.786 226.199 324.491L227.128 326.925C226.774 327.175 226.347 327.367 225.845 327.5C225.358 327.618 224.849 327.677 224.318 327.677ZM218.035 318.517V315.862H226.288V318.517H218.035ZM234.606 327.677C233.249 327.677 232.055 327.411 231.022 326.88C230.004 326.349 229.215 325.627 228.654 324.712C228.094 323.783 227.814 322.728 227.814 321.548C227.814 320.353 228.087 319.299 228.632 318.384C229.193 317.455 229.953 316.732 230.911 316.216C231.87 315.685 232.954 315.419 234.164 315.419C235.329 315.419 236.377 315.67 237.306 316.171C238.25 316.658 238.995 317.366 239.541 318.295C240.086 319.21 240.359 320.309 240.359 321.592C240.359 321.725 240.352 321.88 240.337 322.057C240.322 322.219 240.308 322.374 240.293 322.522H230.624V320.508H238.479L237.151 321.106C237.151 320.486 237.026 319.948 236.775 319.49C236.524 319.033 236.177 318.679 235.735 318.428C235.292 318.163 234.776 318.03 234.186 318.03C233.596 318.03 233.072 318.163 232.615 318.428C232.173 318.679 231.826 319.04 231.575 319.512C231.324 319.97 231.199 320.515 231.199 321.15V321.681C231.199 322.33 231.339 322.905 231.619 323.407C231.914 323.893 232.32 324.27 232.836 324.535C233.367 324.786 233.987 324.911 234.695 324.911C235.329 324.911 235.882 324.815 236.354 324.624C236.841 324.432 237.284 324.144 237.682 323.761L239.518 325.752C238.973 326.372 238.287 326.851 237.461 327.19C236.635 327.515 235.683 327.677 234.606 327.677ZM252.375 327.5V314.932H247.419V312.012H260.916V314.932H255.96V327.5H252.375ZM267.299 327.677C265.942 327.677 264.747 327.411 263.714 326.88C262.697 326.349 261.907 325.627 261.347 324.712C260.786 323.783 260.506 322.728 260.506 321.548C260.506 320.353 260.779 319.299 261.325 318.384C261.885 317.455 262.645 316.732 263.604 316.216C264.563 315.685 265.647 315.419 266.856 315.419C268.022 315.419 269.069 315.67 269.998 316.171C270.942 316.658 271.687 317.366 272.233 318.295C272.779 319.21 273.052 320.309 273.052 321.592C273.052 321.725 273.044 321.88 273.03 322.057C273.015 322.219 273 322.374 272.985 322.522H263.316V320.508H271.171L269.843 321.106C269.843 320.486 269.718 319.948 269.467 319.49C269.216 319.033 268.87 318.679 268.427 318.428C267.985 318.163 267.468 318.03 266.878 318.03C266.288 318.03 265.765 318.163 265.307 318.428C264.865 318.679 264.518 319.04 264.268 319.512C264.017 319.97 263.891 320.515 263.891 321.15V321.681C263.891 322.33 264.032 322.905 264.312 323.407C264.607 323.893 265.012 324.27 265.529 324.535C266.06 324.786 266.679 324.911 267.387 324.911C268.022 324.911 268.575 324.815 269.047 324.624C269.534 324.432 269.976 324.144 270.374 323.761L272.211 325.752C271.665 326.372 270.979 326.851 270.153 327.19C269.327 327.515 268.376 327.677 267.299 327.677ZM290.595 315.419C291.539 315.419 292.372 315.611 293.095 315.994C293.832 316.363 294.408 316.938 294.821 317.72C295.249 318.487 295.462 319.476 295.462 320.685V327.5H292.011V321.216C292.011 320.257 291.812 319.549 291.413 319.092C291.015 318.635 290.455 318.406 289.732 318.406C289.23 318.406 288.78 318.524 288.382 318.76C287.984 318.981 287.674 319.321 287.453 319.778C287.231 320.235 287.121 320.818 287.121 321.526V327.5H283.669V321.216C283.669 320.257 283.47 319.549 283.072 319.092C282.688 318.635 282.135 318.406 281.412 318.406C280.911 318.406 280.461 318.524 280.063 318.76C279.664 318.981 279.355 319.321 279.133 319.778C278.912 320.235 278.801 320.818 278.801 321.526V327.5H275.35V315.596H278.646V318.849L278.027 317.897C278.44 317.086 279.023 316.474 279.775 316.061C280.542 315.633 281.412 315.419 282.386 315.419C283.477 315.419 284.429 315.699 285.24 316.26C286.066 316.806 286.612 317.646 286.877 318.782L285.661 318.45C286.059 317.521 286.693 316.784 287.563 316.238C288.448 315.692 289.459 315.419 290.595 315.419ZM305.592 327.677C304.589 327.677 303.712 327.456 302.959 327.013C302.207 326.571 301.617 325.9 301.189 325C300.776 324.085 300.57 322.935 300.57 321.548C300.57 320.147 300.769 318.996 301.167 318.096C301.565 317.197 302.141 316.525 302.893 316.083C303.645 315.64 304.545 315.419 305.592 315.419C306.714 315.419 307.717 315.677 308.602 316.193C309.501 316.695 310.209 317.403 310.726 318.318C311.257 319.232 311.522 320.309 311.522 321.548C311.522 322.802 311.257 323.886 310.726 324.801C310.209 325.715 309.501 326.423 308.602 326.925C307.717 327.426 306.714 327.677 305.592 327.677ZM298.556 331.792V315.596H301.853V318.03L301.787 321.57L302.008 325.088V331.792H298.556ZM304.995 324.845C305.57 324.845 306.079 324.712 306.522 324.447C306.979 324.181 307.34 323.805 307.606 323.318C307.886 322.817 308.026 322.227 308.026 321.548C308.026 320.855 307.886 320.265 307.606 319.778C307.34 319.291 306.979 318.915 306.522 318.65C306.079 318.384 305.57 318.251 304.995 318.251C304.42 318.251 303.903 318.384 303.446 318.65C302.989 318.915 302.628 319.291 302.362 319.778C302.097 320.265 301.964 320.855 301.964 321.548C301.964 322.227 302.097 322.817 302.362 323.318C302.628 323.805 302.989 324.181 303.446 324.447C303.903 324.712 304.42 324.845 304.995 324.845ZM311.51 329.713L318.811 308.87H321.887L314.585 329.713H311.51ZM328.057 327.5L321.375 312.012H325.247L331.089 325.73H328.81L334.739 312.012H338.302L331.598 327.5H328.057ZM344.373 327.677C343.016 327.677 341.821 327.411 340.789 326.88C339.771 326.349 338.982 325.627 338.421 324.712C337.861 323.783 337.581 322.728 337.581 321.548C337.581 320.353 337.854 319.299 338.399 318.384C338.96 317.455 339.719 316.732 340.678 316.216C341.637 315.685 342.721 315.419 343.931 315.419C345.096 315.419 346.143 315.67 347.073 316.171C348.017 316.658 348.762 317.366 349.308 318.295C349.853 319.21 350.126 320.309 350.126 321.592C350.126 321.725 350.119 321.88 350.104 322.057C350.089 322.219 350.075 322.374 350.06 322.522H340.391V320.508H348.245L346.918 321.106C346.918 320.486 346.793 319.948 346.542 319.49C346.291 319.033 345.944 318.679 345.502 318.428C345.059 318.163 344.543 318.03 343.953 318.03C343.363 318.03 342.839 318.163 342.382 318.428C341.939 318.679 341.593 319.04 341.342 319.512C341.091 319.97 340.966 320.515 340.966 321.15V321.681C340.966 322.33 341.106 322.905 341.386 323.407C341.681 323.893 342.087 324.27 342.603 324.535C343.134 324.786 343.754 324.911 344.462 324.911C345.096 324.911 345.649 324.815 346.121 324.624C346.608 324.432 347.051 324.144 347.449 323.761L349.285 325.752C348.74 326.372 348.054 326.851 347.228 327.19C346.402 327.515 345.45 327.677 344.373 327.677ZM352.424 327.5V315.596H355.721V318.959L355.256 317.986C355.61 317.145 356.178 316.511 356.96 316.083C357.742 315.64 358.693 315.419 359.814 315.419V318.605C359.667 318.59 359.534 318.583 359.416 318.583C359.298 318.568 359.173 318.561 359.04 318.561C358.096 318.561 357.329 318.834 356.739 319.38C356.164 319.911 355.876 320.744 355.876 321.88V327.5H352.424ZM368.391 327.5V325.177L368.169 324.668V320.508C368.169 319.771 367.941 319.195 367.483 318.782C367.041 318.369 366.355 318.163 365.426 318.163C364.791 318.163 364.164 318.266 363.545 318.472C362.94 318.664 362.424 318.93 361.996 319.269L360.757 316.857C361.406 316.4 362.188 316.046 363.102 315.795C364.017 315.544 364.946 315.419 365.89 315.419C367.705 315.419 369.113 315.847 370.116 316.702C371.119 317.558 371.621 318.893 371.621 320.707V327.5H368.391ZM364.762 327.677C363.833 327.677 363.036 327.522 362.372 327.212C361.708 326.888 361.2 326.453 360.845 325.907C360.491 325.361 360.314 324.749 360.314 324.07C360.314 323.362 360.484 322.743 360.823 322.212C361.177 321.681 361.731 321.268 362.483 320.973C363.235 320.663 364.216 320.508 365.426 320.508H368.59V322.522H365.802C364.99 322.522 364.43 322.654 364.12 322.92C363.825 323.185 363.678 323.517 363.678 323.916C363.678 324.358 363.847 324.712 364.187 324.978C364.541 325.228 365.02 325.354 365.625 325.354C366.2 325.354 366.716 325.221 367.174 324.955C367.631 324.675 367.963 324.27 368.169 323.739L368.7 325.332C368.45 326.099 367.992 326.681 367.328 327.08C366.665 327.478 365.809 327.677 364.762 327.677ZM381.98 315.419C382.924 315.419 383.765 315.611 384.503 315.994C385.255 316.363 385.845 316.938 386.273 317.72C386.7 318.487 386.914 319.476 386.914 320.685V327.5H383.463V321.216C383.463 320.257 383.249 319.549 382.821 319.092C382.408 318.635 381.818 318.406 381.051 318.406C380.505 318.406 380.011 318.524 379.568 318.76C379.141 318.981 378.801 319.328 378.551 319.8C378.315 320.272 378.197 320.877 378.197 321.614V327.5H374.745V315.596H378.042V318.893L377.422 317.897C377.85 317.101 378.462 316.489 379.259 316.061C380.055 315.633 380.962 315.419 381.98 315.419ZM395.794 327.677C394.525 327.677 393.397 327.411 392.409 326.88C391.435 326.349 390.661 325.627 390.085 324.712C389.525 323.783 389.245 322.728 389.245 321.548C389.245 320.353 389.525 319.299 390.085 318.384C390.661 317.455 391.435 316.732 392.409 316.216C393.397 315.685 394.525 315.419 395.794 315.419C397.048 315.419 398.169 315.685 399.157 316.216C400.145 316.732 400.92 317.447 401.48 318.362C402.041 319.276 402.321 320.338 402.321 321.548C402.321 322.728 402.041 323.783 401.48 324.712C400.92 325.627 400.145 326.349 399.157 326.88C398.169 327.411 397.048 327.677 395.794 327.677ZM395.794 324.845C396.369 324.845 396.885 324.712 397.343 324.447C397.8 324.181 398.161 323.805 398.427 323.318C398.692 322.817 398.825 322.227 398.825 321.548C398.825 320.855 398.692 320.265 398.427 319.778C398.161 319.291 397.8 318.915 397.343 318.65C396.885 318.384 396.369 318.251 395.794 318.251C395.219 318.251 394.702 318.384 394.245 318.65C393.788 318.915 393.419 319.291 393.139 319.778C392.873 320.265 392.74 320.855 392.74 321.548C392.74 322.227 392.873 322.817 393.139 323.318C393.419 323.805 393.788 324.181 394.245 324.447C394.702 324.712 395.219 324.845 395.794 324.845Z" fill="#5C6284"/>
<path d="M226.836 437.5V422.012H230.421V437.5H226.836ZM241.089 425.419C242.033 425.419 242.873 425.611 243.611 425.994C244.363 426.363 244.953 426.938 245.381 427.72C245.809 428.487 246.023 429.476 246.023 430.685V437.5H242.571V431.216C242.571 430.257 242.357 429.549 241.929 429.092C241.516 428.635 240.926 428.406 240.159 428.406C239.613 428.406 239.119 428.524 238.677 428.76C238.249 428.981 237.91 429.328 237.659 429.8C237.423 430.272 237.305 430.877 237.305 431.614V437.5H233.853V425.596H237.15V428.893L236.531 427.897C236.958 427.101 237.57 426.489 238.367 426.061C239.164 425.633 240.071 425.419 241.089 425.419ZM252.166 437.5L247.165 425.596H250.728L254.887 435.841H253.117L257.432 425.596H260.751L255.728 437.5H252.166ZM267.743 437.677C266.386 437.677 265.191 437.411 264.158 436.88C263.141 436.349 262.351 435.627 261.791 434.712C261.23 433.783 260.95 432.728 260.95 431.548C260.95 430.353 261.223 429.299 261.769 428.384C262.329 427.455 263.089 426.732 264.048 426.216C265.007 425.685 266.091 425.419 267.3 425.419C268.466 425.419 269.513 425.67 270.442 426.171C271.386 426.658 272.131 427.366 272.677 428.295C273.223 429.21 273.496 430.309 273.496 431.592C273.496 431.725 273.488 431.88 273.474 432.057C273.459 432.219 273.444 432.374 273.429 432.522H263.76V430.508H271.615L270.287 431.106C270.287 430.486 270.162 429.948 269.911 429.49C269.661 429.033 269.314 428.679 268.871 428.428C268.429 428.163 267.913 428.03 267.322 428.03C266.732 428.03 266.209 428.163 265.752 428.428C265.309 428.679 264.962 429.04 264.712 429.512C264.461 429.97 264.335 430.515 264.335 431.15V431.681C264.335 432.33 264.476 432.905 264.756 433.407C265.051 433.893 265.457 434.27 265.973 434.535C266.504 434.786 267.123 434.911 267.831 434.911C268.466 434.911 269.019 434.815 269.491 434.624C269.978 434.432 270.42 434.144 270.818 433.761L272.655 435.752C272.109 436.372 271.423 436.851 270.597 437.19C269.771 437.515 268.82 437.677 267.743 437.677ZM283.029 425.419C283.973 425.419 284.814 425.611 285.551 425.994C286.304 426.363 286.894 426.938 287.322 427.72C287.749 428.487 287.963 429.476 287.963 430.685V437.5H284.511V431.216C284.511 430.257 284.298 429.549 283.87 429.092C283.457 428.635 282.867 428.406 282.1 428.406C281.554 428.406 281.06 428.524 280.617 428.76C280.189 428.981 279.85 429.328 279.599 429.8C279.363 430.272 279.245 430.877 279.245 431.614V437.5H275.794V425.596H279.091V428.893L278.471 427.897C278.899 427.101 279.511 426.489 280.307 426.061C281.104 425.633 282.011 425.419 283.029 425.419ZM295.96 437.677C294.558 437.677 293.467 437.323 292.685 436.615C291.903 435.892 291.512 434.823 291.512 433.407V422.963H294.964V433.362C294.964 433.864 295.097 434.255 295.362 434.535C295.628 434.801 295.989 434.933 296.447 434.933C296.992 434.933 297.457 434.786 297.84 434.491L298.77 436.925C298.416 437.175 297.988 437.367 297.486 437.5C297 437.618 296.491 437.677 295.96 437.677ZM289.676 428.517V425.862H297.929V428.517H289.676ZM308.009 437.5V435.177L307.788 434.668V430.508C307.788 429.771 307.559 429.195 307.102 428.782C306.659 428.369 305.973 428.163 305.044 428.163C304.41 428.163 303.783 428.266 303.163 428.472C302.559 428.664 302.042 428.93 301.615 429.269L300.375 426.857C301.025 426.4 301.806 426.046 302.721 425.795C303.635 425.544 304.565 425.419 305.509 425.419C307.323 425.419 308.732 425.847 309.735 426.702C310.738 427.558 311.239 428.893 311.239 430.707V437.5H308.009ZM304.38 437.677C303.451 437.677 302.654 437.522 301.991 437.212C301.327 436.888 300.818 436.453 300.464 435.907C300.11 435.361 299.933 434.749 299.933 434.07C299.933 433.362 300.103 432.743 300.442 432.212C300.796 431.681 301.349 431.268 302.101 430.973C302.854 430.663 303.835 430.508 305.044 430.508H308.208V432.522H305.42C304.609 432.522 304.048 432.654 303.739 432.92C303.444 433.185 303.296 433.517 303.296 433.916C303.296 434.358 303.466 434.712 303.805 434.978C304.159 435.228 304.638 435.354 305.243 435.354C305.819 435.354 306.335 435.221 306.792 434.955C307.249 434.675 307.581 434.27 307.788 433.739L308.319 435.332C308.068 436.099 307.611 436.681 306.947 437.08C306.283 437.478 305.428 437.677 304.38 437.677ZM314.363 437.5V425.596H317.66V428.959L317.196 427.986C317.55 427.145 318.118 426.511 318.899 426.083C319.681 425.64 320.633 425.419 321.754 425.419V428.605C321.606 428.59 321.473 428.583 321.355 428.583C321.237 428.568 321.112 428.561 320.979 428.561C320.035 428.561 319.268 428.834 318.678 429.38C318.103 429.911 317.815 430.744 317.815 431.88V437.5H314.363ZM323.806 437.5V425.596H327.258V437.5H323.806ZM325.532 423.937C324.898 423.937 324.381 423.752 323.983 423.383C323.585 423.015 323.386 422.557 323.386 422.012C323.386 421.466 323.585 421.009 323.983 420.64C324.381 420.271 324.898 420.087 325.532 420.087C326.166 420.087 326.682 420.264 327.081 420.618C327.479 420.957 327.678 421.399 327.678 421.945C327.678 422.521 327.479 423 327.081 423.383C326.697 423.752 326.181 423.937 325.532 423.937ZM336.125 437.677C334.857 437.677 333.728 437.411 332.74 436.88C331.767 436.349 330.992 435.627 330.417 434.712C329.856 433.783 329.576 432.728 329.576 431.548C329.576 430.353 329.856 429.299 330.417 428.384C330.992 427.455 331.767 426.732 332.74 426.216C333.728 425.685 334.857 425.419 336.125 425.419C337.379 425.419 338.5 425.685 339.489 426.216C340.477 426.732 341.251 427.447 341.812 428.362C342.372 429.276 342.653 430.338 342.653 431.548C342.653 432.728 342.372 433.783 341.812 434.712C341.251 435.627 340.477 436.349 339.489 436.88C338.5 437.411 337.379 437.677 336.125 437.677ZM336.125 434.845C336.701 434.845 337.217 434.712 337.674 434.447C338.132 434.181 338.493 433.805 338.758 433.318C339.024 432.817 339.157 432.227 339.157 431.548C339.157 430.855 339.024 430.265 338.758 429.778C338.493 429.291 338.132 428.915 337.674 428.65C337.217 428.384 336.701 428.251 336.125 428.251C335.55 428.251 335.034 428.384 334.577 428.65C334.119 428.915 333.751 429.291 333.47 429.778C333.205 430.265 333.072 430.855 333.072 431.548C333.072 432.227 333.205 432.817 333.47 433.318C333.751 433.805 334.119 434.181 334.577 434.447C335.034 434.712 335.55 434.845 336.125 434.845Z" fill="#5C6284"/>
<path d="M226.836 220V204.512H229.801L238.94 215.663H237.501V204.512H241.042V220H238.099L228.938 208.848H230.377V220H226.836ZM249.485 220.177C248.497 220.177 247.612 219.985 246.83 219.602C246.063 219.218 245.466 218.636 245.038 217.854C244.61 217.057 244.396 216.047 244.396 214.822V208.096H247.848V214.314C247.848 215.302 248.054 216.032 248.467 216.504C248.895 216.961 249.493 217.19 250.26 217.19C250.791 217.19 251.263 217.079 251.676 216.858C252.089 216.622 252.413 216.268 252.649 215.796C252.885 215.309 253.003 214.704 253.003 213.982V208.096H256.455V220H253.18V216.725L253.778 217.677C253.38 218.503 252.789 219.13 252.008 219.557C251.241 219.97 250.4 220.177 249.485 220.177ZM265.561 220.177C264.203 220.177 263.009 219.911 261.976 219.38C260.958 218.849 260.169 218.127 259.609 217.212C259.048 216.283 258.768 215.228 258.768 214.048C258.768 212.853 259.041 211.799 259.586 210.884C260.147 209.955 260.907 209.232 261.865 208.716C262.824 208.185 263.908 207.919 265.118 207.919C266.283 207.919 267.331 208.17 268.26 208.671C269.204 209.158 269.949 209.866 270.495 210.795C271.04 211.71 271.313 212.809 271.313 214.092C271.313 214.225 271.306 214.38 271.291 214.557C271.276 214.719 271.262 214.874 271.247 215.022H261.578V213.008H269.433L268.105 213.606C268.105 212.986 267.98 212.448 267.729 211.99C267.478 211.533 267.131 211.179 266.689 210.928C266.246 210.663 265.73 210.53 265.14 210.53C264.55 210.53 264.026 210.663 263.569 210.928C263.127 211.179 262.78 211.54 262.529 212.012C262.278 212.47 262.153 213.015 262.153 213.65V214.181C262.153 214.83 262.293 215.405 262.573 215.907C262.868 216.393 263.274 216.77 263.79 217.035C264.321 217.286 264.941 217.411 265.649 217.411C266.283 217.411 266.836 217.315 267.308 217.124C267.795 216.932 268.238 216.644 268.636 216.261L270.473 218.252C269.927 218.872 269.241 219.351 268.415 219.69C267.589 220.015 266.637 220.177 265.561 220.177ZM276.626 220L271.625 208.096H275.188L279.347 218.341H277.577L281.892 208.096H285.211L280.188 220H276.626ZM293.532 220V217.677L293.311 217.168V213.008C293.311 212.271 293.082 211.695 292.625 211.282C292.182 210.869 291.496 210.663 290.567 210.663C289.933 210.663 289.306 210.766 288.686 210.972C288.081 211.164 287.565 211.43 287.137 211.769L285.898 209.357C286.547 208.9 287.329 208.546 288.244 208.295C289.158 208.044 290.088 207.919 291.032 207.919C292.846 207.919 294.255 208.347 295.258 209.202C296.261 210.058 296.762 211.393 296.762 213.207V220H293.532ZM289.903 220.177C288.974 220.177 288.177 220.022 287.514 219.712C286.85 219.388 286.341 218.953 285.987 218.407C285.633 217.861 285.456 217.249 285.456 216.57C285.456 215.862 285.625 215.243 285.965 214.712C286.319 214.181 286.872 213.768 287.624 213.473C288.376 213.163 289.357 213.008 290.567 213.008H293.731V215.022H290.943C290.132 215.022 289.571 215.154 289.262 215.42C288.967 215.685 288.819 216.017 288.819 216.416C288.819 216.858 288.989 217.212 289.328 217.478C289.682 217.728 290.161 217.854 290.766 217.854C291.341 217.854 291.858 217.721 292.315 217.455C292.772 217.175 293.104 216.77 293.311 216.239L293.842 217.832C293.591 218.599 293.134 219.181 292.47 219.58C291.806 219.978 290.951 220.177 289.903 220.177ZM306.396 220V204.512H313.1C314.487 204.512 315.682 204.74 316.685 205.198C317.688 205.64 318.462 206.282 319.008 207.123C319.554 207.963 319.827 208.966 319.827 210.132C319.827 211.282 319.554 212.278 319.008 213.119C318.462 213.945 317.688 214.579 316.685 215.022C315.682 215.464 314.487 215.685 313.1 215.685H308.387L309.98 214.114V220H306.396ZM316.242 220L312.37 214.38H316.198L320.114 220H316.242ZM309.98 214.513L308.387 212.831H312.901C314.007 212.831 314.833 212.595 315.379 212.123C315.925 211.636 316.198 210.972 316.198 210.132C316.198 209.276 315.925 208.612 315.379 208.14C314.833 207.668 314.007 207.432 312.901 207.432H308.387L309.98 205.729V214.513ZM328.331 220.177C326.974 220.177 325.779 219.911 324.746 219.38C323.729 218.849 322.939 218.127 322.379 217.212C321.818 216.283 321.538 215.228 321.538 214.048C321.538 212.853 321.811 211.799 322.357 210.884C322.917 209.955 323.677 209.232 324.636 208.716C325.594 208.185 326.679 207.919 327.888 207.919C329.054 207.919 330.101 208.17 331.03 208.671C331.974 209.158 332.719 209.866 333.265 210.795C333.811 211.71 334.084 212.809 334.084 214.092C334.084 214.225 334.076 214.38 334.061 214.557C334.047 214.719 334.032 214.874 334.017 215.022H324.348V213.008H332.203L330.875 213.606C330.875 212.986 330.75 212.448 330.499 211.99C330.248 211.533 329.902 211.179 329.459 210.928C329.017 210.663 328.5 210.53 327.91 210.53C327.32 210.53 326.797 210.663 326.339 210.928C325.897 211.179 325.55 211.54 325.299 212.012C325.049 212.47 324.923 213.015 324.923 213.65V214.181C324.923 214.83 325.063 215.405 325.344 215.907C325.639 216.393 326.044 216.77 326.561 217.035C327.092 217.286 327.711 217.411 328.419 217.411C329.054 217.411 329.607 217.315 330.079 217.124C330.566 216.932 331.008 216.644 331.406 216.261L333.243 218.252C332.697 218.872 332.011 219.351 331.185 219.69C330.359 220.015 329.408 220.177 328.331 220.177ZM340.386 220.177C339.369 220.177 338.388 220.059 337.444 219.823C336.514 219.572 335.777 219.262 335.231 218.894L336.382 216.416C336.927 216.755 337.569 217.035 338.307 217.256C339.059 217.463 339.796 217.566 340.519 217.566C341.316 217.566 341.876 217.47 342.201 217.278C342.54 217.087 342.71 216.821 342.71 216.482C342.71 216.202 342.577 215.995 342.311 215.862C342.061 215.715 341.721 215.604 341.294 215.53C340.866 215.457 340.394 215.383 339.878 215.309C339.376 215.235 338.867 215.14 338.351 215.022C337.835 214.889 337.363 214.697 336.935 214.446C336.507 214.196 336.16 213.856 335.895 213.429C335.644 213.001 335.519 212.448 335.519 211.769C335.519 211.017 335.733 210.353 336.16 209.778C336.603 209.202 337.237 208.752 338.063 208.428C338.889 208.089 339.878 207.919 341.028 207.919C341.839 207.919 342.665 208.008 343.506 208.185C344.347 208.362 345.048 208.62 345.608 208.959L344.458 211.415C343.882 211.076 343.3 210.847 342.71 210.729C342.134 210.596 341.574 210.53 341.028 210.53C340.261 210.53 339.701 210.633 339.347 210.84C338.993 211.046 338.816 211.312 338.816 211.636C338.816 211.931 338.941 212.153 339.192 212.3C339.457 212.448 339.804 212.566 340.232 212.654C340.659 212.743 341.124 212.824 341.626 212.897C342.142 212.956 342.658 213.052 343.174 213.185C343.691 213.318 344.155 213.51 344.568 213.76C344.996 213.996 345.343 214.328 345.608 214.756C345.874 215.169 346.007 215.715 346.007 216.393C346.007 217.131 345.785 217.787 345.343 218.363C344.9 218.923 344.259 219.366 343.418 219.69C342.592 220.015 341.581 220.177 340.386 220.177ZM354.044 220.177C352.687 220.177 351.492 219.911 350.459 219.38C349.442 218.849 348.652 218.127 348.092 217.212C347.531 216.283 347.251 215.228 347.251 214.048C347.251 212.853 347.524 211.799 348.07 210.884C348.63 209.955 349.39 209.232 350.349 208.716C351.308 208.185 352.392 207.919 353.601 207.919C354.767 207.919 355.814 208.17 356.743 208.671C357.687 209.158 358.432 209.866 358.978 210.795C359.524 211.71 359.797 212.809 359.797 214.092C359.797 214.225 359.789 214.38 359.775 214.557C359.76 214.719 359.745 214.874 359.73 215.022H350.061V213.008H357.916L356.588 213.606C356.588 212.986 356.463 212.448 356.212 211.99C355.962 211.533 355.615 211.179 355.172 210.928C354.73 210.663 354.214 210.53 353.623 210.53C353.033 210.53 352.51 210.663 352.053 210.928C351.61 211.179 351.263 211.54 351.013 212.012C350.762 212.47 350.636 213.015 350.636 213.65V214.181C350.636 214.83 350.777 215.405 351.057 215.907C351.352 216.393 351.758 216.77 352.274 217.035C352.805 217.286 353.424 217.411 354.132 217.411C354.767 217.411 355.32 217.315 355.792 217.124C356.279 216.932 356.721 216.644 357.119 216.261L358.956 218.252C358.41 218.872 357.724 219.351 356.898 219.69C356.072 220.015 355.121 220.177 354.044 220.177ZM362.095 220V208.096H365.392V211.459L364.927 210.486C365.281 209.645 365.849 209.011 366.631 208.583C367.412 208.14 368.364 207.919 369.485 207.919V211.105C369.337 211.09 369.205 211.083 369.087 211.083C368.969 211.068 368.843 211.061 368.71 211.061C367.766 211.061 366.999 211.334 366.409 211.88C365.834 212.411 365.546 213.244 365.546 214.38V220H362.095ZM375.178 220L370.178 208.096H373.74L377.9 218.341H376.13L380.444 208.096H383.763L378.741 220H375.178ZM392.084 220V217.677L391.863 217.168V213.008C391.863 212.271 391.635 211.695 391.177 211.282C390.735 210.869 390.049 210.663 389.12 210.663C388.485 210.663 387.858 210.766 387.239 210.972C386.634 211.164 386.118 211.43 385.69 211.769L384.451 209.357C385.1 208.9 385.882 208.546 386.796 208.295C387.711 208.044 388.64 207.919 389.584 207.919C391.399 207.919 392.807 208.347 393.81 209.202C394.813 210.058 395.315 211.393 395.315 213.207V220H392.084ZM388.456 220.177C387.526 220.177 386.73 220.022 386.066 219.712C385.402 219.388 384.893 218.953 384.539 218.407C384.185 217.861 384.008 217.249 384.008 216.57C384.008 215.862 384.178 215.243 384.517 214.712C384.871 214.181 385.424 213.768 386.177 213.473C386.929 213.163 387.91 213.008 389.12 213.008H392.284V215.022H389.496C388.684 215.022 388.124 215.154 387.814 215.42C387.519 215.685 387.372 216.017 387.372 216.416C387.372 216.858 387.541 217.212 387.88 217.478C388.234 217.728 388.714 217.854 389.319 217.854C389.894 217.854 390.41 217.721 390.868 217.455C391.325 217.175 391.657 216.77 391.863 216.239L392.394 217.832C392.143 218.599 391.686 219.181 391.022 219.58C390.359 219.978 389.503 220.177 388.456 220.177ZM404.278 220.177C402.995 220.177 401.852 219.919 400.849 219.403C399.845 218.872 399.056 218.141 398.481 217.212C397.92 216.283 397.64 215.228 397.64 214.048C397.64 212.853 397.92 211.799 398.481 210.884C399.056 209.955 399.845 209.232 400.849 208.716C401.852 208.185 402.995 207.919 404.278 207.919C405.532 207.919 406.623 208.185 407.553 208.716C408.482 209.232 409.168 209.977 409.61 210.95L406.933 212.389C406.623 211.828 406.233 211.415 405.761 211.15C405.303 210.884 404.802 210.751 404.256 210.751C403.666 210.751 403.135 210.884 402.663 211.15C402.191 211.415 401.815 211.791 401.534 212.278C401.269 212.765 401.136 213.355 401.136 214.048C401.136 214.741 401.269 215.331 401.534 215.818C401.815 216.305 402.191 216.681 402.663 216.947C403.135 217.212 403.666 217.345 404.256 217.345C404.802 217.345 405.303 217.219 405.761 216.969C406.233 216.703 406.623 216.283 406.933 215.708L409.61 217.168C409.168 218.127 408.482 218.872 407.553 219.403C406.623 219.919 405.532 220.177 404.278 220.177ZM411.511 220V208.096H414.963V220H411.511ZM413.237 206.437C412.603 206.437 412.087 206.252 411.688 205.883C411.29 205.515 411.091 205.057 411.091 204.512C411.091 203.966 411.29 203.509 411.688 203.14C412.087 202.771 412.603 202.587 413.237 202.587C413.872 202.587 414.388 202.764 414.786 203.118C415.184 203.457 415.384 203.899 415.384 204.445C415.384 205.021 415.184 205.5 414.786 205.883C414.403 206.252 413.886 206.437 413.237 206.437ZM423.831 220.177C422.562 220.177 421.434 219.911 420.446 219.38C419.472 218.849 418.698 218.127 418.122 217.212C417.562 216.283 417.282 215.228 417.282 214.048C417.282 212.853 417.562 211.799 418.122 210.884C418.698 209.955 419.472 209.232 420.446 208.716C421.434 208.185 422.562 207.919 423.831 207.919C425.085 207.919 426.206 208.185 427.194 208.716C428.182 209.232 428.957 209.947 429.517 210.862C430.078 211.776 430.358 212.838 430.358 214.048C430.358 215.228 430.078 216.283 429.517 217.212C428.957 218.127 428.182 218.849 427.194 219.38C426.206 219.911 425.085 220.177 423.831 220.177ZM423.831 217.345C424.406 217.345 424.923 217.212 425.38 216.947C425.837 216.681 426.198 216.305 426.464 215.818C426.729 215.317 426.862 214.727 426.862 214.048C426.862 213.355 426.729 212.765 426.464 212.278C426.198 211.791 425.837 211.415 425.38 211.15C424.923 210.884 424.406 210.751 423.831 210.751C423.256 210.751 422.739 210.884 422.282 211.15C421.825 211.415 421.456 211.791 421.176 212.278C420.91 212.765 420.778 213.355 420.778 214.048C420.778 214.727 420.91 215.317 421.176 215.818C421.456 216.305 421.825 216.681 422.282 216.947C422.739 217.212 423.256 217.345 423.831 217.345ZM421.773 206.569L424.76 203.383H428.477L424.473 206.569H421.773ZM439.901 207.919C440.845 207.919 441.685 208.111 442.423 208.494C443.175 208.863 443.765 209.438 444.193 210.22C444.621 210.987 444.835 211.976 444.835 213.185V220H441.383V213.716C441.383 212.757 441.169 212.049 440.741 211.592C440.328 211.135 439.738 210.906 438.971 210.906C438.426 210.906 437.931 211.024 437.489 211.26C437.061 211.481 436.722 211.828 436.471 212.3C436.235 212.772 436.117 213.377 436.117 214.114V220H432.665V208.096H435.962V211.393L435.343 210.397C435.77 209.601 436.383 208.989 437.179 208.561C437.976 208.133 438.883 207.919 439.901 207.919Z" fill="#5C6284"/>
<path d="M57.4885 334.204L56.6167 332.25C54.5723 327.681 53.7035 322.674 54.0893 317.684C54.4751 312.694 56.1033 307.88 58.8256 303.681C61.5479 299.481 65.2777 296.029 69.6753 293.64C74.0729 291.25 78.9985 289.999 84.0034 290H86.146V321.385L57.4885 334.204Z" fill="#E2E3EB"/>
<path d="M90.4313 294.615V324.163L62.3925 336.706C64.8876 340.765 68.3807 344.118 72.5388 346.443C76.697 348.769 81.3816 349.991 86.146 349.993C101.505 349.993 114 337.498 114 322.139C114 308.238 103.762 296.682 90.4313 294.615Z" fill="#5572DA"/>
<path d="M143.75 199.938V235.812C143.75 236.393 143.98 236.949 144.391 237.359C144.801 237.77 145.357 238 145.938 238H188.812C189.393 238 189.949 237.77 190.359 237.359C190.77 236.949 191 236.393 191 235.812V199.938C191 199.357 190.77 198.801 190.359 198.391C189.949 197.98 189.393 197.75 188.812 197.75H145.938C145.357 197.75 144.801 197.98 144.391 198.391C143.98 198.801 143.75 199.357 143.75 199.938ZM175.812 204.458C176.806 204.464 177.776 204.764 178.599 205.321C179.422 205.877 180.062 206.665 180.439 207.585C180.815 208.505 180.91 209.515 180.712 210.489C180.515 211.463 180.033 212.357 179.328 213.058C178.624 213.758 177.727 214.234 176.752 214.426C175.777 214.618 174.767 214.516 173.849 214.134C172.932 213.753 172.148 213.108 171.596 212.281C171.045 211.455 170.75 210.483 170.75 209.489C170.756 208.151 171.292 206.87 172.241 205.927C173.19 204.984 174.474 204.455 175.812 204.458ZM147.22 234.645V224.202L160.647 212.149L170.905 222.359L158.545 234.645H147.22ZM187.5 234.645H163.328L179.142 218.895L187.5 226.033V234.645Z" fill="#FFBA6D"/>
<path d="M137.188 189C136.607 189 136.051 189.23 135.641 189.641C135.23 190.051 135 190.607 135 191.188V228.812C135 229.393 135.23 229.949 135.641 230.359C136.051 230.77 136.607 231 137.188 231H140.25V196.438C140.25 195.857 140.48 195.301 140.891 194.891C141.301 194.48 141.857 194.25 142.438 194.25H184V191.188C184 190.607 183.77 190.051 183.359 189.641C182.949 189.23 182.393 189 181.812 189H137.188Z" fill="#FFBA6D"/>
<defs>
<filter id="filter0_d_645_2429" x="65" y="0" width="594" height="469" filterUnits="userSpaceOnUse" color-interpolation-filters="sRGB">
<feFlood flood-opacity="0" result="BackgroundImageFix"/>
<feColorMatrix in="SourceAlpha" type="matrix" values="0 0 0 0 0 0 0 0 0 0 0 0 0 0 0 0 0 0 127 0" result="hardAlpha"/>
<feMorphology radius="5" operator="dilate" in="SourceAlpha" result="effect1_dropShadow_645_2429"/>
<feOffset dx="3" dy="8"/>
<feGaussianBlur stdDeviation="12"/>
<feComposite in2="hardAlpha" operator="out"/>
<feColorMatrix type="matrix" values="0 0 0 0 0 0 0 0 0 0 0 0 0 0 0 0 0 0 0.25 0"/>
<feBlend mode="normal" in2="BackgroundImageFix" result="effect1_dropShadow_645_2429"/>
<feBlend mode="normal" in="SourceGraphic" in2="effect1_dropShadow_645_2429" result="shape"/>
</filter>
<filter id="filter1_d_645_2429" x="74" y="142" width="455" height="155" filterUnits="userSpaceOnUse" color-interpolation-filters="sRGB">
<feFlood flood-opacity="0" result="BackgroundImageFix"/>
<feColorMatrix in="SourceAlpha" type="matrix" values="0 0 0 0 0 0 0 0 0 0 0 0 0 0 0 0 0 0 127 0" result="hardAlpha"/>
<feMorphology radius="5" operator="dilate" in="SourceAlpha" result="effect1_dropShadow_645_2429"/>
<feOffset dx="3" dy="8"/>
<feGaussianBlur stdDeviation="12"/>
<feComposite in2="hardAlpha" operator="out"/>
<feColorMatrix type="matrix" values="0 0 0 0 0 0 0 0 0 0 0 0 0 0 0 0 0 0 0.25 0"/>
<feBlend mode="normal" in2="BackgroundImageFix" result="effect1_dropShadow_645_2429"/>
<feBlend mode="normal" in="SourceGraphic" in2="effect1_dropShadow_645_2429" result="shape"/>
</filter>
<filter id="filter2_d_645_2429" x="0" y="251" width="455" height="155" filterUnits="userSpaceOnUse" color-interpolation-filters="sRGB">
<feFlood flood-opacity="0" result="BackgroundImageFix"/>
<feColorMatrix in="SourceAlpha" type="matrix" values="0 0 0 0 0 0 0 0 0 0 0 0 0 0 0 0 0 0 127 0" result="hardAlpha"/>
<feMorphology radius="5" operator="dilate" in="SourceAlpha" result="effect1_dropShadow_645_2429"/>
<feOffset dx="3" dy="8"/>
<feGaussianBlur stdDeviation="12"/>
<feComposite in2="hardAlpha" operator="out"/>
<feColorMatrix type="matrix" values="0 0 0 0 0 0 0 0 0 0 0 0 0 0 0 0 0 0 0.25 0"/>
<feBlend mode="normal" in2="BackgroundImageFix" result="effect1_dropShadow_645_2429"/>
<feBlend mode="normal" in="SourceGraphic" in2="effect1_dropShadow_645_2429" result="shape"/>
</filter>
<filter id="filter3_d_645_2429" x="74" y="359" width="455" height="155" filterUnits="userSpaceOnUse" color-interpolation-filters="sRGB">
<feFlood flood-opacity="0" result="BackgroundImageFix"/>
<feColorMatrix in="SourceAlpha" type="matrix" values="0 0 0 0 0 0 0 0 0 0 0 0 0 0 0 0 0 0 127 0" result="hardAlpha"/>
<feMorphology radius="5" operator="dilate" in="SourceAlpha" result="effect1_dropShadow_645_2429"/>
<feOffset dx="3" dy="8"/>
<feGaussianBlur stdDeviation="12"/>
<feComposite in2="hardAlpha" operator="out"/>
<feColorMatrix type="matrix" values="0 0 0 0 0 0 0 0 0 0 0 0 0 0 0 0 0 0 0.25 0"/>
<feBlend mode="normal" in2="BackgroundImageFix" result="effect1_dropShadow_645_2429"/>
<feBlend mode="normal" in="SourceGraphic" in2="effect1_dropShadow_645_2429" result="shape"/>
</filter>
<linearGradient id="paint0_linear_645_2429" x1="191" y1="88" x2="191" y2="411" gradientUnits="userSpaceOnUse">
<stop stop-color="#648BCE"/>
<stop offset="1" stop-color="#CBACF8"/>
</linearGradient>
</defs>
</svg>
