<?xml version="1.0" encoding="UTF-8" standalone="no"?><!DOCTYPE svg PUBLIC "-//W3C//DTD SVG 1.1//EN" "http://www.w3.org/Graphics/SVG/1.1/DTD/svg11.dtd"><svg width="100%" height="100%" viewBox="0 0 43 38" version="1.1" xmlns="http://www.w3.org/2000/svg" xmlns:xlink="http://www.w3.org/1999/xlink" xml:space="preserve" xmlns:serif="http://www.serif.com/" style="fill-rule:evenodd;clip-rule:evenodd;stroke-linejoin:round;stroke-miterlimit:2;"><path d="M18.448,0.635l-16.009,8.028c-1.495,0.749 -2.439,2.279 -2.439,3.953l0,8.5c0,1.674 0.944,3.204 2.438,3.953l8.5,4.262c0.756,0.379 1.465,0.844 2.113,1.386l7.193,6.007c0.257,0.214 0.887,0.741 0.887,0.741l8.08,-6.748c0.649,-0.542 1.358,-1.007 2.113,-1.386l8.5,-4.262c1.495,-0.749 2.438,-2.279 2.438,-3.953l0,-8.5c0,-1.674 -0.943,-3.204 -2.438,-3.953l-16.01,-8.028c-0.844,-0.423 -1.764,-0.635 -2.683,-0.635c-0.919,0 -1.839,0.212 -2.683,0.635Zm-4.374,5.574l6.151,-3.086c0.57,-0.286 1.242,-0.286 1.813,0l6.128,3.075l-7.062,3.545l-7.03,-3.534Zm10.395,5.226l7.067,-3.547l5.726,2.865c0.712,0.357 0.713,1.375 0,1.732l-5.357,2.689l-7.436,-3.739Zm-6.089,7.777l-13.386,-6.732c-0.707,-0.356 -0.706,-1.368 0.002,-1.723l5.711,-2.86l17.832,8.967l-4.647,2.348c-0.867,0.438 -1.812,0.657 -2.757,0.657c-0.944,-0 -1.889,-0.219 -2.755,-0.657Zm-3.395,9.184c-0.826,-0.69 -1.733,-1.285 -2.695,-1.767l-7.956,-3.987c-0.799,-0.401 -1.304,-1.218 -1.306,-2.113l-0.009,-5.69l14.451,7.291c2.306,1.163 5.026,1.164 7.332,0.002l7.102,-3.576l0.026,0.013l0.018,-0.036l7.296,-3.662l-0,5.644c-0,0.896 -0.505,1.714 -1.305,2.116l-7.966,3.998c-0.963,0.482 -1.869,1.077 -2.696,1.767l-6.146,5.133l-6.146,-5.133Z" style="fill:#678ccf;fill-rule:nonzero;"/></svg>