<svg width="48" height="42" viewBox="0 0 48 42" fill="none" xmlns="http://www.w3.org/2000/svg">
<path d="M44.4478 9.79585L26.7823 0.866661C24.9178 -0.0746942 22.7227 -0.0746942 20.8582 0.866661L3.19271 9.79585C1.54287 10.6294 0.5 12.3313 0.5 14.1924L0.5 23.6516C0.5 25.5127 1.54287 27.2146 3.19271 28.049L12.581 32.789C13.4158 33.2103 14.1996 33.7287 14.9168 34.3316L22.8617 41.014L23.8396 41.8392L24.8183 41.014L32.7632 34.3316C33.4796 33.7287 34.2634 33.2103 35.0982 32.789L44.4865 28.049C46.1371 27.2146 47.1792 25.5127 47.18 23.6516V14.1924C47.1718 12.3222 46.1133 10.6186 44.4478 9.79585Z" fill="#CBACF8"/>
<path d="M23.5804 17.0011C28.1994 17.0011 31.9439 15.4409 31.9439 13.5163C31.9439 11.5917 28.1994 10.0315 23.5804 10.0315C18.9614 10.0315 15.2169 11.5917 15.2169 13.5163C15.2169 15.4409 18.9614 17.0011 23.5804 17.0011Z" stroke="#2E3142" stroke-width="1.39392" stroke-miterlimit="10" stroke-linecap="round"/>
<path d="M31.9439 17.2625C31.9439 19.1869 28.1977 20.7472 23.5804 20.7472C18.963 20.7472 15.2169 19.1869 15.2169 17.2625M31.9439 21.0086C31.9439 22.9331 28.1977 24.4934 23.5804 24.4934C18.963 24.4934 15.2169 22.9331 15.2169 21.0086" stroke="#2E3142" stroke-width="1.39392" stroke-miterlimit="10" stroke-linecap="round"/>
<path d="M15.2169 13.4833V24.7008C15.2169 26.607 18.963 28.1525 23.5804 28.1525C28.1977 28.1525 31.9439 26.607 31.9439 24.7008V13.4833" stroke="#2E3142" stroke-width="1.39392" stroke-miterlimit="10" stroke-linecap="round"/>
</svg>
