<svg width="373" height="356" viewBox="0 0 373 356" fill="none" xmlns="http://www.w3.org/2000/svg">
<g filter="url(#filter0_d_433_2164)">
<rect x="230" y="124" width="126" height="95" rx="20" fill="#D6D9ED"/>
<g clip-path="url(#clip0_433_2164)">
<path d="M305.25 138.75H280.75C278.825 138.75 277.25 140.325 277.25 142.25V166.75C277.25 168.675 278.825 170.25 280.75 170.25H305.25C307.175 170.25 308.75 168.675 308.75 166.75V142.25C308.75 140.325 307.175 138.75 305.25 138.75ZM287.75 163.25H284.25V151H287.75V163.25ZM294.75 163.25H291.25V145.75H294.75V163.25ZM301.75 163.25H298.25V156.25H301.75V163.25Z" fill="#5C6284"/>
</g>
<path d="M249.94 204.5V193.74H252.92V196.78L252.5 195.9C252.82 195.14 253.333 194.567 254.04 194.18C254.747 193.78 255.607 193.58 256.62 193.58V196.46C256.487 196.447 256.367 196.44 256.26 196.44C256.153 196.427 256.04 196.42 255.92 196.42C255.067 196.42 254.373 196.667 253.84 197.16C253.32 197.64 253.06 198.393 253.06 199.42V204.5H249.94ZM263.737 204.66C262.51 204.66 261.43 204.42 260.497 203.94C259.577 203.46 258.864 202.807 258.357 201.98C257.85 201.14 257.597 200.187 257.597 199.12C257.597 198.04 257.844 197.087 258.337 196.26C258.844 195.42 259.53 194.767 260.397 194.3C261.264 193.82 262.244 193.58 263.337 193.58C264.39 193.58 265.337 193.807 266.177 194.26C267.03 194.7 267.704 195.34 268.197 196.18C268.69 197.007 268.937 198 268.937 199.16C268.937 199.28 268.93 199.42 268.917 199.58C268.904 199.727 268.89 199.867 268.877 200H260.137V198.18H267.237L266.037 198.72C266.037 198.16 265.924 197.673 265.697 197.26C265.47 196.847 265.157 196.527 264.757 196.3C264.357 196.06 263.89 195.94 263.357 195.94C262.824 195.94 262.35 196.06 261.937 196.3C261.537 196.527 261.224 196.853 260.997 197.28C260.77 197.693 260.657 198.187 260.657 198.76V199.24C260.657 199.827 260.784 200.347 261.037 200.8C261.304 201.24 261.67 201.58 262.137 201.82C262.617 202.047 263.177 202.16 263.817 202.16C264.39 202.16 264.89 202.073 265.317 201.9C265.757 201.727 266.157 201.467 266.517 201.12L268.177 202.92C267.684 203.48 267.064 203.913 266.317 204.22C265.57 204.513 264.71 204.66 263.737 204.66ZM277.374 204.66C276.468 204.66 275.674 204.46 274.994 204.06C274.314 203.66 273.781 203.053 273.394 202.24C273.021 201.413 272.834 200.373 272.834 199.12C272.834 197.853 273.014 196.813 273.374 196C273.734 195.187 274.254 194.58 274.934 194.18C275.614 193.78 276.428 193.58 277.374 193.58C278.388 193.58 279.294 193.813 280.094 194.28C280.908 194.733 281.548 195.373 282.014 196.2C282.494 197.027 282.734 198 282.734 199.12C282.734 200.253 282.494 201.233 282.014 202.06C281.548 202.887 280.908 203.527 280.094 203.98C279.294 204.433 278.388 204.66 277.374 204.66ZM271.014 208.38V193.74H273.994V195.94L273.934 199.14L274.134 202.32V208.38H271.014ZM276.834 202.1C277.354 202.1 277.814 201.98 278.214 201.74C278.628 201.5 278.954 201.16 279.194 200.72C279.448 200.267 279.574 199.733 279.574 199.12C279.574 198.493 279.448 197.96 279.194 197.52C278.954 197.08 278.628 196.74 278.214 196.5C277.814 196.26 277.354 196.14 276.834 196.14C276.314 196.14 275.848 196.26 275.434 196.5C275.021 196.74 274.694 197.08 274.454 197.52C274.214 197.96 274.094 198.493 274.094 199.12C274.094 199.733 274.214 200.267 274.454 200.72C274.694 201.16 275.021 201.5 275.434 201.74C275.848 201.98 276.314 202.1 276.834 202.1ZM289.943 204.66C288.796 204.66 287.776 204.42 286.883 203.94C286.003 203.46 285.303 202.807 284.783 201.98C284.276 201.14 284.023 200.187 284.023 199.12C284.023 198.04 284.276 197.087 284.783 196.26C285.303 195.42 286.003 194.767 286.883 194.3C287.776 193.82 288.796 193.58 289.943 193.58C291.076 193.58 292.089 193.82 292.983 194.3C293.876 194.767 294.576 195.413 295.083 196.24C295.589 197.067 295.843 198.027 295.843 199.12C295.843 200.187 295.589 201.14 295.083 201.98C294.576 202.807 293.876 203.46 292.983 203.94C292.089 204.42 291.076 204.66 289.943 204.66ZM289.943 202.1C290.463 202.1 290.929 201.98 291.343 201.74C291.756 201.5 292.083 201.16 292.323 200.72C292.563 200.267 292.683 199.733 292.683 199.12C292.683 198.493 292.563 197.96 292.323 197.52C292.083 197.08 291.756 196.74 291.343 196.5C290.929 196.26 290.463 196.14 289.943 196.14C289.423 196.14 288.956 196.26 288.543 196.5C288.129 196.74 287.796 197.08 287.543 197.52C287.303 197.96 287.183 198.493 287.183 199.12C287.183 199.733 287.303 200.267 287.543 200.72C287.796 201.16 288.129 201.5 288.543 201.74C288.956 201.98 289.423 202.1 289.943 202.1ZM297.928 204.5V193.74H300.908V196.78L300.488 195.9C300.808 195.14 301.322 194.567 302.028 194.18C302.735 193.78 303.595 193.58 304.608 193.58V196.46C304.475 196.447 304.355 196.44 304.248 196.44C304.142 196.427 304.028 196.42 303.908 196.42C303.055 196.42 302.362 196.667 301.828 197.16C301.308 197.64 301.048 198.393 301.048 199.42V204.5H297.928ZM311.235 204.66C309.968 204.66 308.981 204.34 308.275 203.7C307.568 203.047 307.215 202.08 307.215 200.8V191.36H310.335V200.76C310.335 201.213 310.455 201.567 310.695 201.82C310.935 202.06 311.261 202.18 311.675 202.18C312.168 202.18 312.588 202.047 312.935 201.78L313.775 203.98C313.455 204.207 313.068 204.38 312.615 204.5C312.175 204.607 311.715 204.66 311.235 204.66ZM305.555 196.38V193.98H313.015V196.38H305.555ZM320.534 204.66C319.307 204.66 318.227 204.42 317.294 203.94C316.374 203.46 315.661 202.807 315.154 201.98C314.647 201.14 314.394 200.187 314.394 199.12C314.394 198.04 314.641 197.087 315.134 196.26C315.641 195.42 316.327 194.767 317.194 194.3C318.061 193.82 319.041 193.58 320.134 193.58C321.187 193.58 322.134 193.807 322.974 194.26C323.827 194.7 324.501 195.34 324.994 196.18C325.487 197.007 325.734 198 325.734 199.16C325.734 199.28 325.727 199.42 325.714 199.58C325.701 199.727 325.687 199.867 325.674 200H316.934V198.18H324.034L322.834 198.72C322.834 198.16 322.721 197.673 322.494 197.26C322.267 196.847 321.954 196.527 321.554 196.3C321.154 196.06 320.687 195.94 320.154 195.94C319.621 195.94 319.147 196.06 318.734 196.3C318.334 196.527 318.021 196.853 317.794 197.28C317.567 197.693 317.454 198.187 317.454 198.76V199.24C317.454 199.827 317.581 200.347 317.834 200.8C318.101 201.24 318.467 201.58 318.934 201.82C319.414 202.047 319.974 202.16 320.614 202.16C321.187 202.16 321.687 202.073 322.114 201.9C322.554 201.727 322.954 201.467 323.314 201.12L324.974 202.92C324.481 203.48 323.861 203.913 323.114 204.22C322.367 204.513 321.507 204.66 320.534 204.66ZM331.431 204.66C330.511 204.66 329.624 204.553 328.771 204.34C327.931 204.113 327.264 203.833 326.771 203.5L327.811 201.26C328.304 201.567 328.884 201.82 329.551 202.02C330.231 202.207 330.898 202.3 331.551 202.3C332.271 202.3 332.778 202.213 333.071 202.04C333.378 201.867 333.531 201.627 333.531 201.32C333.531 201.067 333.411 200.88 333.171 200.76C332.944 200.627 332.638 200.527 332.251 200.46C331.864 200.393 331.438 200.327 330.971 200.26C330.518 200.193 330.058 200.107 329.591 200C329.124 199.88 328.698 199.707 328.311 199.48C327.924 199.253 327.611 198.947 327.371 198.56C327.144 198.173 327.031 197.673 327.031 197.06C327.031 196.38 327.224 195.78 327.611 195.26C328.011 194.74 328.584 194.333 329.331 194.04C330.078 193.733 330.971 193.58 332.011 193.58C332.744 193.58 333.491 193.66 334.251 193.82C335.011 193.98 335.644 194.213 336.151 194.52L335.111 196.74C334.591 196.433 334.064 196.227 333.531 196.12C333.011 196 332.504 195.94 332.011 195.94C331.318 195.94 330.811 196.033 330.491 196.22C330.171 196.407 330.011 196.647 330.011 196.94C330.011 197.207 330.124 197.407 330.351 197.54C330.591 197.673 330.904 197.78 331.291 197.86C331.678 197.94 332.098 198.013 332.551 198.08C333.018 198.133 333.484 198.22 333.951 198.34C334.418 198.46 334.838 198.633 335.211 198.86C335.598 199.073 335.911 199.373 336.151 199.76C336.391 200.133 336.511 200.627 336.511 201.24C336.511 201.907 336.311 202.5 335.911 203.02C335.511 203.527 334.931 203.927 334.171 204.22C333.424 204.513 332.511 204.66 331.431 204.66Z" fill="#2E3142"/>
</g>
<g filter="url(#filter1_d_433_2164)">
<rect x="222" y="9.83228" width="138" height="104.168" rx="17.8065" fill="#D47205"/>
<g clip-path="url(#clip1_433_2164)">
<path d="M282.042 48.2562C285.016 48.2562 287.417 45.8554 287.417 42.8812C287.417 39.907 285.016 37.5062 282.042 37.5062C279.067 37.5062 276.667 39.907 276.667 42.8812C276.667 45.8554 279.067 48.2562 282.042 48.2562ZM303.542 37.5062H289.208V50.0479H274.875V33.9229H271.292V60.7979H274.875V55.4229H307.125V60.7979H310.708V44.6729C310.708 40.7133 307.501 37.5062 303.542 37.5062Z" fill="#E2E3EB"/>
</g>
<path d="M244.782 93.8677V84.2879H247.56V93.8677H244.782ZM246.171 82.9524C245.661 82.9524 245.245 82.804 244.925 82.5072C244.604 82.2104 244.444 81.8424 244.444 81.4032C244.444 80.964 244.604 80.596 244.925 80.2992C245.245 80.0024 245.661 79.8541 246.171 79.8541C246.681 79.8541 247.097 79.9965 247.417 80.2814C247.738 80.5544 247.898 80.9106 247.898 81.3498C247.898 81.8128 247.738 82.1986 247.417 82.5072C247.109 82.804 246.693 82.9524 246.171 82.9524ZM255.961 84.1454C256.72 84.1454 257.397 84.2997 257.991 84.6084C258.596 84.9052 259.071 85.3681 259.415 85.9973C259.759 86.6146 259.931 87.4099 259.931 88.3833V93.8677H257.154V88.8107C257.154 88.0391 256.982 87.4693 256.637 87.1013C256.305 86.7333 255.83 86.5493 255.213 86.5493C254.774 86.5493 254.376 86.6443 254.02 86.8342C253.675 87.0123 253.402 87.2912 253.201 87.6711C253.011 88.051 252.916 88.5377 252.916 89.1312V93.8677H250.138V84.2879H252.791V86.941L252.292 86.1397C252.637 85.4987 253.129 85.0061 253.77 84.6618C254.411 84.3175 255.142 84.1454 255.961 84.1454ZM264.875 93.8677L260.851 84.2879H263.718L267.065 92.5323H265.641L269.113 84.2879H271.784L267.742 93.8677H264.875ZM277.411 94.0102C276.319 94.0102 275.357 93.7965 274.526 93.3692C273.707 92.9418 273.072 92.3601 272.621 91.6241C272.17 90.8763 271.945 90.0275 271.945 89.0778C271.945 88.1163 272.164 87.2675 272.603 86.5315C273.054 85.7836 273.666 85.2019 274.437 84.7864C275.209 84.3591 276.082 84.1454 277.055 84.1454C277.993 84.1454 278.836 84.3472 279.584 84.7508C280.343 85.1426 280.943 85.7124 281.382 86.4603C281.821 87.1963 282.041 88.0806 282.041 89.1134C282.041 89.2203 282.035 89.3449 282.023 89.4873C282.011 89.6179 281.999 89.7426 281.987 89.8613H274.206V88.2409H280.527L279.459 88.7217C279.459 88.2231 279.358 87.7898 279.156 87.4218C278.954 87.0538 278.675 86.7689 278.319 86.5671C277.963 86.3534 277.548 86.2466 277.073 86.2466C276.598 86.2466 276.177 86.3534 275.809 86.5671C275.452 86.7689 275.173 87.0597 274.972 87.4396C274.77 87.8076 274.669 88.2468 274.669 88.7573V89.1846C274.669 89.707 274.782 90.1699 275.007 90.5735C275.245 90.9653 275.571 91.268 275.987 91.4817C276.414 91.6835 276.913 91.7844 277.482 91.7844C277.993 91.7844 278.438 91.7072 278.818 91.5529C279.21 91.3986 279.566 91.1671 279.886 90.8584L281.364 92.461C280.925 92.9596 280.373 93.3454 279.708 93.6184C279.043 93.8796 278.278 94.0102 277.411 94.0102ZM289.713 84.1454C290.473 84.1454 291.149 84.2997 291.743 84.6084C292.348 84.9052 292.823 85.3681 293.167 85.9973C293.512 86.6146 293.684 87.4099 293.684 88.3833V93.8677H290.906V88.8107C290.906 88.0391 290.734 87.4693 290.39 87.1013C290.057 86.7333 289.582 86.5493 288.965 86.5493C288.526 86.5493 288.128 86.6443 287.772 86.8342C287.428 87.0123 287.155 87.2912 286.953 87.6711C286.763 88.051 286.668 88.5377 286.668 89.1312V93.8677H283.89V84.2879H286.543V86.941L286.045 86.1397C286.389 85.4987 286.882 85.0061 287.523 84.6618C288.164 84.3175 288.894 84.1454 289.713 84.1454ZM300.119 94.0102C298.991 94.0102 298.113 93.7253 297.484 93.1555C296.855 92.5738 296.54 91.7132 296.54 90.5735V82.1689H299.318V90.5379C299.318 90.9415 299.425 91.2561 299.638 91.4817C299.852 91.6953 300.143 91.8022 300.511 91.8022C300.95 91.8022 301.324 91.6835 301.633 91.4461L302.381 93.4048C302.096 93.6066 301.751 93.7609 301.348 93.8677C300.956 93.9627 300.546 94.0102 300.119 94.0102ZM295.062 86.6383V84.5015H301.704V86.6383H295.062ZM309.816 93.8677V91.9981L309.638 91.5885V88.2409C309.638 87.6473 309.454 87.1844 309.086 86.852C308.73 86.5196 308.178 86.3534 307.43 86.3534C306.919 86.3534 306.415 86.4365 305.916 86.6027C305.43 86.757 305.014 86.9707 304.67 87.2437L303.673 85.3028C304.195 84.9348 304.824 84.6499 305.56 84.4481C306.296 84.2463 307.044 84.1454 307.804 84.1454C309.264 84.1454 310.398 84.4897 311.205 85.1782C312.012 85.8667 312.416 86.941 312.416 88.4012V93.8677H309.816ZM306.896 94.0102C306.148 94.0102 305.507 93.8855 304.973 93.6363C304.438 93.3751 304.029 93.0249 303.744 92.5857C303.459 92.1464 303.317 91.6538 303.317 91.1077C303.317 90.5379 303.453 90.0393 303.726 89.612C304.011 89.1846 304.456 88.8523 305.062 88.6148C305.667 88.3655 306.456 88.2409 307.43 88.2409H309.976V89.8613H307.733C307.08 89.8613 306.629 89.9681 306.379 90.1818C306.142 90.3955 306.023 90.6626 306.023 90.9831C306.023 91.3392 306.16 91.6241 306.433 91.8378C306.718 92.0396 307.103 92.1405 307.59 92.1405C308.053 92.1405 308.469 92.0337 308.837 91.82C309.205 91.5944 309.472 91.268 309.638 90.8406L310.065 92.1227C309.863 92.74 309.495 93.2089 308.961 93.5294C308.427 93.8499 307.739 94.0102 306.896 94.0102ZM314.93 93.8677V84.2879H317.583V86.9944L317.209 86.211C317.494 85.5343 317.951 85.0239 318.58 84.6796C319.209 84.3235 319.975 84.1454 320.877 84.1454V86.7095C320.758 86.6977 320.652 86.6917 320.557 86.6917C320.462 86.6799 320.361 86.6739 320.254 86.6739C319.494 86.6739 318.877 86.8935 318.402 87.3328C317.939 87.7601 317.708 88.4308 317.708 89.3449V93.8677H314.93ZM322.546 93.8677V84.2879H325.324V93.8677H322.546ZM323.935 82.9524C323.425 82.9524 323.009 82.804 322.689 82.5072C322.368 82.2104 322.208 81.8424 322.208 81.4032C322.208 80.964 322.368 80.596 322.689 80.2992C323.009 80.0024 323.425 79.8541 323.935 79.8541C324.446 79.8541 324.861 79.9965 325.182 80.2814C325.502 80.5544 325.662 80.9106 325.662 81.3498C325.662 81.8128 325.502 82.1986 325.182 82.5072C324.873 82.804 324.457 82.9524 323.935 82.9524ZM332.46 94.0102C331.44 94.0102 330.531 93.7965 329.736 93.3692C328.953 92.9418 328.329 92.3601 327.866 91.6241C327.415 90.8763 327.19 90.0275 327.19 89.0778C327.19 88.1163 327.415 87.2675 327.866 86.5315C328.329 85.7836 328.953 85.2019 329.736 84.7864C330.531 84.3591 331.44 84.1454 332.46 84.1454C333.47 84.1454 334.372 84.3591 335.167 84.7864C335.962 85.2019 336.586 85.7777 337.037 86.5137C337.488 87.2497 337.713 88.1044 337.713 89.0778C337.713 90.0275 337.488 90.8763 337.037 91.6241C336.586 92.3601 335.962 92.9418 335.167 93.3692C334.372 93.7965 333.47 94.0102 332.46 94.0102ZM332.46 91.731C332.923 91.731 333.339 91.6241 333.707 91.4104C334.075 91.1968 334.366 90.8941 334.579 90.5023C334.793 90.0987 334.9 89.6239 334.9 89.0778C334.9 88.5199 334.793 88.045 334.579 87.6533C334.366 87.2615 334.075 86.9588 333.707 86.7452C333.339 86.5315 332.923 86.4246 332.46 86.4246C331.998 86.4246 331.582 86.5315 331.214 86.7452C330.846 86.9588 330.549 87.2615 330.324 87.6533C330.11 88.045 330.003 88.5199 330.003 89.0778C330.003 89.6239 330.11 90.0987 330.324 90.5023C330.549 90.8941 330.846 91.1968 331.214 91.4104C331.582 91.6241 331.998 91.731 332.46 91.731Z" fill="white"/>
</g>
<g filter="url(#filter2_d_433_2164)">
<rect x="12" y="229.357" width="116.57" height="110.863" rx="16.4621" fill="#5572DA"/>
<path d="M51.0352 282.47C51.0352 283.005 51.2525 283.517 51.6392 283.895C52.026 284.273 52.5506 284.486 53.0977 284.486H87.4727C88.0197 284.486 88.5443 284.273 88.9311 283.895C89.3179 283.517 89.5352 283.005 89.5352 282.47V258.955H51.0352V282.47ZM77.6904 261.978H79.9102V278.775H77.1602V265.698L74.1188 267.888L72.486 265.725L77.6904 261.978ZM67.3633 272.333C66.6294 271.599 65.4082 271.269 64.7757 271.269H63.4007V268.582H64.7757C65.1925 268.582 66.2719 268.363 66.9482 267.687C67.1312 267.511 67.2756 267.301 67.3727 267.069C67.4697 266.837 67.5174 266.588 67.5128 266.337C67.5128 264.386 65.0524 264.33 64.7723 264.33C63.2821 264.33 62.727 265.221 62.7037 265.258L62.0051 266.416L59.6366 265.049L60.3362 263.893C60.9927 262.801 62.5035 261.642 64.7723 261.642C66.1851 261.642 67.5016 262.043 68.4788 262.769C69.6295 263.626 70.2628 264.892 70.2628 266.337C70.2667 266.936 70.1492 267.529 69.917 268.084C69.6848 268.638 69.3426 269.142 68.9102 269.566C68.8113 269.665 68.7073 269.758 68.6016 269.847C68.8598 270.03 69.1019 270.233 69.3252 270.455C70.2327 271.362 70.7123 272.617 70.7123 274.087C70.7123 275.604 70.0583 276.942 68.8715 277.859C67.8256 278.667 66.4008 279.111 64.8582 279.111C62.4631 279.111 60.692 277.586 59.903 276.281L59.2044 275.123L61.5728 273.757L62.2741 274.912C62.3669 275.066 63.2323 276.423 64.8608 276.423C66.2925 276.423 67.9648 275.811 67.9648 274.087C67.9648 273.562 67.86 272.831 67.3633 272.333ZM87.4727 249.548H82.667V246.861H78.542V249.548H62.0283V246.861H57.9033V249.548H53.0977C52.8278 249.546 52.5602 249.596 52.3103 249.695C52.0603 249.795 51.8329 249.941 51.6412 250.127C51.4495 250.312 51.2972 250.533 51.1932 250.777C51.0892 251.02 51.0355 251.281 51.0352 251.545V256.267H89.5352V251.545C89.5348 251.281 89.4811 251.02 89.3771 250.777C89.2731 250.533 89.1208 250.312 88.9291 250.127C88.7374 249.941 88.51 249.795 88.26 249.695C88.0101 249.596 87.7425 249.546 87.4727 249.548Z" fill="#D6D9ED"/>
<path d="M36.4956 319.602C34.9317 319.602 33.7135 319.207 32.841 318.417C31.9685 317.61 31.5322 316.417 31.5322 314.836V303.181H35.3844V314.787C35.3844 315.347 35.5325 315.783 35.8288 316.096C36.1252 316.392 36.5285 316.54 37.0388 316.54C37.6479 316.54 38.1665 316.375 38.5945 316.046L39.6316 318.762C39.2365 319.042 38.7591 319.256 38.1994 319.404C37.6561 319.536 37.0882 319.602 36.4956 319.602ZM29.4827 309.379V306.416H38.6932V309.379H29.4827ZM49.9427 319.404V316.812L49.6958 316.244V311.601C49.6958 310.778 49.4406 310.136 48.9303 309.675C48.4364 309.214 47.6709 308.984 46.6338 308.984C45.926 308.984 45.2263 309.099 44.5349 309.33C43.86 309.544 43.2838 309.84 42.8064 310.219L41.4236 307.527C42.1479 307.017 43.0204 306.622 44.041 306.342C45.0617 306.062 46.0988 305.922 47.1524 305.922C49.1772 305.922 50.7493 306.399 51.8688 307.354C52.9882 308.309 53.5479 309.799 53.5479 311.824V319.404H49.9427ZM45.893 319.602C44.8559 319.602 43.967 319.429 43.2262 319.083C42.4854 318.721 41.9174 318.236 41.5223 317.627C41.1273 317.017 40.9297 316.334 40.9297 315.577C40.9297 314.787 41.119 314.095 41.4977 313.503C41.8927 312.91 42.5101 312.449 43.3496 312.12C44.1892 311.774 45.2839 311.601 46.6338 311.601H50.1649V313.848H47.0536C46.1482 313.848 45.5226 313.997 45.1769 314.293C44.8477 314.589 44.6831 314.96 44.6831 315.404C44.6831 315.898 44.8724 316.293 45.251 316.589C45.6461 316.869 46.1811 317.009 46.8561 317.009C47.4981 317.009 48.0743 316.861 48.5846 316.565C49.0949 316.252 49.4653 315.799 49.6958 315.207L50.2884 316.984C50.0086 317.841 49.4982 318.491 48.7574 318.935C48.0166 319.38 47.0618 319.602 45.893 319.602ZM57.0343 319.404V306.12H60.7135V309.873L60.195 308.786C60.5901 307.848 61.2239 307.14 62.0964 306.663C62.9689 306.169 64.0307 305.922 65.2818 305.922V309.478C65.1172 309.461 64.969 309.453 64.8373 309.453C64.7056 309.437 64.5657 309.428 64.4175 309.428C63.3639 309.428 62.5079 309.733 61.8494 310.342C61.2074 310.935 60.8864 311.865 60.8864 313.132V319.404H57.0343ZM67.5723 319.404V306.12H71.4244V319.404H67.5723ZM69.4983 304.268C68.7905 304.268 68.2143 304.062 67.7698 303.65C67.3253 303.239 67.1031 302.728 67.1031 302.119C67.1031 301.51 67.3253 301 67.7698 300.588C68.2143 300.177 68.7905 299.971 69.4983 299.971C70.2062 299.971 70.7824 300.168 71.2268 300.564C71.6713 300.942 71.8936 301.436 71.8936 302.045C71.8936 302.687 71.6713 303.222 71.2268 303.65C70.7988 304.062 70.2227 304.268 69.4983 304.268ZM75.4687 319.404V305.823C75.4687 304.325 75.9131 303.132 76.8021 302.243C77.691 301.337 78.9586 300.885 80.6048 300.885C81.1645 300.885 81.6996 300.942 82.2099 301.057C82.7367 301.173 83.1812 301.354 83.5433 301.601L82.5309 304.391C82.3169 304.243 82.0782 304.128 81.8148 304.045C81.5514 303.963 81.2715 303.922 80.9752 303.922C80.4155 303.922 79.9793 304.086 79.6665 304.416C79.3702 304.728 79.222 305.206 79.222 305.848V307.083L79.3208 308.737V319.404H75.4687ZM73.4191 309.379V306.416H82.6297V309.379H73.4191ZM92.4564 319.404V316.812L92.2095 316.244V311.601C92.2095 310.778 91.9543 310.136 91.444 309.675C90.9501 309.214 90.1846 308.984 89.1475 308.984C88.4396 308.984 87.74 309.099 87.0486 309.33C86.3736 309.544 85.7975 309.84 85.3201 310.219L83.9372 307.527C84.6616 307.017 85.5341 306.622 86.5547 306.342C87.5754 306.062 88.6125 305.922 89.6661 305.922C91.6909 305.922 93.263 306.399 94.3824 307.354C95.5019 308.309 96.0616 309.799 96.0616 311.824V319.404H92.4564ZM88.4067 319.602C87.3696 319.602 86.4806 319.429 85.7398 319.083C84.9991 318.721 84.4311 318.236 84.036 317.627C83.6409 317.017 83.4434 316.334 83.4434 315.577C83.4434 314.787 83.6327 314.095 84.0113 313.503C84.4064 312.91 85.0237 312.449 85.8633 312.12C86.7029 311.774 87.7976 311.601 89.1475 311.601H92.6786V313.848H89.5673C88.6619 313.848 88.0363 313.997 87.6906 314.293C87.3614 314.589 87.1967 314.96 87.1967 315.404C87.1967 315.898 87.3861 316.293 87.7647 316.589C88.1598 316.869 88.6948 317.009 89.3697 317.009C90.0118 317.009 90.5879 316.861 91.0983 316.565C91.6086 316.252 91.979 315.799 92.2095 315.207L92.8021 316.984C92.5222 317.841 92.0119 318.491 91.2711 318.935C90.5303 319.38 89.5755 319.602 88.4067 319.602ZM104.017 319.602C102.882 319.602 101.787 319.47 100.733 319.207C99.6961 318.927 98.873 318.581 98.2639 318.17L99.5479 315.404C100.157 315.783 100.873 316.096 101.696 316.342C102.536 316.573 103.359 316.688 104.166 316.688C105.055 316.688 105.68 316.581 106.042 316.367C106.421 316.153 106.61 315.857 106.61 315.478C106.61 315.165 106.462 314.935 106.166 314.787C105.886 314.622 105.507 314.499 105.03 314.416C104.552 314.334 104.026 314.252 103.449 314.169C102.89 314.087 102.322 313.98 101.746 313.848C101.169 313.7 100.643 313.486 100.165 313.206C99.6879 312.927 99.301 312.548 99.0047 312.071C98.7248 311.593 98.5849 310.976 98.5849 310.219C98.5849 309.379 98.8236 308.638 99.301 307.996C99.7949 307.354 100.503 306.852 101.425 306.49C102.346 306.111 103.449 305.922 104.734 305.922C105.639 305.922 106.561 306.021 107.499 306.218C108.437 306.416 109.219 306.704 109.845 307.083L108.561 309.823C107.919 309.445 107.269 309.19 106.61 309.058C105.968 308.91 105.343 308.836 104.734 308.836C103.877 308.836 103.252 308.951 102.857 309.181C102.462 309.412 102.264 309.708 102.264 310.07C102.264 310.4 102.404 310.647 102.684 310.811C102.98 310.976 103.367 311.108 103.845 311.206C104.322 311.305 104.841 311.396 105.4 311.478C105.976 311.544 106.553 311.651 107.129 311.799C107.705 311.947 108.223 312.161 108.684 312.441C109.162 312.704 109.549 313.075 109.845 313.552C110.141 314.013 110.289 314.622 110.289 315.379C110.289 316.203 110.043 316.935 109.549 317.577C109.055 318.203 108.339 318.697 107.4 319.059C106.478 319.421 105.351 319.602 104.017 319.602Z" fill="#D6D9ED"/>
</g>
<g filter="url(#filter3_d_433_2164)">
<rect x="142" y="229.357" width="136.57" height="110.664" rx="16.4621" fill="#FFBA6D"/>
<path d="M197.746 269.587V265.072H202.26V262.063H197.746V257.549H194.736V262.063H190.222V265.072H194.736V269.587H197.746Z" fill="#5C6284"/>
<path d="M212.96 265.574C218.131 265.574 222.323 261.382 222.323 256.211C222.323 251.04 218.131 246.848 212.96 246.848C207.789 246.848 203.598 251.04 203.598 256.211C203.598 261.382 207.789 265.574 212.96 265.574Z" fill="#5C6284"/>
<path d="M212.96 268.249C207.157 268.249 195.572 271.834 195.572 278.95V284.3H230.348V278.95C230.348 271.834 218.764 268.249 212.96 268.249Z" fill="#5C6284"/>
<path d="M167.483 319.403C166.051 319.403 164.775 319.115 163.656 318.539C162.536 317.946 161.656 317.132 161.014 316.094C160.388 315.057 160.075 313.88 160.075 312.563C160.075 311.23 160.388 310.053 161.014 309.032C161.656 307.995 162.536 307.188 163.656 306.612C164.775 306.02 166.051 305.723 167.483 305.723C168.883 305.723 170.101 306.02 171.138 306.612C172.175 307.188 172.94 308.02 173.434 309.106L170.446 310.711C170.101 310.086 169.665 309.625 169.138 309.329C168.627 309.032 168.068 308.884 167.459 308.884C166.8 308.884 166.207 309.032 165.681 309.329C165.154 309.625 164.734 310.045 164.421 310.588C164.125 311.131 163.977 311.79 163.977 312.563C163.977 313.337 164.125 313.996 164.421 314.539C164.734 315.082 165.154 315.502 165.681 315.798C166.207 316.094 166.8 316.243 167.459 316.243C168.068 316.243 168.627 316.103 169.138 315.823C169.665 315.527 170.101 315.057 170.446 314.415L173.434 316.045C172.94 317.115 172.175 317.946 171.138 318.539C170.101 319.115 168.883 319.403 167.483 319.403ZM175.556 319.206V300.883H179.408V319.206H175.556ZM182.983 319.206V305.921H186.835V319.206H182.983ZM184.909 304.069C184.201 304.069 183.625 303.863 183.181 303.452C182.736 303.04 182.514 302.53 182.514 301.921C182.514 301.312 182.736 300.801 183.181 300.39C183.625 299.978 184.201 299.772 184.909 299.772C185.617 299.772 186.193 299.97 186.638 300.365C187.082 300.744 187.304 301.237 187.304 301.847C187.304 302.489 187.082 303.024 186.638 303.452C186.21 303.863 185.633 304.069 184.909 304.069ZM197.003 319.403C195.489 319.403 194.155 319.107 193.003 318.514C191.867 317.922 190.986 317.115 190.361 316.094C189.735 315.057 189.423 313.88 189.423 312.563C189.423 311.23 189.727 310.053 190.336 309.032C190.962 307.995 191.81 307.188 192.88 306.612C193.95 306.02 195.16 305.723 196.509 305.723C197.81 305.723 198.979 306.003 200.016 306.563C201.069 307.106 201.901 307.896 202.51 308.933C203.119 309.954 203.424 311.181 203.424 312.613C203.424 312.761 203.415 312.934 203.399 313.131C203.382 313.312 203.366 313.485 203.349 313.65H192.559V311.403H201.325L199.843 312.069C199.843 311.378 199.703 310.777 199.423 310.267C199.143 309.757 198.757 309.361 198.263 309.082C197.769 308.785 197.193 308.637 196.534 308.637C195.876 308.637 195.291 308.785 194.781 309.082C194.287 309.361 193.9 309.765 193.62 310.292C193.341 310.802 193.201 311.411 193.201 312.119V312.712C193.201 313.436 193.357 314.078 193.67 314.638C193.999 315.181 194.452 315.601 195.028 315.897C195.621 316.177 196.312 316.317 197.102 316.317C197.81 316.317 198.427 316.21 198.954 315.996C199.497 315.782 199.991 315.461 200.436 315.033L202.485 317.255C201.876 317.946 201.111 318.481 200.189 318.86C199.267 319.222 198.205 319.403 197.003 319.403ZM214.063 305.723C215.116 305.723 216.055 305.937 216.878 306.365C217.717 306.777 218.376 307.419 218.853 308.291C219.331 309.147 219.569 310.25 219.569 311.6V319.206H215.717V312.193C215.717 311.123 215.479 310.333 215.001 309.822C214.54 309.312 213.882 309.057 213.026 309.057C212.417 309.057 211.865 309.189 211.371 309.452C210.894 309.699 210.515 310.086 210.235 310.613C209.972 311.139 209.84 311.814 209.84 312.637V319.206H205.988V305.921H209.667V309.6L208.976 308.489C209.453 307.6 210.137 306.917 211.026 306.439C211.915 305.962 212.927 305.723 214.063 305.723ZM228.494 319.403C226.93 319.403 225.712 319.008 224.839 318.218C223.967 317.411 223.53 316.218 223.53 314.638V302.982H227.382V314.588C227.382 315.148 227.531 315.584 227.827 315.897C228.123 316.193 228.527 316.341 229.037 316.341C229.646 316.341 230.165 316.177 230.593 315.848L231.63 318.564C231.235 318.844 230.757 319.058 230.197 319.206C229.654 319.338 229.086 319.403 228.494 319.403ZM221.481 309.18V306.217H230.691V309.18H221.481ZM239.975 319.403C238.461 319.403 237.127 319.107 235.975 318.514C234.839 317.922 233.958 317.115 233.333 316.094C232.707 315.057 232.394 313.88 232.394 312.563C232.394 311.23 232.699 310.053 233.308 309.032C233.934 307.995 234.781 307.188 235.851 306.612C236.921 306.02 238.131 305.723 239.481 305.723C240.782 305.723 241.951 306.003 242.988 306.563C244.041 307.106 244.873 307.896 245.482 308.933C246.091 309.954 246.395 311.181 246.395 312.613C246.395 312.761 246.387 312.934 246.371 313.131C246.354 313.312 246.338 313.485 246.321 313.65H235.53V311.403H244.296L242.815 312.069C242.815 311.378 242.675 310.777 242.395 310.267C242.115 309.757 241.728 309.361 241.235 309.082C240.741 308.785 240.165 308.637 239.506 308.637C238.848 308.637 238.263 308.785 237.753 309.082C237.259 309.361 236.872 309.765 236.592 310.292C236.312 310.802 236.172 311.411 236.172 312.119V312.712C236.172 313.436 236.329 314.078 236.642 314.638C236.971 315.181 237.424 315.601 238 315.897C238.592 316.177 239.284 316.317 240.074 316.317C240.782 316.317 241.399 316.21 241.926 315.996C242.469 315.782 242.963 315.461 243.408 315.033L245.457 317.255C244.848 317.946 244.082 318.481 243.161 318.86C242.239 319.222 241.177 319.403 239.975 319.403ZM253.429 319.403C252.294 319.403 251.199 319.272 250.145 319.008C249.108 318.728 248.285 318.383 247.676 317.971L248.96 315.206C249.569 315.584 250.285 315.897 251.108 316.144C251.948 316.374 252.771 316.49 253.578 316.49C254.467 316.49 255.092 316.383 255.454 316.169C255.833 315.955 256.022 315.658 256.022 315.28C256.022 314.967 255.874 314.736 255.578 314.588C255.298 314.424 254.919 314.3 254.442 314.218C253.965 314.135 253.438 314.053 252.862 313.971C252.302 313.889 251.734 313.782 251.158 313.65C250.582 313.502 250.055 313.288 249.577 313.008C249.1 312.728 248.713 312.349 248.417 311.872C248.137 311.395 247.997 310.777 247.997 310.02C247.997 309.18 248.236 308.44 248.713 307.798C249.207 307.156 249.915 306.653 250.837 306.291C251.759 305.913 252.862 305.723 254.146 305.723C255.051 305.723 255.973 305.822 256.911 306.02C257.85 306.217 258.632 306.505 259.257 306.884L257.973 309.625C257.331 309.246 256.681 308.991 256.022 308.859C255.38 308.711 254.755 308.637 254.146 308.637C253.29 308.637 252.664 308.752 252.269 308.983C251.874 309.213 251.676 309.51 251.676 309.872C251.676 310.201 251.816 310.448 252.096 310.613C252.392 310.777 252.779 310.909 253.257 311.008C253.734 311.106 254.253 311.197 254.812 311.279C255.388 311.345 255.965 311.452 256.541 311.6C257.117 311.748 257.636 311.962 258.096 312.242C258.574 312.506 258.961 312.876 259.257 313.354C259.553 313.814 259.702 314.424 259.702 315.181C259.702 316.004 259.455 316.736 258.961 317.379C258.467 318.004 257.751 318.498 256.812 318.86C255.891 319.222 254.763 319.403 253.429 319.403Z" fill="#5C6284"/>
</g>
<g filter="url(#filter4_d_433_2164)">
<rect x="74.8015" y="110" width="145.57" height="109.018" rx="16.4621" fill="#CBACF8"/>
<path d="M164.547 128.449C164.214 128.112 163.817 127.845 163.379 127.662C162.942 127.48 162.472 127.387 161.998 127.388H152.117C151.469 127.389 150.847 127.646 150.387 128.103L130.633 147.852C129.959 148.528 129.581 149.443 129.581 150.397C129.581 151.351 129.959 152.267 130.633 152.942L140.038 162.347C140.714 163.021 141.629 163.4 142.584 163.4C143.538 163.4 144.454 163.021 145.129 162.347L164.875 142.605C165.333 142.146 165.59 141.524 165.592 140.876V130.989C165.595 130.518 165.504 130.05 165.325 129.614C165.145 129.178 164.881 128.782 164.547 128.449ZM157.875 137.677C157.367 137.677 156.869 137.526 156.446 137.243C156.023 136.961 155.694 136.559 155.499 136.089C155.304 135.619 155.253 135.102 155.353 134.603C155.452 134.104 155.697 133.646 156.057 133.286C156.416 132.926 156.875 132.681 157.374 132.582C157.873 132.483 158.39 132.534 158.86 132.728C159.33 132.923 159.732 133.253 160.014 133.676C160.297 134.099 160.448 134.596 160.448 135.105C160.448 135.787 160.177 136.441 159.694 136.923C159.212 137.406 158.558 137.677 157.875 137.677Z" fill="#2E3142"/>
<path d="M100.285 198.4C98.8526 198.4 97.5768 198.112 96.4574 197.535C95.3379 196.943 94.4572 196.128 93.8152 195.091C93.1896 194.054 92.8769 192.877 92.8769 191.56C92.8769 190.226 93.1896 189.049 93.8152 188.029C94.4572 186.991 95.3379 186.185 96.4574 185.609C97.5768 185.016 98.8526 184.72 100.285 184.72C101.684 184.72 102.902 185.016 103.939 185.609C104.976 186.185 105.742 187.016 106.236 188.103L103.248 189.708C102.902 189.082 102.466 188.621 101.939 188.325C101.429 188.029 100.869 187.88 100.26 187.88C99.6016 187.88 99.009 188.029 98.4822 188.325C97.9554 188.621 97.5356 189.041 97.2228 189.584C96.9265 190.127 96.7784 190.786 96.7784 191.56C96.7784 192.333 96.9265 192.992 97.2228 193.535C97.5356 194.078 97.9554 194.498 98.4822 194.794C99.009 195.091 99.6016 195.239 100.26 195.239C100.869 195.239 101.429 195.099 101.939 194.819C102.466 194.523 102.902 194.054 103.248 193.412L106.236 195.041C105.742 196.111 104.976 196.943 103.939 197.535C102.902 198.112 101.684 198.4 100.285 198.4ZM114.059 198.4C112.956 198.4 111.968 198.186 111.096 197.758C110.24 197.33 109.573 196.679 109.096 195.807C108.618 194.918 108.38 193.79 108.38 192.424V184.917H112.232V191.856C112.232 192.959 112.462 193.774 112.923 194.301C113.401 194.811 114.067 195.066 114.923 195.066C115.516 195.066 116.043 194.943 116.504 194.696C116.965 194.432 117.327 194.037 117.59 193.51C117.854 192.967 117.985 192.292 117.985 191.486V184.917H121.837V198.202H118.183V194.548L118.85 195.609C118.405 196.531 117.747 197.231 116.874 197.708C116.018 198.169 115.08 198.4 114.059 198.4ZM133.259 198.4C132.139 198.4 131.16 198.153 130.32 197.659C129.481 197.165 128.822 196.416 128.345 195.412C127.884 194.391 127.653 193.107 127.653 191.56C127.653 189.996 127.876 188.712 128.32 187.708C128.764 186.703 129.406 185.954 130.246 185.46C131.086 184.967 132.09 184.72 133.259 184.72C134.51 184.72 135.629 185.008 136.617 185.584C137.621 186.144 138.411 186.934 138.987 187.954C139.58 188.975 139.876 190.177 139.876 191.56C139.876 192.959 139.58 194.169 138.987 195.19C138.411 196.21 137.621 197 136.617 197.56C135.629 198.12 134.51 198.4 133.259 198.4ZM125.406 202.993V184.917H129.085V187.633L129.011 191.584L129.258 195.511V202.993H125.406ZM132.592 195.239C133.234 195.239 133.802 195.091 134.296 194.794C134.806 194.498 135.209 194.078 135.506 193.535C135.818 192.975 135.975 192.317 135.975 191.56C135.975 190.786 135.818 190.127 135.506 189.584C135.209 189.041 134.806 188.621 134.296 188.325C133.802 188.029 133.234 187.88 132.592 187.88C131.95 187.88 131.374 188.029 130.863 188.325C130.353 188.621 129.95 189.041 129.653 189.584C129.357 190.127 129.209 190.786 129.209 191.56C129.209 192.317 129.357 192.975 129.653 193.535C129.95 194.078 130.353 194.498 130.863 194.794C131.374 195.091 131.95 195.239 132.592 195.239ZM148.777 198.4C147.361 198.4 146.101 198.103 144.998 197.511C143.912 196.918 143.048 196.111 142.406 195.091C141.78 194.054 141.467 192.877 141.467 191.56C141.467 190.226 141.78 189.049 142.406 188.029C143.048 186.991 143.912 186.185 144.998 185.609C146.101 185.016 147.361 184.72 148.777 184.72C150.176 184.72 151.427 185.016 152.53 185.609C153.633 186.185 154.497 186.983 155.123 188.004C155.748 189.025 156.061 190.21 156.061 191.56C156.061 192.877 155.748 194.054 155.123 195.091C154.497 196.111 153.633 196.918 152.53 197.511C151.427 198.103 150.176 198.4 148.777 198.4ZM148.777 195.239C149.419 195.239 149.995 195.091 150.505 194.794C151.015 194.498 151.419 194.078 151.715 193.535C152.011 192.975 152.159 192.317 152.159 191.56C152.159 190.786 152.011 190.127 151.715 189.584C151.419 189.041 151.015 188.621 150.505 188.325C149.995 188.029 149.419 187.88 148.777 187.88C148.135 187.88 147.558 188.029 147.048 188.325C146.538 188.621 146.126 189.041 145.813 189.584C145.517 190.127 145.369 190.786 145.369 191.56C145.369 192.317 145.517 192.975 145.813 193.535C146.126 194.078 146.538 194.498 147.048 194.794C147.558 195.091 148.135 195.239 148.777 195.239ZM166.71 184.72C167.764 184.72 168.702 184.934 169.526 185.362C170.365 185.773 171.024 186.415 171.501 187.288C171.978 188.144 172.217 189.247 172.217 190.597V198.202H168.365V191.189C168.365 190.119 168.126 189.329 167.649 188.819C167.188 188.308 166.529 188.053 165.673 188.053C165.064 188.053 164.513 188.185 164.019 188.448C163.542 188.695 163.163 189.082 162.883 189.609C162.62 190.136 162.488 190.811 162.488 191.634V198.202H158.636V184.917H162.315V188.597L161.624 187.485C162.101 186.596 162.784 185.913 163.673 185.436C164.562 184.958 165.575 184.72 166.71 184.72ZM182.398 198.4C180.884 198.4 179.55 198.103 178.398 197.511C177.262 196.918 176.381 196.111 175.756 195.091C175.13 194.054 174.818 192.877 174.818 191.56C174.818 190.226 175.122 189.049 175.731 188.029C176.357 186.991 177.205 186.185 178.275 185.609C179.345 185.016 180.555 184.72 181.904 184.72C183.205 184.72 184.374 185 185.411 185.559C186.464 186.103 187.296 186.893 187.905 187.93C188.514 188.95 188.819 190.177 188.819 191.609C188.819 191.757 188.81 191.93 188.794 192.128C188.777 192.309 188.761 192.482 188.744 192.646H177.954V190.399H186.72L185.238 191.066C185.238 190.374 185.098 189.774 184.818 189.263C184.538 188.753 184.152 188.358 183.658 188.078C183.164 187.782 182.588 187.633 181.929 187.633C181.271 187.633 180.686 187.782 180.176 188.078C179.682 188.358 179.295 188.761 179.015 189.288C178.736 189.798 178.596 190.407 178.596 191.115V191.708C178.596 192.432 178.752 193.074 179.065 193.634C179.394 194.177 179.847 194.597 180.423 194.893C181.016 195.173 181.707 195.313 182.497 195.313C183.205 195.313 183.822 195.206 184.349 194.992C184.892 194.778 185.386 194.457 185.831 194.029L187.88 196.251C187.271 196.943 186.506 197.478 185.584 197.856C184.662 198.219 183.6 198.4 182.398 198.4ZM195.853 198.4C194.717 198.4 193.622 198.268 192.568 198.005C191.531 197.725 190.708 197.379 190.099 196.967L191.383 194.202C191.992 194.58 192.708 194.893 193.531 195.14C194.371 195.371 195.194 195.486 196.001 195.486C196.89 195.486 197.515 195.379 197.877 195.165C198.256 194.951 198.445 194.655 198.445 194.276C198.445 193.963 198.297 193.733 198.001 193.585C197.721 193.42 197.342 193.296 196.865 193.214C196.388 193.132 195.861 193.05 195.285 192.967C194.725 192.885 194.157 192.778 193.581 192.646C193.005 192.498 192.478 192.284 192.001 192.004C191.523 191.724 191.136 191.346 190.84 190.868C190.56 190.391 190.42 189.774 190.42 189.016C190.42 188.177 190.659 187.436 191.136 186.794C191.63 186.152 192.338 185.65 193.26 185.288C194.182 184.909 195.285 184.72 196.569 184.72C197.474 184.72 198.396 184.818 199.334 185.016C200.273 185.214 201.055 185.502 201.68 185.88L200.396 188.621C199.754 188.243 199.104 187.987 198.445 187.856C197.803 187.708 197.178 187.633 196.569 187.633C195.713 187.633 195.087 187.749 194.692 187.979C194.297 188.21 194.099 188.506 194.099 188.868C194.099 189.197 194.239 189.444 194.519 189.609C194.816 189.774 195.202 189.905 195.68 190.004C196.157 190.103 196.676 190.193 197.235 190.276C197.812 190.341 198.388 190.449 198.964 190.597C199.54 190.745 200.059 190.959 200.52 191.239C200.997 191.502 201.384 191.872 201.68 192.35C201.977 192.811 202.125 193.42 202.125 194.177C202.125 195 201.878 195.733 201.384 196.375C200.89 197 200.174 197.494 199.236 197.856C198.314 198.219 197.186 198.4 195.853 198.4Z" fill="#2E3142"/>
</g>
<defs>
<filter id="filter0_d_433_2164" x="216" y="114" width="154" height="123" filterUnits="userSpaceOnUse" color-interpolation-filters="sRGB">
<feFlood flood-opacity="0" result="BackgroundImageFix"/>
<feColorMatrix in="SourceAlpha" type="matrix" values="0 0 0 0 0 0 0 0 0 0 0 0 0 0 0 0 0 0 127 0" result="hardAlpha"/>
<feOffset dy="4"/>
<feGaussianBlur stdDeviation="7"/>
<feComposite in2="hardAlpha" operator="out"/>
<feColorMatrix type="matrix" values="0 0 0 0 0 0 0 0 0 0 0 0 0 0 0 0 0 0 0.25 0"/>
<feBlend mode="normal" in2="BackgroundImageFix" result="effect1_dropShadow_433_2164"/>
<feBlend mode="normal" in="SourceGraphic" in2="effect1_dropShadow_433_2164" result="shape"/>
</filter>
<filter id="filter1_d_433_2164" x="209.535" y="0.92905" width="162.929" height="129.097" filterUnits="userSpaceOnUse" color-interpolation-filters="sRGB">
<feFlood flood-opacity="0" result="BackgroundImageFix"/>
<feColorMatrix in="SourceAlpha" type="matrix" values="0 0 0 0 0 0 0 0 0 0 0 0 0 0 0 0 0 0 127 0" result="hardAlpha"/>
<feOffset dy="3.56129"/>
<feGaussianBlur stdDeviation="6.23226"/>
<feComposite in2="hardAlpha" operator="out"/>
<feColorMatrix type="matrix" values="0 0 0 0 0 0 0 0 0 0 0 0 0 0 0 0 0 0 0.25 0"/>
<feBlend mode="normal" in2="BackgroundImageFix" result="effect1_dropShadow_433_2164"/>
<feBlend mode="normal" in="SourceGraphic" in2="effect1_dropShadow_433_2164" result="shape"/>
</filter>
<filter id="filter2_d_433_2164" x="0.476535" y="221.126" width="139.617" height="133.91" filterUnits="userSpaceOnUse" color-interpolation-filters="sRGB">
<feFlood flood-opacity="0" result="BackgroundImageFix"/>
<feColorMatrix in="SourceAlpha" type="matrix" values="0 0 0 0 0 0 0 0 0 0 0 0 0 0 0 0 0 0 127 0" result="hardAlpha"/>
<feOffset dy="3.29242"/>
<feGaussianBlur stdDeviation="5.76173"/>
<feComposite in2="hardAlpha" operator="out"/>
<feColorMatrix type="matrix" values="0 0 0 0 0 0 0 0 0 0 0 0 0 0 0 0 0 0 0.25 0"/>
<feBlend mode="normal" in2="BackgroundImageFix" result="effect1_dropShadow_433_2164"/>
<feBlend mode="normal" in="SourceGraphic" in2="effect1_dropShadow_433_2164" result="shape"/>
</filter>
<filter id="filter3_d_433_2164" x="130.477" y="221.126" width="159.617" height="133.711" filterUnits="userSpaceOnUse" color-interpolation-filters="sRGB">
<feFlood flood-opacity="0" result="BackgroundImageFix"/>
<feColorMatrix in="SourceAlpha" type="matrix" values="0 0 0 0 0 0 0 0 0 0 0 0 0 0 0 0 0 0 127 0" result="hardAlpha"/>
<feOffset dy="3.29242"/>
<feGaussianBlur stdDeviation="5.76173"/>
<feComposite in2="hardAlpha" operator="out"/>
<feColorMatrix type="matrix" values="0 0 0 0 0 0 0 0 0 0 0 0 0 0 0 0 0 0 0.25 0"/>
<feBlend mode="normal" in2="BackgroundImageFix" result="effect1_dropShadow_433_2164"/>
<feBlend mode="normal" in="SourceGraphic" in2="effect1_dropShadow_433_2164" result="shape"/>
</filter>
<filter id="filter4_d_433_2164" x="63.278" y="101.769" width="168.617" height="132.065" filterUnits="userSpaceOnUse" color-interpolation-filters="sRGB">
<feFlood flood-opacity="0" result="BackgroundImageFix"/>
<feColorMatrix in="SourceAlpha" type="matrix" values="0 0 0 0 0 0 0 0 0 0 0 0 0 0 0 0 0 0 127 0" result="hardAlpha"/>
<feOffset dy="3.29242"/>
<feGaussianBlur stdDeviation="5.76173"/>
<feComposite in2="hardAlpha" operator="out"/>
<feColorMatrix type="matrix" values="0 0 0 0 0 0 0 0 0 0 0 0 0 0 0 0 0 0 0.25 0"/>
<feBlend mode="normal" in2="BackgroundImageFix" result="effect1_dropShadow_433_2164"/>
<feBlend mode="normal" in="SourceGraphic" in2="effect1_dropShadow_433_2164" result="shape"/>
</filter>
<clipPath id="clip0_433_2164">
<rect width="42" height="42" fill="white" transform="translate(272 133.5)"/>
</clipPath>
<clipPath id="clip1_433_2164">
<rect width="43" height="43" fill="white" transform="translate(269.5 24.9645)"/>
</clipPath>
</defs>
</svg>
