<svg width="44" height="35" viewBox="0 0 44 35" fill="none" xmlns="http://www.w3.org/2000/svg">
<path d="M3.98649 14C2.0573 14 0.5 15.5633 0.5 17.5C0.5 19.4367 2.0573 21 3.98649 21C5.91568 21 7.47297 19.4367 7.47297 17.5C7.47297 15.5633 5.91568 14 3.98649 14ZM3.98649 0C2.0573 0 0.5 1.56333 0.5 3.5C0.5 5.43667 2.0573 7 3.98649 7C5.91568 7 7.47297 5.43667 7.47297 3.5C7.47297 1.56333 5.91568 0 3.98649 0ZM3.98649 28C2.0573 28 0.5 29.5867 0.5 31.5C0.5 33.4133 2.08054 35 3.98649 35C5.89243 35 7.47297 33.4133 7.47297 31.5C7.47297 29.5867 5.91568 28 3.98649 28ZM10.9595 33.8333H43.5V29.1667H10.9595V33.8333ZM10.9595 19.8333H43.5V15.1667H10.9595V19.8333ZM10.9595 1.16667V5.83333H43.5V1.16667H10.9595Z" fill="white"/>
</svg>
