<svg width="48" height="42" viewBox="0 0 48 42" fill="none" xmlns="http://www.w3.org/2000/svg">
<path d="M44.2867 9.70951L26.485 0.711461C24.6061 -0.237154 22.3941 -0.237154 20.5152 0.711461L2.71348 9.70951C1.05091 10.5495 0 12.2645 0 14.14L0 23.6721C0 25.5476 1.05091 27.2626 2.71348 28.1034L12.1742 32.8799C13.0154 33.3045 13.8053 33.8269 14.528 34.4345L22.5341 41.1684L23.5196 42L24.5059 41.1684L32.512 34.4345C33.2339 33.8269 34.0238 33.3045 34.865 32.8799L44.3257 28.1034C45.9891 27.2626 47.0392 25.5476 47.04 23.6721V14.14C47.0317 12.2553 45.9651 10.5386 44.2867 9.70951Z" fill="#CBACF8"/>
<path d="M23.3909 10.4533C18.8824 10.4533 14.2577 13.0627 10.6169 18.2815C10.513 18.4321 10.456 18.6102 10.4532 18.7931C10.4505 18.9761 10.502 19.1558 10.6013 19.3095C13.3987 23.6884 17.9615 27.1128 23.3909 27.1128C28.7613 27.1128 33.4179 23.678 36.2205 19.2892C36.3175 19.1385 36.369 18.9631 36.369 18.7839C36.369 18.6047 36.3175 18.4293 36.2205 18.2787C33.4115 13.9402 28.7208 10.4533 23.3909 10.4533Z" stroke="#2E3142" stroke-width="1.85106" stroke-linecap="round" stroke-linejoin="round"/>
<path d="M23.5208 24.5653C26.6961 24.5653 29.2702 21.9913 29.2702 18.816C29.2702 15.6407 26.6961 13.0667 23.5208 13.0667C20.3455 13.0667 17.7715 15.6407 17.7715 18.816C17.7715 21.9913 20.3455 24.5653 23.5208 24.5653Z" stroke="#2E3142" stroke-width="1.85106" stroke-miterlimit="10"/>
</svg>
