<svg width="47" height="42" viewBox="0 0 47 42" fill="none" xmlns="http://www.w3.org/2000/svg">
<path d="M43.4372 10.1286L26.2962 1.46447C24.487 0.551067 22.3571 0.551067 20.5479 1.46447L3.4069 10.1286C1.80604 10.9373 0.794128 12.5887 0.794128 14.3946L0.794128 23.5729C0.794128 25.3788 1.80604 27.0302 3.4069 27.8398L12.5165 32.439C13.3265 32.8478 14.087 33.3508 14.7829 33.9359L22.4919 40.4199L23.4408 41.2206L24.3905 40.4199L32.0995 33.9359C32.7946 33.3508 33.5551 32.8478 34.3651 32.439L43.4747 27.8398C45.0763 27.0302 46.0874 25.3788 46.0882 23.5729V14.3946C46.0803 12.5799 45.0532 10.9269 43.4372 10.1286Z" fill="#CBACF8"/>
<path d="M31.9661 13.8718C31.9661 15.1416 30.8575 16.2488 29.391 16.2488C27.9244 16.2488 26.8158 15.1416 26.8158 13.8718C26.8158 12.6021 27.9244 11.4949 29.391 11.4949C30.8575 11.4949 31.9661 12.6021 31.9661 13.8718Z" stroke="#2E3142" stroke-width="1.5098"/>
<path d="M22.5572 11.2846C22.5572 12.7354 21.2925 13.9892 19.6336 13.9892C17.9747 13.9892 16.71 12.7354 16.71 11.2846C16.71 9.83385 17.9747 8.57998 19.6336 8.57998C21.2925 8.57998 22.5572 9.83385 22.5572 11.2846Z" stroke="#2E3142" stroke-width="1.5098"/>
<path d="M34.4869 26.683L34.4865 26.6836C34.1439 27.15 33.4972 27.4373 32.4522 27.6277L32.4518 27.6278C31.5613 27.7905 30.5274 27.8407 29.391 27.8407C28.2542 27.8407 27.2208 27.7905 26.3303 27.6278L26.3299 27.6277C25.2849 27.4373 24.6382 27.15 24.2956 26.6836L24.2952 26.683C24.0792 26.3895 23.9361 25.9496 23.9361 25.252C23.9361 23.9121 24.519 22.8873 25.4693 22.1759C26.4395 21.4496 27.822 21.0334 29.391 21.0334C30.9601 21.0334 32.3426 21.4496 33.3128 22.1759C34.2631 22.8873 34.846 23.9121 34.846 25.252C34.846 25.9496 34.7029 26.3895 34.4869 26.683Z" stroke="#2E3142" stroke-width="1.5098"/>
<path d="M19.6334 17.7893C21.1257 17.7893 22.4952 18.0765 23.641 18.6018C21.363 19.978 19.8709 22.2711 19.8709 25.252C19.8709 26.3641 20.0858 27.3109 20.4747 28.1121C20.1992 28.1185 19.9186 28.1214 19.6334 28.1214C17.3561 28.1214 15.4422 27.9332 14.113 27.2952C13.467 26.9851 12.9825 26.5792 12.6538 26.0518C12.3245 25.5234 12.1177 24.8184 12.1177 23.8555C12.1177 21.9505 12.9298 20.4614 14.2508 19.4301C15.5887 18.3858 17.4823 17.7893 19.6334 17.7893Z" stroke="#2E3142" stroke-width="1.5098"/>
</svg>
