<svg width="46" height="42" viewBox="0 0 46 42" fill="none" xmlns="http://www.w3.org/2000/svg">
<path d="M43.143 10.1286L26.002 1.46447C24.1929 0.551067 22.0629 0.551067 20.2538 1.46447L3.11277 10.1286C1.51191 10.9373 0.5 12.5887 0.5 14.3946L0.5 23.5729C0.5 25.3788 1.51191 27.0302 3.11277 27.8398L12.2223 32.439C13.0324 32.8478 13.7929 33.3508 14.4888 33.9359L22.1978 40.4199L23.1467 41.2206L24.0963 40.4199L31.8053 33.9359C32.5004 33.3508 33.261 32.8478 34.071 32.439L43.1805 27.8398C44.7822 27.0302 45.7933 25.3788 45.7941 23.5729V14.3946C45.7861 12.5799 44.7591 10.9269 43.143 10.1286Z" fill="#CBACF8"/>
<path d="M18.9454 26.5623H14.9012C13.0839 26.5623 11.341 25.8404 10.056 24.5553C8.77095 23.2703 8.04903 21.5274 8.04903 19.7101C8.04903 17.8928 8.77095 16.1499 10.056 14.8649C11.341 13.5798 13.0839 12.8579 14.9012 12.8579H18.8562M26.9347 12.8579H30.8896C32.707 12.8579 34.4498 13.5798 35.7349 14.8649C37.0199 16.1499 37.7418 17.8928 37.7418 19.7101C37.7418 21.5274 37.0199 23.2703 35.7349 24.5553C34.4498 25.8404 32.707 26.5623 30.8896 26.5623H26.8454M16.6906 19.7101H29.243" stroke="#2E3142" stroke-width="2.51634" stroke-linecap="round" stroke-linejoin="round"/>
</svg>
