<svg width="46" height="42" viewBox="0 0 46 42" fill="none" xmlns="http://www.w3.org/2000/svg">
<path d="M42.643 10.1286L25.502 1.46447C23.6929 0.551067 21.5629 0.551067 19.7538 1.46447L2.61277 10.1286C1.01191 10.9373 0 12.5887 0 14.3946L0 23.5729C0 25.3788 1.01191 27.0302 2.61277 27.8398L11.7223 32.439C12.5324 32.8478 13.2929 33.3508 13.9888 33.9359L21.6978 40.4199L22.6467 41.2206L23.5963 40.4199L31.3053 33.9359C32.0004 33.3508 32.761 32.8478 33.571 32.439L42.6805 27.8398C44.2822 27.0302 45.2933 25.3788 45.2941 23.5729V14.3946C45.2861 12.5799 44.2591 10.9269 42.643 10.1286Z" fill="#CBACF8"/>
<path d="M34.2596 21.0123H11.1363C11.7606 15.1817 16.7027 10.6341 22.6979 10.6341C28.6932 10.6341 33.6353 15.1817 34.2596 21.0123Z" stroke="#2E3142" stroke-width="1.5098"/>
<path d="M10.6414 24.8026C10.8442 24.504 10.9935 24.1815 11.0651 23.8414H34.1974C34.2301 24.1203 34.3247 24.393 34.4725 24.652C34.7844 25.1982 35.323 25.6734 35.9631 26.096C36.1276 26.2084 36.2641 26.3521 36.3667 26.5163H8.8528C8.89218 26.4273 8.95571 26.3494 9.03812 26.2926C9.71255 25.8368 10.2737 25.3438 10.6414 24.8026Z" stroke="#2E3142" stroke-width="1.5098"/>
<mask id="path-4-inside-1_615_2339" fill="white">
<path d="M23.834 5.99188H21.5616V7.23613H23.834V5.99188Z"/>
</mask>
<path d="M21.5616 5.99188V4.48208H20.0518V5.99188H21.5616ZM23.834 5.99188H25.3439V4.48208H23.834V5.99188ZM23.834 7.23613V8.74594H25.3439V7.23613H23.834ZM21.5616 7.23613H20.0518V8.74594H21.5616V7.23613ZM21.5616 7.50169H23.834V4.48208H21.5616V7.50169ZM22.3242 5.99188V7.23613H25.3439V5.99188H22.3242ZM23.834 5.72633H21.5616V8.74594H23.834V5.72633ZM23.0714 7.23613V5.99188H20.0518V7.23613H23.0714Z" fill="#2E3142" mask="url(#path-4-inside-1_615_2339)"/>
<path d="M23.2964 8.52596C23.2964 8.85642 23.0285 9.1243 22.6981 9.1243C22.3676 9.1243 22.0998 8.85642 22.0998 8.52596C22.0998 8.1955 22.3676 7.92762 22.6981 7.92762C23.0285 7.92762 23.2964 8.1955 23.2964 8.52596Z" stroke="#2E3142" stroke-width="1.5098"/>
</svg>
