<svg width="56" height="55" viewBox="0 0 56 55" fill="none" xmlns="http://www.w3.org/2000/svg">
<g clip-path="url(#clip0_604_3038)">
<path d="M41.1972 31.6038C41.0901 31.5524 37.0804 29.5779 36.3679 29.3215C36.077 29.217 35.7654 29.115 35.434 29.115C34.8926 29.115 34.4377 29.3849 34.0835 29.9149C33.6829 30.5102 32.4704 31.9275 32.0958 32.3509C32.0468 32.4068 31.9801 32.4736 31.9401 32.4736C31.9042 32.4736 31.2836 32.2181 31.0958 32.1365C26.7945 30.2681 23.5297 25.775 23.082 25.0174C23.0181 24.9084 23.0154 24.859 23.0149 24.859C23.0306 24.8013 23.1752 24.6563 23.2499 24.5815C23.4683 24.3654 23.7049 24.0806 23.9338 23.805C24.0422 23.6745 24.1508 23.5438 24.2574 23.4206C24.5895 23.0341 24.7374 22.7341 24.9088 22.3866L24.9986 22.2061C25.4172 21.3745 25.0597 20.6727 24.9442 20.4461C24.8493 20.2565 23.1563 16.1704 22.9763 15.7411C22.5435 14.7052 21.9715 14.2229 21.1767 14.2229C21.1029 14.2229 21.1767 14.2229 20.8674 14.2359C20.4908 14.2518 18.4399 14.5218 17.5331 15.0934C16.5715 15.6997 14.9447 17.6322 14.9447 21.0308C14.9447 24.0895 16.8858 26.9775 17.7192 28.0759C17.7399 28.1036 17.7779 28.1599 17.8331 28.2406C21.0247 32.9016 25.0035 36.3559 29.0368 37.9672C32.9199 39.5183 34.7586 39.6975 35.804 39.6975H35.8042C36.2435 39.6975 36.5951 39.6631 36.9052 39.6325L37.102 39.6138C38.4434 39.4949 41.3913 37.9674 42.0618 36.104C42.5901 34.6363 42.7293 33.0327 42.3779 32.4508C42.1372 32.055 41.7224 31.8559 41.1972 31.6038Z" fill="white"/>
<path d="M28.4882 0C13.5925 0 1.47389 12.0275 1.47389 26.8113C1.47389 31.5929 2.75353 36.2734 5.17764 40.3698L0.537816 54.0564C0.451387 54.3116 0.515673 54.5938 0.704423 54.7859C0.840673 54.925 1.02549 55 1.21424 55C1.28657 55 1.35942 54.9891 1.43049 54.9664L15.7019 50.4314C19.6073 52.518 24.0212 53.6195 28.4883 53.6195C43.3826 53.6196 55.5 41.5934 55.5 26.8113C55.5 12.0275 43.3826 0 28.4882 0ZM28.4882 48.0346C24.2848 48.0346 20.2135 46.8209 16.7139 44.5245C16.5962 44.4471 16.4596 44.4075 16.3221 44.4075C16.2494 44.4075 16.1766 44.4186 16.1057 44.4411L8.95656 46.7136L11.2644 39.9048C11.3391 39.6845 11.3017 39.4414 11.1642 39.2536C8.49924 35.6121 7.09049 31.3098 7.09049 26.8113C7.09049 15.1071 16.6894 5.585 28.488 5.585C40.2851 5.585 49.883 15.1071 49.883 26.8113C49.8832 38.5139 40.2855 48.0346 28.4882 48.0346Z" fill="white"/>
</g>
<defs>
<clipPath id="clip0_604_3038">
<rect width="55" height="55" fill="white" transform="translate(0.5)"/>
</clipPath>
</defs>
</svg>
