<svg width="46" height="42" viewBox="0 0 46 42" fill="none" xmlns="http://www.w3.org/2000/svg">
<path d="M43.143 10.1286L26.002 1.46447C24.1929 0.551067 22.0629 0.551067 20.2538 1.46447L3.11277 10.1286C1.51191 10.9373 0.5 12.5887 0.5 14.3946L0.5 23.5729C0.5 25.3788 1.51191 27.0302 3.11277 27.8398L12.2223 32.439C13.0324 32.8478 13.7929 33.3508 14.4888 33.9359L22.1978 40.4199L23.1467 41.2206L24.0963 40.4199L31.8053 33.9359C32.5004 33.3508 33.261 32.8478 34.071 32.439L43.1805 27.8398C44.7822 27.0302 45.7933 25.3788 45.7941 23.5729V14.3946C45.7861 12.5799 44.7591 10.9269 43.143 10.1286Z" fill="#CBACF8"/>
<path d="M20.1274 13.3611H32.7091M20.1274 20.2027H32.7091M20.1274 26.9493H32.7091" stroke="#2E3142" stroke-width="2.51634" stroke-linecap="round" stroke-linejoin="round"/>
<path d="M14.8431 14.3677C15.538 14.3677 16.1013 13.8044 16.1013 13.1095C16.1013 12.4146 15.538 11.8513 14.8431 11.8513C14.1483 11.8513 13.585 12.4146 13.585 13.1095C13.585 13.8044 14.1483 14.3677 14.8431 14.3677Z" stroke="#2E3142" stroke-width="1.00654" stroke-linecap="round" stroke-linejoin="round"/>
<path d="M14.8431 20.9101C15.26 20.9101 15.598 20.5721 15.598 20.1552C15.598 19.7382 15.26 19.4003 14.8431 19.4003C14.4262 19.4003 14.0882 19.7382 14.0882 20.1552C14.0882 20.5721 14.4262 20.9101 14.8431 20.9101Z" fill="#2E3142" stroke="#2E3142" stroke-width="2.51634" stroke-linecap="round" stroke-linejoin="round"/>
<path d="M14.8431 28.4591C15.538 28.4591 16.1013 27.8958 16.1013 27.2009C16.1013 26.5061 15.538 25.9428 14.8431 25.9428C14.1483 25.9428 13.585 26.5061 13.585 27.2009C13.585 27.8958 14.1483 28.4591 14.8431 28.4591Z" stroke="#2E3142" stroke-width="1.00654" stroke-linecap="round" stroke-linejoin="round"/>
</svg>
