<svg width="38" height="37" viewBox="0 0 38 37" fill="none" xmlns="http://www.w3.org/2000/svg">
<path d="M35.4444 25.6944C32.875 25.6944 30.4083 25.2833 28.1061 24.5228C27.3867 24.2967 26.585 24.4611 26.0094 25.0161L21.4872 29.5383C15.67 26.5783 10.9011 21.83 7.94111 16.0128L12.4633 11.47C13.0389 10.915 13.2033 10.1133 12.9772 9.39389C12.2167 7.09167 11.8056 4.625 11.8056 2.05556C11.8056 0.925 10.8806 0 9.75 0H2.55556C1.425 0 0.5 0.925 0.5 2.05556C0.5 21.3572 16.1428 37 35.4444 37C36.575 37 37.5 36.075 37.5 34.9444V27.75C37.5 26.6194 36.575 25.6944 35.4444 25.6944ZM19 0V20.5556L25.1667 14.3889H37.5V0H19Z" fill="white"/>
</svg>
