<svg width="46" height="42" viewBox="0 0 46 42" fill="none" xmlns="http://www.w3.org/2000/svg">
<path d="M42.8662 10.1991L25.8364 1.59125C24.039 0.683776 21.9229 0.683776 20.1255 1.59125L3.0958 10.1991C1.50534 11.0026 0.5 12.6433 0.5 14.4374L0.5 23.5562C0.5 25.3503 1.50534 26.991 3.0958 27.7953L12.1462 32.3647C12.951 32.7708 13.7066 33.2705 14.3979 33.8518L22.0569 40.2937L22.9996 41.0892L23.9431 40.2937L31.6021 33.8518C32.2927 33.2705 33.0482 32.7708 33.853 32.3647L42.9034 27.7953C44.4947 26.991 45.4992 25.3503 45.5 23.5562V14.4374C45.4921 12.6345 44.4717 10.9922 42.8662 10.1991Z" fill="#CBACF8"/>
<path d="M11.31 22.9906C11.0433 22.9906 10.8133 22.9006 10.62 22.7206C10.4333 22.534 10.34 22.2973 10.34 22.0106C10.34 21.724 10.4333 21.494 10.62 21.3206C10.8133 21.1406 11.0433 21.0506 11.31 21.0506C11.5833 21.0506 11.8133 21.1406 12 21.3206C12.1867 21.494 12.28 21.724 12.28 22.0106C12.28 22.2973 12.1867 22.534 12 22.7206C11.8133 22.9006 11.5833 22.9906 11.31 22.9906ZM15.8688 22.9906C15.2888 22.9906 14.7722 22.874 14.3188 22.6406C13.8655 22.4006 13.5088 22.0706 13.2488 21.6506C12.9955 21.2306 12.8688 20.754 12.8688 20.2206C12.8688 19.6806 12.9955 19.204 13.2488 18.7906C13.5088 18.3706 13.8655 18.044 14.3188 17.8106C14.7722 17.5706 15.2888 17.4506 15.8688 17.4506C16.4355 17.4506 16.9288 17.5706 17.3488 17.8106C17.7688 18.044 18.0788 18.3806 18.2788 18.8206L17.0688 19.4706C16.9288 19.2173 16.7522 19.0306 16.5388 18.9106C16.3322 18.7906 16.1055 18.7306 15.8588 18.7306C15.5922 18.7306 15.3522 18.7906 15.1388 18.9106C14.9255 19.0306 14.7555 19.2006 14.6288 19.4206C14.5088 19.6406 14.4488 19.9073 14.4488 20.2206C14.4488 20.534 14.5088 20.8006 14.6288 21.0206C14.7555 21.2406 14.9255 21.4106 15.1388 21.5306C15.3522 21.6506 15.5922 21.7106 15.8588 21.7106C16.1055 21.7106 16.3322 21.654 16.5388 21.5406C16.7522 21.4206 16.9288 21.2306 17.0688 20.9706L18.2788 21.6306C18.0788 22.064 17.7688 22.4006 17.3488 22.6406C16.9288 22.874 16.4355 22.9906 15.8688 22.9906ZM21.6687 22.9906C21.0953 22.9906 20.5853 22.8706 20.1387 22.6306C19.6987 22.3906 19.3487 22.064 19.0887 21.6506C18.8353 21.2306 18.7087 20.754 18.7087 20.2206C18.7087 19.6806 18.8353 19.204 19.0887 18.7906C19.3487 18.3706 19.6987 18.044 20.1387 17.8106C20.5853 17.5706 21.0953 17.4506 21.6687 17.4506C22.2353 17.4506 22.742 17.5706 23.1887 17.8106C23.6353 18.044 23.9853 18.3673 24.2387 18.7806C24.492 19.194 24.6187 19.674 24.6187 20.2206C24.6187 20.754 24.492 21.2306 24.2387 21.6506C23.9853 22.064 23.6353 22.3906 23.1887 22.6306C22.742 22.8706 22.2353 22.9906 21.6687 22.9906ZM21.6687 21.7106C21.9287 21.7106 22.162 21.6506 22.3687 21.5306C22.5753 21.4106 22.7387 21.2406 22.8587 21.0206C22.9787 20.794 23.0387 20.5273 23.0387 20.2206C23.0387 19.9073 22.9787 19.6406 22.8587 19.4206C22.7387 19.2006 22.5753 19.0306 22.3687 18.9106C22.162 18.7906 21.9287 18.7306 21.6687 18.7306C21.4087 18.7306 21.1753 18.7906 20.9687 18.9106C20.762 19.0306 20.5953 19.2006 20.4687 19.4206C20.3487 19.6406 20.2887 19.9073 20.2887 20.2206C20.2887 20.5273 20.3487 20.794 20.4687 21.0206C20.5953 21.2406 20.762 21.4106 20.9687 21.5306C21.1753 21.6506 21.4087 21.7106 21.6687 21.7106ZM32.5514 17.4506C32.9781 17.4506 33.3547 17.5373 33.6814 17.7106C34.0147 17.8773 34.2747 18.1373 34.4614 18.4906C34.6547 18.8373 34.7514 19.284 34.7514 19.8306V22.9106H33.1914V20.0706C33.1914 19.6373 33.1014 19.3173 32.9214 19.1106C32.7414 18.904 32.4881 18.8006 32.1614 18.8006C31.9347 18.8006 31.7314 18.854 31.5514 18.9606C31.3714 19.0606 31.2314 19.214 31.1314 19.4206C31.0314 19.6273 30.9814 19.8906 30.9814 20.2106V22.9106H29.4214V20.0706C29.4214 19.6373 29.3314 19.3173 29.1514 19.1106C28.9781 18.904 28.7281 18.8006 28.4014 18.8006C28.1747 18.8006 27.9714 18.854 27.7914 18.9606C27.6114 19.0606 27.4714 19.214 27.3714 19.4206C27.2714 19.6273 27.2214 19.8906 27.2214 20.2106V22.9106H25.6614V17.5306H27.1514V19.0006L26.8714 18.5706C27.0581 18.204 27.3214 17.9273 27.6614 17.7406C28.0081 17.5473 28.4014 17.4506 28.8414 17.4506C29.3347 17.4506 29.7647 17.5773 30.1314 17.8306C30.5047 18.0773 30.7514 18.4573 30.8714 18.9706L30.3214 18.8206C30.5014 18.4006 30.7881 18.0673 31.1814 17.8206C31.5814 17.574 32.0381 17.4506 32.5514 17.4506Z" fill="#2E3142"/>
</svg>
