<svg width="46" height="42" viewBox="0 0 46 42" fill="none" xmlns="http://www.w3.org/2000/svg">
<path d="M43.143 10.1286L26.002 1.46447C24.1929 0.551067 22.0629 0.551067 20.2538 1.46447L3.11277 10.1286C1.51191 10.9373 0.5 12.5887 0.5 14.3946L0.5 23.5729C0.5 25.3788 1.51191 27.0302 3.11277 27.8398L12.2223 32.439C13.0324 32.8478 13.7929 33.3508 14.4888 33.9359L22.1978 40.4199L23.1467 41.2206L24.0963 40.4199L31.8053 33.9359C32.5004 33.3508 33.261 32.8478 34.071 32.439L43.1805 27.8398C44.7822 27.0302 45.7933 25.3788 45.7941 23.5729V14.3946C45.7861 12.5799 44.7591 10.9269 43.143 10.1286Z" fill="#CBACF8"/>
<path d="M14.0882 13.6128H14.8431V12.8579V8.83173C14.8431 8.69506 14.9581 8.5801 15.0948 8.5801C15.2314 8.5801 15.3464 8.69506 15.3464 8.83173V12.8579V13.6128H16.1013H17.3595V18.1422H12.8301V13.6128H14.0882ZM22.8954 25.7617V25.2321L22.3975 25.0519C21.5109 24.7309 20.8824 23.8953 20.8824 22.9232V21.6651H25.4118V22.9232C25.4118 23.9079 24.7814 24.7391 23.902 25.0499L23.3987 25.2278V25.7617V29.2141H22.8954V25.7617ZM14.8431 25.7617V25.2321L14.3452 25.0519C13.4587 24.7309 12.8301 23.8953 12.8301 22.9232V21.6651H17.3595V22.9232C17.3595 23.8953 16.7309 24.7309 15.8443 25.0519L15.3464 25.2321V25.7617V29.2141H14.8431V25.7617ZM31.451 12.8579V13.6128H32.2059H33.4641V18.1422H28.9346V13.6128H30.1928H30.9477V12.8579V8.83173C30.9477 8.69506 31.0627 8.5801 31.1993 8.5801C31.336 8.5801 31.451 8.69506 31.451 8.83173V12.8579ZM22.1405 13.6128H22.8954V12.8579V8.83173C22.8954 8.69506 23.0104 8.5801 23.1471 8.5801C23.2837 8.5801 23.3987 8.69506 23.3987 8.83173V12.8579V13.6128H24.1536H25.4118V18.1422H20.8824V13.6128H22.1405ZM30.9477 25.7617V25.2321L30.4498 25.0519C29.5632 24.7309 28.9346 23.8953 28.9346 22.9232V21.6651H33.4641V22.9232C33.4641 23.9079 32.8337 24.7391 31.9543 25.0499L31.451 25.2278V25.7617V29.2141H30.9477V25.7617Z" stroke="#2E3142" stroke-width="1.5098"/>
</svg>
