<svg width="45" height="45" viewBox="0 0 45 45" fill="none" xmlns="http://www.w3.org/2000/svg">
<path d="M31.8747 3.74967C34.359 3.75708 36.7394 4.74726 38.4961 6.50393C40.2527 8.2606 41.2429 10.641 41.2503 13.1253V31.8747C41.2429 34.359 40.2527 36.7394 38.4961 38.4961C36.7394 40.2527 34.359 41.2429 31.8747 41.2503H13.1253C10.641 41.2429 8.2606 40.2527 6.50393 38.4961C4.74726 36.7394 3.75708 34.359 3.74967 31.8747V13.1253C3.75708 10.641 4.74726 8.2606 6.50393 6.50393C8.2606 4.74726 10.641 3.75708 13.1253 3.74967H31.8747ZM31.8747 0H13.1253C5.90625 0 0 5.90625 0 13.1253V31.8747C0 39.0937 5.90625 45 13.1253 45H31.8747C39.0937 45 45 39.0937 45 31.8747V13.1253C45 5.90625 39.0937 0 31.8747 0Z" fill="#5C6284"/>
<path d="M34.6875 13.1251C34.1312 13.1251 33.5874 12.9601 33.1249 12.6511C32.6624 12.342 32.3019 11.9028 32.089 11.3888C31.8761 10.8749 31.8204 10.3094 31.929 9.76384C32.0375 9.21826 32.3054 8.71711 32.6987 8.32377C33.092 7.93043 33.5932 7.66257 34.1388 7.55404C34.6843 7.44552 35.2498 7.50122 35.7638 7.71409C36.2777 7.92697 36.7169 8.28746 37.026 8.74998C37.335 9.21249 37.5 9.75627 37.5 10.3125C37.5008 10.6821 37.4286 11.0482 37.2875 11.3898C37.1465 11.7314 36.9393 12.0417 36.678 12.3031C36.4167 12.5644 36.1063 12.7715 35.7647 12.9126C35.4231 13.0537 35.057 13.1259 34.6875 13.1251ZM22.5001 14.9994C23.9836 14.9994 25.4337 15.4393 26.6672 16.2635C27.9006 17.0876 28.8619 18.259 29.4296 19.6296C29.9973 21.0001 30.1459 22.5082 29.8565 23.9631C29.567 25.4181 28.8527 26.7545 27.8037 27.8035C26.7548 28.8524 25.4183 29.5668 23.9634 29.8562C22.5085 30.1456 21.0004 29.997 19.6299 29.4293C18.2593 28.8617 17.0879 27.9003 16.2638 26.6669C15.4396 25.4334 14.9997 23.9833 14.9997 22.4999C15.0018 20.5113 15.7927 18.6047 17.1989 17.1986C18.605 15.7925 20.5116 15.0016 22.5001 14.9994ZM22.5001 11.2497C20.2751 11.2497 18.1 11.9095 16.2499 13.1457C14.3998 14.3819 12.9579 16.1389 12.1064 18.1946C11.2549 20.2503 11.0321 22.5123 11.4662 24.6946C11.9003 26.877 12.9717 28.8815 14.5451 30.4549C16.1185 32.0283 18.123 33.0997 20.3054 33.5338C22.4877 33.9679 24.7497 33.7451 26.8054 32.8936C28.8611 32.0421 30.6181 30.6002 31.8543 28.7501C33.0905 26.9 33.7503 24.7249 33.7503 22.4999C33.7503 19.5161 32.565 16.6546 30.4552 14.5448C28.3454 12.435 25.4839 11.2497 22.5001 11.2497Z" fill="#5C6284"/>
</svg>
