<svg width="82" height="33" viewBox="0 0 82 33" fill="none" xmlns="http://www.w3.org/2000/svg">
<path d="M35.4255 11.8693C35.4255 10.3376 36.034 8.86872 37.117 7.78569C38.2 6.70265 39.669 6.0942 41.2006 6.0942C42.7322 6.0942 44.2012 6.70265 45.2842 7.78569C46.3672 8.86872 46.9757 10.3376 46.9757 11.8693M75.8511 6.0942H78.7386M75.8511 6.0942C75.8511 23.4194 72.9635 29.1945 61.4134 29.1945C49.8632 29.1945 46.9757 23.4194 46.9757 6.0942C46.9757 6.0942 49.8632 3.20667 61.4134 3.20667C72.9635 3.20667 75.8511 6.0942 75.8511 6.0942ZM6.55014 6.0942H3.6626M6.55014 6.0942C6.55014 23.4194 9.43768 29.1945 20.9878 29.1945C32.538 29.1945 35.4255 23.4194 35.4255 6.0942C35.4255 6.0942 32.538 3.20667 20.9878 3.20667C9.43768 3.20667 6.55014 6.0942 6.55014 6.0942Z" stroke="#CBACF8" stroke-width="5.77508" stroke-linecap="round" stroke-linejoin="round"/>
</svg>
