<svg width="23" height="23" viewBox="0 0 23 23" fill="none" xmlns="http://www.w3.org/2000/svg">
<circle cx="11" cy="11" r="10" fill="#5C6284"/>
<path d="M8.15625 16.75C7.96438 16.7496 7.77591 16.6993 7.60938 16.604C7.23438 16.3915 7.00125 15.979 7.00125 15.5312V6.46874C7.00125 6.01967 7.23438 5.60842 7.60938 5.39592C7.77988 5.29794 7.97357 5.24754 8.17021 5.25002C8.36684 5.25249 8.55921 5.30774 8.72719 5.40999L16.4725 10.0462C16.6339 10.1475 16.767 10.288 16.8592 10.4547C16.9515 10.6214 16.9999 10.8088 16.9999 10.9994C16.9999 11.1899 16.9515 11.3773 16.8592 11.544C16.767 11.7107 16.6339 11.8513 16.4725 11.9525L8.72594 16.59C8.55403 16.6939 8.35713 16.7492 8.15625 16.75Z" fill="#FFBA6D"/>
</svg>
