<svg width="298" height="229" viewBox="0 0 298 229" fill="none" xmlns="http://www.w3.org/2000/svg">
<rect y="226.412" width="97.0339" height="97.0339" rx="20" transform="rotate(-90 0 226.412)" fill="#FFBA6D"/>
<path d="M34.5352 169C33.4968 169 32.4818 168.692 31.6184 168.115C30.7551 167.538 30.0822 166.718 29.6848 165.759C29.2874 164.8 29.1835 163.744 29.386 162.726C29.5886 161.707 30.0886 160.772 30.8228 160.038C31.5571 159.303 32.4925 158.803 33.5109 158.601C34.5293 158.398 35.5849 158.502 36.5442 158.9C37.5036 159.297 38.3235 159.97 38.9004 160.833C39.4773 161.697 39.7852 162.712 39.7852 163.75C39.7837 165.142 39.2301 166.476 38.2458 167.461C37.2616 168.445 35.9271 168.999 34.5352 169ZM48.7852 169C47.7468 169 46.7318 168.692 45.8684 168.115C45.0051 167.538 44.3322 166.718 43.9348 165.759C43.5374 164.8 43.4335 163.744 43.636 162.726C43.8386 161.707 44.3386 160.772 45.0728 160.038C45.8071 159.303 46.7425 158.803 47.7609 158.601C48.7793 158.398 49.8349 158.502 50.7942 158.9C51.7536 159.297 52.5735 159.97 53.1504 160.833C53.7273 161.697 54.0352 162.712 54.0352 163.75C54.0337 165.142 53.4801 166.476 52.4958 167.461C51.5116 168.445 50.1771 168.999 48.7852 169ZM63.0352 169C61.9968 169 60.9818 168.692 60.1184 168.115C59.2551 167.538 58.5822 166.718 58.1848 165.759C57.7874 164.8 57.6835 163.744 57.886 162.726C58.0886 161.707 58.5886 160.772 59.3228 160.038C60.0571 159.303 60.9925 158.803 62.0109 158.601C63.0293 158.398 64.0849 158.502 65.0442 158.9C66.0036 159.297 66.8235 159.97 67.4004 160.833C67.9773 161.697 68.2852 162.712 68.2852 163.75C68.2837 165.142 67.7301 166.476 66.7458 167.461C65.7616 168.445 64.4271 168.999 63.0352 169ZM34.5352 183.25C33.4968 183.25 32.4818 182.942 31.6184 182.365C30.7551 181.788 30.0822 180.968 29.6848 180.009C29.2874 179.05 29.1835 177.994 29.386 176.976C29.5886 175.957 30.0886 175.022 30.8228 174.288C31.5571 173.553 32.4925 173.053 33.5109 172.851C34.5293 172.648 35.5849 172.752 36.5442 173.15C37.5036 173.547 38.3235 174.22 38.9004 175.083C39.4773 175.947 39.7852 176.962 39.7852 178C39.7837 179.392 39.2301 180.726 38.2458 181.711C37.2616 182.695 35.9271 183.249 34.5352 183.25ZM48.7852 183.25C47.7468 183.25 46.7318 182.942 45.8684 182.365C45.0051 181.788 44.3322 180.968 43.9348 180.009C43.5374 179.05 43.4335 177.994 43.636 176.976C43.8386 175.957 44.3386 175.022 45.0728 174.288C45.8071 173.553 46.7425 173.053 47.7609 172.851C48.7793 172.648 49.8349 172.752 50.7942 173.15C51.7536 173.547 52.5735 174.22 53.1504 175.083C53.7273 175.947 54.0352 176.962 54.0352 178C54.0337 179.392 53.4801 180.726 52.4958 181.711C51.5116 182.695 50.1771 183.249 48.7852 183.25ZM63.0352 183.25C61.9968 183.25 60.9818 182.942 60.1184 182.365C59.2551 181.788 58.5822 180.968 58.1848 180.009C57.7874 179.05 57.6835 177.994 57.886 176.976C58.0886 175.957 58.5886 175.022 59.3228 174.288C60.0571 173.553 60.9925 173.053 62.0109 172.851C63.0293 172.648 64.0849 172.752 65.0442 173.15C66.0036 173.547 66.8235 174.22 67.4004 175.083C67.9773 175.947 68.2852 176.962 68.2852 178C68.2837 179.392 67.7301 180.726 66.7458 181.711C65.7616 182.695 64.4271 183.249 63.0352 183.25ZM34.5352 197.5C33.4968 197.5 32.4818 197.192 31.6184 196.615C30.7551 196.038 30.0822 195.218 29.6848 194.259C29.2874 193.3 29.1835 192.244 29.386 191.226C29.5886 190.207 30.0886 189.272 30.8228 188.538C31.5571 187.803 32.4925 187.303 33.5109 187.101C34.5293 186.898 35.5849 187.002 36.5442 187.4C37.5036 187.797 38.3235 188.47 38.9004 189.333C39.4773 190.197 39.7852 191.212 39.7852 192.25C39.7837 193.642 39.2301 194.976 38.2458 195.961C37.2616 196.945 35.9271 197.499 34.5352 197.5ZM48.7852 197.5C47.7468 197.5 46.7318 197.192 45.8684 196.615C45.0051 196.038 44.3322 195.218 43.9348 194.259C43.5374 193.3 43.4335 192.244 43.636 191.226C43.8386 190.207 44.3386 189.272 45.0728 188.538C45.8071 187.803 46.7425 187.303 47.7609 187.101C48.7793 186.898 49.8349 187.002 50.7942 187.4C51.7536 187.797 52.5735 188.47 53.1504 189.333C53.7273 190.197 54.0352 191.212 54.0352 192.25C54.0337 193.642 53.4801 194.976 52.4958 195.961C51.5116 196.945 50.1771 197.499 48.7852 197.5ZM63.0352 197.5C61.9968 197.5 60.9818 197.192 60.1184 196.615C59.2551 196.038 58.5822 195.218 58.1848 194.259C57.7874 193.3 57.6835 192.244 57.886 191.226C58.0886 190.207 58.5886 189.272 59.3228 188.538C60.0571 187.803 60.9925 187.303 62.0109 187.101C63.0293 186.898 64.0849 187.002 65.0442 187.4C66.0036 187.797 66.8235 188.47 67.4004 189.333C67.9773 190.197 68.2852 191.212 68.2852 192.25C68.2837 193.642 67.7301 194.976 66.7458 195.961C65.7616 196.945 64.4271 197.499 63.0352 197.5Z" fill="#5C6284"/>
<path d="M146.845 0L202.307 96.0636H91.3823L146.845 0Z" fill="#5C6284"/>
<path d="M130.174 59.8367L148.963 41.0479L167.752 59.8367M148.963 43.6574V81.7571" stroke="#FFBA6D" stroke-width="6.70529" stroke-linecap="round" stroke-linejoin="round"/>
<circle cx="245.819" cy="177.249" r="51.7514" transform="rotate(-90 245.819 177.249)" fill="#5572DA"/>
<path d="M270.619 171.991C269.447 166.575 266.341 161.646 261.871 158.111C257.3 154.517 251.619 152.56 245.765 152.563C238.864 152.563 232.418 155.175 227.599 159.92C222.942 164.511 220.39 170.573 220.41 176.985C220.41 181.685 221.815 186.282 224.449 190.206L224.942 190.879L222.223 202.438L235.227 199.258C235.227 199.258 235.488 199.344 235.681 199.416C235.873 199.488 237.53 200.113 239.289 200.596C240.75 200.997 243.79 201.598 246.173 201.598C252.93 201.598 259.24 199.026 263.939 194.355C268.596 189.72 271.16 183.558 271.16 176.998C271.161 175.315 270.979 173.637 270.619 171.991Z" fill="#CBACF8"/>
<path d="M97.6807 174.661L145.551 174.661M193.421 174.661L145.551 174.661M145.551 174.661L145.551 95.0933" stroke="#FFBA6D" stroke-width="6" stroke-dasharray="4 10"/>
</svg>
