<svg width="371" height="120" viewBox="0 0 371 120" fill="none" xmlns="http://www.w3.org/2000/svg">
<path d="M0 50H138V101H12.9272C5.78768 101 0 95.2123 0 88.0728V50Z" fill="#FFBA6D"/>
<path d="M0 12.9272C0 5.78768 5.78768 0 12.9272 0H357.073C364.212 0 370 5.78768 370 12.9272V50H0V12.9272Z" fill="#D6D9ED"/>
<rect x="137" y="50.416" width="95.6609" height="50.4159" fill="#5C6284"/>
<rect x="223" y="50" width="106" height="51" fill="#CBACF8"/>
<path d="M298 50H371V88.0729C371 95.2123 365.212 101 358.073 101H298V50Z" fill="#2E3142"/>
<path d="M39.0467 31.9268V19.5167L40.4041 20.874H36.332V18.3532H42.188V31.9268H39.0467ZM50.3632 32.1594C49.2515 32.1594 48.2561 31.888 47.377 31.345C46.498 30.7892 45.8064 29.9877 45.3022 28.9406C44.798 27.8935 44.546 26.6266 44.546 25.14C44.546 23.6534 44.798 22.3865 45.3022 21.3394C45.8064 20.2923 46.498 19.4973 47.377 18.9544C48.2561 18.3985 49.2515 18.1206 50.3632 18.1206C51.4878 18.1206 52.4832 18.3985 53.3494 18.9544C54.2284 19.4973 54.92 20.2923 55.4242 21.3394C55.9283 22.3865 56.1804 23.6534 56.1804 25.14C56.1804 26.6266 55.9283 27.8935 55.4242 28.9406C54.92 29.9877 54.2284 30.7892 53.3494 31.345C52.4832 31.888 51.4878 32.1594 50.3632 32.1594ZM50.3632 29.5029C50.8932 29.5029 51.3521 29.3543 51.7399 29.0569C52.1407 28.7596 52.4509 28.2878 52.6707 27.6414C52.9034 26.995 53.0197 26.1612 53.0197 25.14C53.0197 24.1188 52.9034 23.285 52.6707 22.6386C52.4509 21.9922 52.1407 21.5204 51.7399 21.2231C51.3521 20.9258 50.8932 20.7771 50.3632 20.7771C49.8461 20.7771 49.3872 20.9258 48.9864 21.2231C48.5986 21.5204 48.2884 21.9922 48.0557 22.6386C47.8359 23.285 47.726 24.1188 47.726 25.14C47.726 26.1612 47.8359 26.995 48.0557 27.6414C48.2884 28.2878 48.5986 28.7596 48.9864 29.0569C49.3872 29.3543 49.8461 29.5029 50.3632 29.5029ZM57.5146 31.9268V29.8907L62.7501 24.9461C63.1637 24.5712 63.4675 24.2351 63.6614 23.9378C63.8553 23.6405 63.9846 23.369 64.0493 23.1234C64.1268 22.8778 64.1656 22.6515 64.1656 22.4447C64.1656 21.9018 63.9782 21.4881 63.6033 21.2037C63.2413 20.9064 62.7048 20.7577 61.9938 20.7577C61.425 20.7577 60.895 20.8676 60.4038 21.0873C59.9255 21.3071 59.5183 21.6497 59.1822 22.115L56.8941 20.6414C57.4112 19.8657 58.1351 19.2517 59.0658 18.7992C59.9966 18.3468 61.0695 18.1206 62.2847 18.1206C63.293 18.1206 64.1721 18.2886 64.9218 18.6247C65.6845 18.9479 66.2727 19.4068 66.6864 20.0015C67.113 20.5961 67.3263 21.3071 67.3263 22.1344C67.3263 22.574 67.2681 23.0135 67.1518 23.453C67.0484 23.8796 66.8286 24.3321 66.4925 24.8104C66.1693 25.2887 65.691 25.8251 65.0576 26.4198L60.714 30.5112L60.1129 29.3672H67.7723V31.9268H57.5146ZM77.9145 32.1594C76.9967 32.1594 76.15 31.9914 75.3743 31.6553C74.6116 31.3063 73.9847 30.815 73.4934 30.1816L75.2386 28.0874C75.6135 28.5786 76.0078 28.9535 76.4214 29.2121C76.8351 29.4577 77.2811 29.5805 77.7594 29.5805C79.0392 29.5805 79.6791 28.8307 79.6791 27.3312V20.874H74.909V18.3532H82.801V27.1566C82.801 28.8372 82.3873 30.0911 81.56 30.9184C80.7326 31.7458 79.5175 32.1594 77.9145 32.1594ZM90.0922 32.0819C89.2261 32.0819 88.4505 31.9138 87.7653 31.5777C87.0931 31.2416 86.5696 30.731 86.1947 30.0459C85.8198 29.3478 85.6323 28.4623 85.6323 27.3893V21.4945H88.6573V26.9433C88.6573 27.8095 88.8383 28.4494 89.2002 28.863C89.5751 29.2638 90.0987 29.4641 90.7709 29.4641C91.2363 29.4641 91.6499 29.3672 92.0119 29.1733C92.3739 28.9664 92.6583 28.6562 92.8651 28.2425C93.0719 27.8159 93.1753 27.2859 93.1753 26.6525V21.4945H96.2003V31.9268H93.3305V29.0569L93.854 29.8907C93.505 30.6147 92.9879 31.1641 92.3028 31.5389C91.6305 31.9009 90.8937 32.0819 90.0922 32.0819ZM105.343 21.3394C106.171 21.3394 106.908 21.5075 107.554 21.8436C108.213 22.1668 108.73 22.6709 109.105 23.3561C109.48 24.0283 109.668 24.8944 109.668 25.9544V31.9268H106.643V26.4198C106.643 25.5795 106.455 24.959 106.08 24.5583C105.718 24.1575 105.201 23.9572 104.529 23.9572C104.051 23.9572 103.618 24.0606 103.23 24.2674C102.855 24.4613 102.558 24.7651 102.338 25.1788C102.131 25.5925 102.028 26.1225 102.028 26.7688V31.9268H99.0027V21.4945H101.892V24.3838L101.349 23.5112C101.724 22.8131 102.26 22.2766 102.958 21.9018C103.656 21.5269 104.452 21.3394 105.343 21.3394ZM112.41 31.9268V21.4945H115.435V31.9268H112.41ZM113.922 20.0402C113.366 20.0402 112.914 19.8787 112.565 19.5555C112.216 19.2323 112.041 18.8316 112.041 18.3532C112.041 17.8749 112.216 17.4742 112.565 17.151C112.914 16.8278 113.366 16.6663 113.922 16.6663C114.478 16.6663 114.93 16.8214 115.279 17.1316C115.628 17.429 115.803 17.8168 115.803 18.2951C115.803 18.7992 115.628 19.2194 115.279 19.5555C114.943 19.8787 114.491 20.0402 113.922 20.0402ZM123.206 32.0819C122.094 32.0819 121.105 31.8492 120.239 31.3838C119.386 30.9184 118.707 30.285 118.203 29.4835C117.712 28.6691 117.466 27.7448 117.466 26.7107C117.466 25.6636 117.712 24.7393 118.203 23.9378C118.707 23.1234 119.386 22.4899 120.239 22.0375C121.105 21.5721 122.094 21.3394 123.206 21.3394C124.305 21.3394 125.287 21.5721 126.153 22.0375C127.019 22.4899 127.698 23.1169 128.189 23.9184C128.681 24.7199 128.926 25.6506 128.926 26.7107C128.926 27.7448 128.681 28.6691 128.189 29.4835C127.698 30.285 127.019 30.9184 126.153 31.3838C125.287 31.8492 124.305 32.0819 123.206 32.0819ZM123.206 29.5999C123.71 29.5999 124.163 29.4835 124.563 29.2508C124.964 29.0181 125.281 28.6885 125.513 28.2619C125.746 27.8224 125.862 27.3053 125.862 26.7107C125.862 26.1031 125.746 25.586 125.513 25.1594C125.281 24.7328 124.964 24.4032 124.563 24.1705C124.163 23.9378 123.71 23.8214 123.206 23.8214C122.702 23.8214 122.249 23.9378 121.849 24.1705C121.448 24.4032 121.125 24.7328 120.879 25.1594C120.646 25.586 120.53 26.1031 120.53 26.7107C120.53 27.3053 120.646 27.8224 120.879 28.2619C121.125 28.6885 121.448 29.0181 121.849 29.2508C122.249 29.4835 122.702 29.5999 123.206 29.5999ZM130.948 31.9268V21.4945H133.837V24.4419L133.43 23.5887C133.74 22.8519 134.238 22.296 134.923 21.9211C135.608 21.5333 136.442 21.3394 137.425 21.3394V24.1317C137.295 24.1188 137.179 24.1123 137.076 24.1123C136.972 24.0994 136.862 24.0929 136.746 24.0929C135.919 24.0929 135.246 24.3321 134.729 24.8104C134.225 25.2757 133.973 26.0061 133.973 27.0015V31.9268H130.948ZM149.464 32.1594C148.378 32.1594 147.337 32.0172 146.342 31.7329C145.346 31.4355 144.545 31.0542 143.937 30.5888L145.004 28.2231C145.586 28.6368 146.271 28.9794 147.059 29.2508C147.861 29.5094 148.669 29.6387 149.483 29.6387C150.104 29.6387 150.601 29.5805 150.976 29.4641C151.364 29.3349 151.648 29.1603 151.829 28.9406C152.01 28.7208 152.101 28.4687 152.101 28.1843C152.101 27.8224 151.959 27.538 151.674 27.3312C151.39 27.1114 151.015 26.9369 150.55 26.8076C150.084 26.6654 149.567 26.5361 148.998 26.4198C148.443 26.2905 147.88 26.1354 147.311 25.9544C146.756 25.7734 146.245 25.5407 145.78 25.2563C145.314 24.9719 144.933 24.5971 144.635 24.1317C144.351 23.6663 144.209 23.0717 144.209 22.3477C144.209 21.5721 144.416 20.8676 144.829 20.2341C145.256 19.5878 145.889 19.0772 146.73 18.7023C147.583 18.3145 148.649 18.1206 149.929 18.1206C150.782 18.1206 151.623 18.224 152.45 18.4308C153.277 18.6247 154.008 18.922 154.641 19.3228L153.672 21.7078C153.038 21.3459 152.405 21.0809 151.771 20.9128C151.138 20.7318 150.517 20.6414 149.91 20.6414C149.302 20.6414 148.804 20.7125 148.417 20.8547C148.029 20.9969 147.751 21.1843 147.583 21.417C147.415 21.6367 147.331 21.8953 147.331 22.1926C147.331 22.5416 147.473 22.826 147.757 23.0458C148.042 23.2526 148.417 23.4207 148.882 23.55C149.347 23.6792 149.858 23.8085 150.414 23.9378C150.983 24.067 151.545 24.2157 152.101 24.3838C152.67 24.5518 153.187 24.778 153.652 25.0624C154.118 25.3468 154.492 25.7217 154.777 26.1871C155.074 26.6525 155.223 27.2407 155.223 27.9517C155.223 28.7144 155.009 29.4124 154.583 30.0459C154.156 30.6793 153.516 31.1899 152.663 31.5777C151.823 31.9655 150.756 32.1594 149.464 32.1594ZM161.558 32.0819C160.692 32.0819 159.916 31.9138 159.231 31.5777C158.559 31.2416 158.035 30.731 157.66 30.0459C157.285 29.3478 157.098 28.4623 157.098 27.3893V21.4945H160.123V26.9433C160.123 27.8095 160.304 28.4494 160.666 28.863C161.041 29.2638 161.564 29.4641 162.236 29.4641C162.702 29.4641 163.115 29.3672 163.477 29.1733C163.839 28.9664 164.124 28.6562 164.331 28.2425C164.537 27.8159 164.641 27.2859 164.641 26.6525V21.4945H167.666V31.9268H164.796V29.0569L165.319 29.8907C164.97 30.6147 164.453 31.1641 163.768 31.5389C163.096 31.9009 162.359 32.0819 161.558 32.0819ZM170.468 31.9268V21.4945H173.493V31.9268H170.468ZM171.981 20.0402C171.425 20.0402 170.972 19.8787 170.623 19.5555C170.274 19.2323 170.1 18.8316 170.1 18.3532C170.1 17.8749 170.274 17.4742 170.623 17.151C170.972 16.8278 171.425 16.6663 171.981 16.6663C172.536 16.6663 172.989 16.8214 173.338 17.1316C173.687 17.429 173.862 17.8168 173.862 18.2951C173.862 18.7992 173.687 19.2194 173.338 19.5555C173.002 19.8787 172.549 20.0402 171.981 20.0402ZM180.566 32.0819C179.338 32.0819 178.382 31.7716 177.697 31.1511C177.011 30.5177 176.669 29.5805 176.669 28.3395V19.187H179.694V28.3007C179.694 28.7402 179.81 29.0828 180.043 29.3284C180.276 29.5611 180.592 29.6774 180.993 29.6774C181.471 29.6774 181.879 29.5482 182.215 29.2896L183.029 31.4226C182.719 31.6424 182.344 31.8104 181.904 31.9268C181.478 32.0302 181.032 32.0819 180.566 32.0819ZM175.059 24.0541V21.7272H182.292V24.0541H175.059ZM189.583 32.0819C188.393 32.0819 187.346 31.8492 186.441 31.3838C185.549 30.9184 184.858 30.285 184.366 29.4835C183.875 28.6691 183.63 27.7448 183.63 26.7107C183.63 25.6636 183.869 24.7393 184.347 23.9378C184.838 23.1234 185.504 22.4899 186.344 22.0375C187.185 21.5721 188.135 21.3394 189.195 21.3394C190.216 21.3394 191.134 21.5592 191.948 21.9987C192.776 22.4253 193.428 23.0458 193.907 23.8602C194.385 24.6617 194.624 25.6248 194.624 26.7494C194.624 26.8658 194.618 27.0015 194.605 27.1566C194.592 27.2988 194.579 27.4346 194.566 27.5638H186.092V25.7993H192.976L191.812 26.3228C191.812 25.7799 191.703 25.3081 191.483 24.9073C191.263 24.5066 190.959 24.1963 190.571 23.9766C190.184 23.7439 189.731 23.6275 189.214 23.6275C188.697 23.6275 188.238 23.7439 187.837 23.9766C187.45 24.1963 187.146 24.513 186.926 24.9267C186.706 25.3274 186.596 25.8058 186.596 26.3616V26.827C186.596 27.3958 186.719 27.8999 186.965 28.3395C187.223 28.7661 187.579 29.0957 188.031 29.3284C188.497 29.5482 189.04 29.658 189.66 29.658C190.216 29.658 190.701 29.574 191.114 29.406C191.541 29.2379 191.929 28.9858 192.278 28.6497L193.887 30.3949C193.409 30.9378 192.808 31.358 192.084 31.6553C191.36 31.9397 190.526 32.0819 189.583 32.0819Z" fill="#2E3142"/>
<circle cx="181.348" cy="88.3491" r="31.3483" fill="#D47205"/>
<path d="M168.13 93.0829V84.1244H170.631V93.0829H168.13ZM164.775 89.7865V87.4208H174.005V89.7865H164.775ZM179.96 95.6231C179.017 95.6231 178.079 95.5003 177.149 95.2546C176.218 94.9961 175.429 94.6341 174.783 94.1688L176.005 91.7643C176.522 92.1392 177.123 92.4365 177.808 92.6563C178.493 92.876 179.185 92.9859 179.883 92.9859C180.671 92.9859 181.292 92.8308 181.744 92.5206C182.197 92.2103 182.423 91.7837 182.423 91.2408C182.423 90.7237 182.223 90.3165 181.822 90.0191C181.421 89.7218 180.775 89.5732 179.883 89.5732H178.448V87.4984L182.229 83.213L182.578 84.3377H175.462V81.8169H184.963V83.8529L181.201 88.1382L179.611 87.2269H180.523C182.19 87.2269 183.451 87.6018 184.304 88.3515C185.157 89.1013 185.584 90.0644 185.584 91.2408C185.584 92.0035 185.383 92.7209 184.983 93.3931C184.582 94.0524 183.968 94.5889 183.14 95.0026C182.313 95.4162 181.253 95.6231 179.96 95.6231ZM192.851 95.6231C191.74 95.6231 190.744 95.3516 189.865 94.8087C188.986 94.2528 188.294 93.4513 187.79 92.4042C187.286 91.3571 187.034 90.0902 187.034 88.6036C187.034 87.117 187.286 85.8501 187.79 84.803C188.294 83.7559 188.986 82.9609 189.865 82.418C190.744 81.8621 191.74 81.5842 192.851 81.5842C193.976 81.5842 194.971 81.8621 195.837 82.418C196.716 82.9609 197.408 83.7559 197.912 84.803C198.416 85.8501 198.668 87.117 198.668 88.6036C198.668 90.0902 198.416 91.3571 197.912 92.4042C197.408 93.4513 196.716 94.2528 195.837 94.8087C194.971 95.3516 193.976 95.6231 192.851 95.6231ZM192.851 92.9665C193.381 92.9665 193.84 92.8179 194.228 92.5206C194.629 92.2232 194.939 91.7514 195.159 91.105C195.391 90.4587 195.508 89.6249 195.508 88.6036C195.508 87.5824 195.391 86.7486 195.159 86.1022C194.939 85.4559 194.629 84.984 194.228 84.6867C193.84 84.3894 193.381 84.2407 192.851 84.2407C192.334 84.2407 191.875 84.3894 191.475 84.6867C191.087 84.984 190.776 85.4559 190.544 86.1022C190.324 86.7486 190.214 87.5824 190.214 88.6036C190.214 89.6249 190.324 90.4587 190.544 91.105C190.776 91.7514 191.087 92.2232 191.475 92.5206C191.875 92.8179 192.334 92.9665 192.851 92.9665Z" fill="white"/>
<path d="M337.727 81.0677L331.339 60.9174L334.388 59.5162L340.804 79.654L337.727 81.0677ZM325.649 81.3394L324.286 78.3712L341.877 70.2896L343.241 73.2579L325.649 81.3394ZM330.674 84.3078L324.286 64.1575L327.336 62.7564L333.724 82.9067L330.674 84.3078ZM323.185 73.5344L321.821 70.5662L339.386 62.4971L340.776 65.4528L323.185 73.5344Z" fill="white"/>
<path d="M261.04 56.8814C251.589 56.7538 243.874 64.469 244.002 73.9194C244.128 82.9829 251.508 90.3628 260.572 90.4889C270.024 90.6181 277.738 82.903 277.609 73.4525C277.485 64.3874 270.104 57.0075 261.04 56.8814ZM259.684 72.4305L263.849 67.6641C264.074 67.4059 264.393 67.2479 264.735 67.2249C265.077 67.2019 265.415 67.3157 265.673 67.5413C265.931 67.7669 266.089 68.0859 266.112 68.428C266.135 68.7701 266.021 69.1073 265.796 69.3655L261.631 74.1319C261.519 74.2598 261.383 74.3643 261.231 74.4397C261.079 74.5151 260.914 74.5597 260.744 74.5711C260.575 74.5825 260.405 74.5604 260.244 74.5062C260.083 74.4519 259.935 74.3664 259.807 74.2547C259.679 74.143 259.574 74.0072 259.499 73.8551C259.424 73.7029 259.379 73.5374 259.367 73.3681C259.356 73.1987 259.378 73.0287 259.432 72.8678C259.487 72.707 259.572 72.5584 259.684 72.4305ZM256.544 79.77C256.302 80.0123 255.973 80.1483 255.631 80.1483C255.288 80.1483 254.959 80.0123 254.717 79.77L250.843 75.8923C250.723 75.7722 250.628 75.6296 250.563 75.4727C250.498 75.3159 250.465 75.1478 250.465 74.978C250.465 74.8082 250.498 74.6401 250.563 74.4833C250.628 74.3265 250.724 74.184 250.844 74.0641C250.964 73.9441 251.106 73.8489 251.263 73.784C251.42 73.7191 251.588 73.6857 251.758 73.6858C251.928 73.6859 252.096 73.7194 252.253 73.7844C252.41 73.8495 252.552 73.9448 252.672 74.0649L256.55 77.9426C256.792 78.1858 256.927 78.5148 256.926 78.8575C256.924 79.2002 256.787 79.5284 256.544 79.77ZM270.828 69.3655L261.789 79.7062C261.673 79.8397 261.53 79.9477 261.37 80.0237C261.21 80.0998 261.036 80.1421 260.859 80.1481H260.816C260.646 80.1482 260.478 80.1147 260.321 80.0497C260.164 79.9847 260.021 79.8894 259.901 79.7692L256.028 75.8915C255.786 75.6489 255.65 75.32 255.65 74.9772C255.65 74.6343 255.786 74.3056 256.029 74.0632C256.271 73.8209 256.6 73.6849 256.943 73.685C257.286 73.6852 257.615 73.8215 257.857 74.0641L260.265 76.4739C260.327 76.5365 260.402 76.5856 260.484 76.6181C260.567 76.6506 260.655 76.6659 260.743 76.6629C260.832 76.66 260.919 76.6389 260.999 76.601C261.079 76.563 261.15 76.5091 261.208 76.4424L268.884 67.6641C269.109 67.4059 269.428 67.2479 269.77 67.2249C270.112 67.2019 270.45 67.3157 270.708 67.5413C270.966 67.7669 271.124 68.0859 271.147 68.428C271.17 68.7701 271.056 69.1073 270.831 69.3655H270.828Z" fill="black"/>
<path d="M115.94 73.4521C115.074 73.072 114.139 72.8762 113.193 72.877H88.4701C87.5245 72.8761 86.5891 73.0716 85.7231 73.4513C84.4991 73.9865 83.4576 74.8668 82.7258 75.9844C81.994 77.102 81.6037 78.4086 81.6025 79.7445V89.3591C81.6025 89.7234 81.7472 90.0727 82.0048 90.3303C82.2624 90.5879 82.6118 90.7326 82.976 90.7326C83.3403 90.7326 83.6897 90.5879 83.9473 90.3303C84.2049 90.0727 84.3496 89.7234 84.3496 89.3591V88.6723C84.3518 88.4909 84.4249 88.3175 84.5532 88.1892C84.6815 88.0609 84.8549 87.9878 85.0363 87.9856H116.627C116.808 87.9878 116.982 88.0609 117.11 88.1892C117.239 88.3175 117.312 88.4909 117.314 88.6723V89.3591C117.314 89.7234 117.459 90.0727 117.716 90.3303C117.974 90.5879 118.323 90.7326 118.687 90.7326C119.052 90.7326 119.401 90.5879 119.659 90.3303C119.916 90.0727 120.061 89.7234 120.061 89.3591V79.7445C120.059 78.4088 119.669 77.1024 118.937 75.9849C118.206 74.8674 117.164 73.9873 115.94 73.4521ZM111.133 60.5154H90.5304C89.2554 60.5154 88.0326 61.0219 87.1311 61.9234C86.2295 62.8249 85.7231 64.0477 85.7231 65.3227V71.5035C85.7231 71.5567 85.7355 71.6091 85.7593 71.6567C85.7831 71.7043 85.8176 71.7458 85.8602 71.7777C85.9027 71.8097 85.9521 71.8313 86.0044 71.8409C86.0568 71.8506 86.1106 71.8479 86.1617 71.8331C86.9115 71.6138 87.6889 71.5028 88.4701 71.5035H88.8332C88.918 71.504 88.9999 71.4732 89.0633 71.4169C89.1267 71.3606 89.1671 71.2829 89.1766 71.1987C89.2515 70.5276 89.571 69.9075 90.0741 69.457C90.5772 69.0065 91.2286 68.7571 91.9039 68.7564H96.7111C97.3869 68.7565 98.0389 69.0056 98.5425 69.4562C99.0462 69.9067 99.366 70.5271 99.441 71.1987C99.4505 71.2829 99.4909 71.3606 99.5543 71.4169C99.6177 71.4732 99.6996 71.504 99.7844 71.5035H101.884C101.969 71.504 102.051 71.4732 102.114 71.4169C102.178 71.3606 102.218 71.2829 102.228 71.1987C102.302 70.528 102.622 69.9083 103.124 69.4579C103.627 69.0075 104.277 68.7578 104.952 68.7564H109.759C110.435 68.7565 111.087 69.0056 111.591 69.4562C112.095 69.9067 112.414 70.5271 112.489 71.1987C112.499 71.2829 112.539 71.3606 112.603 71.4169C112.666 71.4732 112.748 71.504 112.833 71.5035H113.193C113.975 71.5031 114.752 71.6144 115.502 71.834C115.553 71.8487 115.607 71.8514 115.659 71.8418C115.712 71.8321 115.761 71.8104 115.804 71.7783C115.846 71.7463 115.881 71.7047 115.904 71.657C115.928 71.6093 115.94 71.5567 115.94 71.5035V65.3227C115.94 64.0477 115.434 62.8249 114.532 61.9234C113.631 61.0219 112.408 60.5154 111.133 60.5154Z" fill="black"/>
</svg>
