<svg width="76" height="76" viewBox="0 0 76 76" fill="none" xmlns="http://www.w3.org/2000/svg">
<g clip-path="url(#clip0_162_1665)">
<path d="M28.4993 47.5C20.0443 47.5 3.16602 51.7433 3.16602 60.1667V66.5H53.8327V60.1667C53.8327 51.7433 36.9543 47.5 28.4993 47.5Z" fill="#5572DA"/>
<path d="M69.983 21.66C70.0147 21.3117 70.0463 20.9633 70.0463 20.5833C70.0463 20.2033 70.0147 19.855 69.9513 19.5067L72.2947 17.67C72.5163 17.5117 72.548 17.195 72.4213 16.9733L70.2047 13.1417C70.078 12.8883 69.7613 12.825 69.5397 12.8883L66.8163 13.9967C66.2463 13.5533 65.613 13.205 64.948 12.92L64.5363 9.975C64.473 9.69 64.2513 9.5 63.9663 9.5H59.533C59.248 9.5 59.0263 9.69 58.9947 9.975L58.583 12.92C57.918 13.205 57.2847 13.585 56.7147 13.9967L53.9597 12.8883C53.7063 12.7933 53.4213 12.8883 53.2947 13.1417L51.078 16.9733C50.9513 17.2267 50.983 17.5117 51.2047 17.67L53.548 19.5067C53.4847 19.855 53.453 20.235 53.453 20.5833C53.453 20.9317 53.4847 21.3117 53.548 21.66L51.2047 23.4967C50.983 23.655 50.9513 23.9717 51.078 24.1933L53.2947 28.025C53.4213 28.2783 53.738 28.3417 53.9597 28.2783L56.7147 27.17C57.2847 27.6133 57.918 27.9617 58.583 28.2467L58.9947 31.1917C59.0263 31.4767 59.248 31.6667 59.533 31.6667H63.9663C64.2513 31.6667 64.473 31.4767 64.5047 31.1917L64.9163 28.2467C65.5813 27.9617 66.2147 27.5817 66.7847 27.17L69.5397 28.2783C69.793 28.3733 70.078 28.2783 70.2047 28.025L72.4213 24.1933C72.548 23.94 72.5163 23.655 72.2947 23.4967L69.983 21.66ZM61.7497 24.5417C59.5647 24.5417 57.7913 22.7683 57.7913 20.5833C57.7913 18.3983 59.5647 16.625 61.7497 16.625C63.9347 16.625 65.708 18.3983 65.708 20.5833C65.708 22.7683 63.9347 24.5417 61.7497 24.5417Z" fill="#5572DA"/>
<path d="M63.0785 36.9865L61.4952 34.2315C61.4002 34.0415 61.1785 33.9782 61.0202 34.0415L59.0568 34.8332C58.6452 34.5165 58.2018 34.2632 57.7268 34.0732L57.4418 31.9832C57.3785 31.7932 57.1885 31.6665 56.9985 31.6665H53.8318C53.6418 31.6665 53.4835 31.7932 53.4518 32.0148L53.1668 34.1048C52.6918 34.2948 52.2485 34.5798 51.8368 34.8648L49.8735 34.0732C49.6835 34.0098 49.4935 34.0732 49.3985 34.2632L47.8152 37.0182C47.7202 37.2082 47.7518 37.3982 47.9102 37.5248L49.5885 38.8232C49.5568 39.0765 49.5252 39.3298 49.5252 39.5832C49.5252 39.8365 49.5568 40.1215 49.5885 40.3432L47.9102 41.6415C47.7518 41.7682 47.7202 41.9898 47.8152 42.1482L49.3985 44.9032C49.4935 45.0932 49.7152 45.1565 49.8735 45.0932L51.8368 44.3015C52.2485 44.6182 52.6918 44.8715 53.1668 45.0615L53.4518 47.1515C53.4835 47.3732 53.6418 47.4998 53.8318 47.4998H56.9985C57.1885 47.4998 57.3785 47.3732 57.3785 47.1515L57.6635 45.0615C58.1385 44.8715 58.5818 44.5865 58.9935 44.3015L60.9568 45.0932C61.1468 45.1565 61.3368 45.0932 61.4318 44.9032L63.0152 42.1482C63.1102 41.9582 63.0785 41.7682 62.9202 41.6415L61.2735 40.3432C61.3052 40.0898 61.3368 39.8365 61.3368 39.5832C61.3368 39.3298 61.3052 39.0448 61.2735 38.8232L62.9518 37.5248C63.1102 37.3982 63.1418 37.1765 63.0785 36.9865ZM55.4152 42.2115C53.9585 42.2115 52.7868 41.0082 52.7868 39.5832C52.7868 38.1265 53.9902 36.9548 55.4152 36.9548C56.8402 36.9548 58.0435 38.1582 58.0435 39.5832C58.0435 41.0398 56.8718 42.2115 55.4152 42.2115Z" fill="#5572DA"/>
<path d="M15.0087 28.4998H42.0204C42.8754 28.4998 43.572 27.8032 43.572 26.9482V26.8848C43.572 26.0298 42.8754 25.3332 42.0204 25.3332H41.1654C41.1654 20.6465 38.6004 16.6248 34.832 14.4082V17.4165C34.832 18.3032 34.1354 18.9998 33.2487 18.9998C32.362 18.9998 31.6654 18.3032 31.6654 17.4165V13.1098C30.652 12.8565 29.607 12.6665 28.4987 12.6665C27.3904 12.6665 26.3454 12.8565 25.332 13.1098V17.4165C25.332 18.3032 24.6354 18.9998 23.7487 18.9998C22.862 18.9998 22.1654 18.3032 22.1654 17.4165V14.4082C18.397 16.6248 15.832 20.6465 15.832 25.3332H15.0087C14.1537 25.3332 13.457 26.0298 13.457 26.8848V26.9798C13.457 27.8032 14.1537 28.4998 15.0087 28.4998Z" fill="#5572DA"/>
<path d="M28.4987 41.1665C34.3887 41.1665 39.2971 37.1132 40.7221 31.6665H16.2754C17.7004 37.1132 22.6087 41.1665 28.4987 41.1665Z" fill="#5572DA"/>
</g>
<defs>
<clipPath id="clip0_162_1665">
<rect width="76" height="76" fill="white"/>
</clipPath>
</defs>
</svg>
