<svg width="76" height="76" viewBox="0 0 76 76" fill="none" xmlns="http://www.w3.org/2000/svg">
<g clip-path="url(#clip0_162_1658)">
<path d="M45.9173 44.9668L55.1007 50.3502L52.5673 54.4668L41.1673 47.5002V31.6668H45.9173V44.9668ZM69.6673 44.3335C69.6673 58.2985 58.299 69.6668 44.334 69.6668C37.9373 69.6668 32.1107 67.2602 27.6457 63.3335H12.6673C9.02565 63.3335 6.33398 60.6418 6.33398 57.0002V28.5002C6.33398 24.9535 9.15232 22.2935 12.6673 22.1668V20.5835C12.6673 12.6985 19.0323 6.3335 26.9173 6.3335C34.3273 6.3335 40.344 12.0018 41.0407 19.2535C42.1173 19.0952 43.2257 19.0002 44.334 19.0002C58.299 19.0002 69.6673 30.3685 69.6673 44.3335ZM19.0007 22.1668H34.834V19.8235C34.454 15.8018 31.034 12.6668 26.9173 12.6668C22.5473 12.6668 19.0007 16.2135 19.0007 20.5835V22.1668ZM63.334 44.3335C63.334 33.8518 54.8157 25.3335 44.334 25.3335C33.8523 25.3335 25.334 33.8518 25.334 44.3335C25.334 54.8152 33.8523 63.3335 44.334 63.3335C54.8157 63.3335 63.334 54.8152 63.334 44.3335Z" fill="#5572DA"/>
</g>
<defs>
<clipPath id="clip0_162_1658">
<rect width="76" height="76" fill="white"/>
</clipPath>
</defs>
</svg>
