<svg width="76" height="76" viewBox="0 0 76 76" fill="none" xmlns="http://www.w3.org/2000/svg">
<g clip-path="url(#clip0_162_1661)">
<path d="M47.5007 37.9998C54.4963 37.9998 60.1673 32.3288 60.1673 25.3332C60.1673 18.3376 54.4963 12.6665 47.5007 12.6665C40.505 12.6665 34.834 18.3376 34.834 25.3332C34.834 32.3288 40.505 37.9998 47.5007 37.9998Z" fill="#5572DA"/>
<path d="M72.8333 63.3335V57.0002C72.8333 49.7169 59.85 45.2835 50.9833 44.6502L69.9833 63.3335H72.8333ZM36.1 45.9169C29.1333 47.8169 22.1667 51.6169 22.1667 57.0002V63.3335H53.5167L66.1833 76.0002L70.3 71.8835L3.8 5.7002L0 9.81686L12.6667 22.4835V31.6669H3.16667V38.0002H12.6667V47.5002H19V38.0002H28.1833L36.1 45.9169ZM19 31.6669V28.8169L21.85 31.6669H19Z" fill="#5572DA"/>
</g>
<defs>
<clipPath id="clip0_162_1661">
<rect width="76" height="76" fill="white"/>
</clipPath>
</defs>
</svg>
