<svg width="256" height="281" viewBox="0 0 256 281" fill="none" xmlns="http://www.w3.org/2000/svg">
<g filter="url(#filter0_d_523_1812)">
<path d="M14 30C14 18.9543 22.9543 10 34 10H222C233.046 10 242 18.9543 242 30V242.554C242 253.6 233.046 262.554 222 262.554H34C22.9543 262.554 14 253.6 14 242.554V30Z" fill="white"/>
</g>
<path d="M133.002 204.902L132.747 204.861C132.783 204.889 132.825 204.907 132.869 204.914C132.914 204.921 132.959 204.917 133.002 204.902ZM190.911 113.782C190.839 113.397 190.64 113.049 190.346 112.79C190.053 112.532 189.681 112.379 189.291 112.356C188.901 112.333 188.514 112.441 188.192 112.663C187.87 112.885 187.632 113.208 187.514 113.581C187.402 113.935 187.18 114.244 186.881 114.465C186.582 114.685 186.221 114.805 185.849 114.807H180.924C180.606 114.807 180.293 114.72 180.02 114.555L172.895 110.283C172.623 110.118 172.31 110.031 171.991 110.031H160.594C160.247 110.031 159.908 110.134 159.62 110.327L145.564 119.697C145.321 119.859 145.122 120.078 144.986 120.336C144.849 120.594 144.779 120.882 144.781 121.174V134.462C144.781 134.781 144.867 135.093 145.031 135.366C145.194 135.64 145.429 135.863 145.711 136.013L164.14 145.85C164.417 145.999 164.649 146.219 164.813 146.488C164.976 146.756 165.065 147.064 165.07 147.378L165.156 154.856C165.161 155.166 165.247 155.469 165.407 155.734C165.566 156 165.792 156.219 166.063 156.369L173.468 160.466C173.743 160.618 173.971 160.841 174.131 161.111C174.29 161.382 174.375 161.69 174.376 162.004V177.476C174.376 177.814 174.473 178.145 174.657 178.429C174.84 178.713 175.102 178.938 175.41 179.077C175.718 179.216 176.06 179.264 176.394 179.213C176.729 179.163 177.041 179.017 177.295 178.794C180.281 176.164 184.563 172.325 185.133 171.446C186.075 169.988 186.959 168.495 187.785 166.967C189.495 163.8 190.943 160.5 192.115 157.098C196.151 145.411 192.961 124.402 190.911 113.782ZM139.178 150.399L119.653 135.755C119.432 135.589 119.164 135.5 118.889 135.5H109.625C109.466 135.5 109.309 135.469 109.163 135.408C109.016 135.348 108.883 135.259 108.771 135.147L104.403 130.779C104.285 130.661 104.145 130.567 103.99 130.503C103.835 130.439 103.67 130.406 103.502 130.406H86.569C86.3303 130.406 86.097 130.336 85.8986 130.203C85.7002 130.07 85.5455 129.882 85.4542 129.661C85.3629 129.441 85.339 129.198 85.3855 128.964C85.4321 128.73 85.547 128.515 85.7158 128.347L88.3963 125.666C88.5083 125.554 88.6413 125.465 88.7877 125.404C88.9341 125.344 89.0911 125.312 89.2496 125.313H99.5548C100.11 125.313 100.65 125.131 101.092 124.796C101.535 124.461 101.856 123.991 102.006 123.457L104.2 115.657C104.246 115.489 104.327 115.333 104.437 115.198C104.546 115.062 104.682 114.951 104.836 114.87L113.582 110.369C113.779 110.267 113.944 110.113 114.059 109.924C114.174 109.735 114.235 109.517 114.234 109.296V105.316C114.235 105.07 114.31 104.829 114.451 104.626L119.099 97.9337C119.238 97.7326 119.436 97.5793 119.666 97.4943L126.17 95.0525C126.4 94.9663 126.598 94.8119 126.738 94.6099C126.878 94.4079 126.953 94.1681 126.953 93.9223V90.293C126.953 90.094 126.904 89.8981 126.81 89.7226C126.716 89.5472 126.58 89.3975 126.415 89.287L119.895 84.951C119.716 84.8331 119.509 84.7646 119.295 84.7523C119.08 84.74 118.867 84.7844 118.676 84.8809L109.8 89.3189C109.597 89.4191 109.369 89.4601 109.144 89.437C108.919 89.4139 108.705 89.3277 108.526 89.1883L104.317 85.8615C104.174 85.746 104.059 85.5992 103.98 85.4323C103.902 85.2654 103.863 85.0829 103.866 84.8986C103.869 84.7143 103.914 84.5332 103.998 84.369C104.082 84.2049 104.202 84.062 104.349 83.9513L107.769 81.4331C107.923 81.3196 108.049 81.1707 108.134 80.9988C108.22 80.8269 108.263 80.6371 108.26 80.4452C108.257 80.2532 108.209 80.0647 108.118 79.8955C108.028 79.7262 107.898 79.581 107.74 79.472L102.414 75.7568C102.229 75.6269 102.012 75.5516 101.787 75.5392C101.562 75.5268 101.338 75.5779 101.14 75.6867C99.2142 76.7405 93.5633 79.8604 91.5577 81.2644C82.2778 87.7721 74.8096 96.5375 69.8583 106.733C69.2789 107.93 68.5626 109.149 68.4925 110.464C68.4225 111.779 67.391 114.714 66.9612 115.902C66.9032 116.062 66.8801 116.233 66.8932 116.404C66.9064 116.574 66.9556 116.739 67.0376 116.889L78.3999 137.767C78.5021 137.957 78.654 138.115 78.8392 138.225L90.7936 145.401C90.9487 145.493 91.081 145.62 91.1807 145.77C91.2805 145.92 91.3451 146.091 91.3698 146.27L93.7639 163.633C93.7873 163.8 93.8449 163.96 93.9331 164.103C94.0213 164.246 94.1382 164.369 94.2764 164.464L103.604 170.876C103.875 171.062 104.063 171.345 104.13 171.666L109.077 195.161C109.105 195.299 109.158 195.43 109.233 195.549C109.698 196.3 111.551 199.051 113.786 199.458C113.579 199.516 113.394 199.646 113.187 199.707C113.724 199.801 114.255 199.924 114.779 200.076C115.416 200.248 116.052 200.394 116.689 200.531C117.685 200.729 117.784 200.882 118.262 199.997C118.898 198.812 119.627 198.405 120.172 198.258C120.396 198.206 120.602 198.092 120.765 197.929C120.927 197.766 121.041 197.56 121.092 197.335L124.298 182.474C124.365 182.162 124.547 181.888 124.807 181.704L139.133 171.548C139.3 171.43 139.436 171.274 139.529 171.093C139.623 170.912 139.672 170.711 139.671 170.507V151.418C139.673 151.222 139.63 151.028 139.544 150.851C139.458 150.674 139.333 150.52 139.178 150.399Z" fill="#5572DA"/>
<path d="M131.41 69.2812C131.41 69.2812 130.248 69.3481 130.013 69.3545C128.287 69.4054 126.566 69.5243 124.849 69.711C118.59 70.3901 112.46 71.9606 106.645 74.375C107.419 74.9098 106.088 75.4001 106.088 75.4001L108.17 79.4688H119.313L126.953 83.2891L133.639 79.4688L131.41 69.2812ZM160.772 92.2222L165.901 87.7652C166.062 87.6259 166.185 87.4485 166.259 87.2494C166.334 87.0503 166.357 86.8357 166.327 86.6253C166.298 86.4148 166.216 86.2151 166.089 86.0444C165.962 85.8737 165.795 85.7375 165.602 85.6481L159.614 82.8688C159.309 82.7269 158.962 82.7109 158.646 82.8241C158.33 82.9374 158.071 83.1709 157.926 83.4737L155.459 88.6343C155.325 88.9165 155.299 89.2381 155.386 89.5381C155.474 89.8381 155.669 90.0954 155.933 90.2611L159.263 92.3432C159.495 92.4871 159.766 92.5531 160.038 92.5313C160.31 92.5095 160.567 92.4012 160.772 92.2222ZM184.78 98.7836L182.924 95.9184C182.895 95.8738 182.87 95.8292 182.844 95.7815C182.51 95.097 179.744 89.5098 177.432 87.3418C175.697 85.7022 175.204 86.1734 175.067 86.5363C174.989 86.737 174.858 86.913 174.688 87.0457L165.506 94.4667C165.28 94.6496 164.998 94.7496 164.707 94.75H159.954C159.787 94.7499 159.621 94.7827 159.467 94.8466C159.312 94.9105 159.172 95.0043 159.053 95.1225L155.233 98.9428C155.115 99.0611 155.021 99.2015 154.957 99.3561C154.893 99.5107 154.86 99.6764 154.86 99.8438C154.86 100.011 154.893 100.177 154.957 100.331C155.021 100.486 155.115 100.626 155.233 100.745L159.053 104.565C159.172 104.683 159.312 104.777 159.467 104.841C159.621 104.905 159.787 104.938 159.954 104.938H183.885C184.057 104.938 184.227 104.903 184.386 104.836C184.544 104.768 184.687 104.67 184.806 104.546C184.924 104.422 185.017 104.275 185.078 104.114C185.139 103.953 185.166 103.782 185.159 103.61L184.984 99.4235C184.974 99.1958 184.904 98.9748 184.78 98.7836Z" fill="#5572DA"/>
<path d="M129.5 76.9219C143.052 76.9207 156.186 81.6188 166.663 90.2155C177.14 98.8122 184.312 110.776 186.957 124.068C189.602 137.359 187.556 151.157 181.168 163.11C174.781 175.062 164.446 184.43 151.926 189.618C139.405 194.805 125.473 195.49 112.504 191.557C99.5352 187.624 88.3311 179.315 80.8011 168.047C73.271 156.779 69.8809 143.249 71.2085 129.762C72.536 116.275 78.499 103.665 88.0814 94.0814C93.5075 88.6244 99.9622 84.2979 107.072 81.3524C114.181 78.407 121.804 76.9011 129.5 76.9219ZM129.5 64.1875C90.1189 64.1875 58.1875 96.1189 58.1875 135.5C58.1875 174.881 90.1189 206.812 129.5 206.812C168.881 206.812 200.812 174.881 200.812 135.5C200.812 96.1189 168.881 64.1875 129.5 64.1875Z" fill="#5572DA"/>
<defs>
<filter id="filter0_d_523_1812" x="0" y="0" width="256" height="280.554" filterUnits="userSpaceOnUse" color-interpolation-filters="sRGB">
<feFlood flood-opacity="0" result="BackgroundImageFix"/>
<feColorMatrix in="SourceAlpha" type="matrix" values="0 0 0 0 0 0 0 0 0 0 0 0 0 0 0 0 0 0 127 0" result="hardAlpha"/>
<feOffset dy="4"/>
<feGaussianBlur stdDeviation="7"/>
<feComposite in2="hardAlpha" operator="out"/>
<feColorMatrix type="matrix" values="0 0 0 0 0 0 0 0 0 0 0 0 0 0 0 0 0 0 0.3 0"/>
<feBlend mode="normal" in2="BackgroundImageFix" result="effect1_dropShadow_523_1812"/>
<feBlend mode="normal" in="SourceGraphic" in2="effect1_dropShadow_523_1812" result="shape"/>
</filter>
</defs>
</svg>
