<svg width="256" height="281" viewBox="0 0 256 281" fill="none" xmlns="http://www.w3.org/2000/svg">
<g filter="url(#filter0_d_523_1824)">
<path d="M14 30C14 18.9543 22.9543 10 34 10H222C233.046 10 242 18.9543 242 30V242.554C242 253.6 233.046 262.554 222 262.554H34C22.9543 262.554 14 253.6 14 242.554V30Z" fill="white"/>
</g>
<path d="M179.375 73.375C175.035 73.3755 170.763 74.4521 166.941 76.5082C163.12 78.5644 159.867 81.5361 157.475 85.1572C155.083 88.7784 153.627 92.9361 153.235 97.2583C152.844 101.58 153.531 105.932 155.233 109.924L113.75 146.018V96.0935C118.754 93.2043 122.666 88.7444 124.877 83.4058C127.088 78.0671 127.476 72.148 125.981 66.5664C124.485 60.9847 121.189 56.0526 116.605 52.5348C112.021 49.0171 106.404 47.1104 100.625 47.1104C94.8465 47.1104 89.2294 49.0171 84.645 52.5348C80.0606 56.0526 76.765 60.9847 75.2695 66.5664C73.7739 72.148 74.1618 78.0671 76.3732 83.4058C78.5845 88.7444 82.4957 93.2043 87.5 96.0935V181.906C82.4957 184.796 78.5845 189.255 76.3732 194.594C74.1618 199.933 73.7739 205.852 75.2695 211.434C76.765 217.015 80.0606 221.947 84.645 225.465C89.2294 228.983 94.8465 230.89 100.625 230.89C106.404 230.89 112.021 228.983 116.605 225.465C121.189 221.947 124.485 217.015 125.981 211.434C127.476 205.852 127.088 199.933 124.877 194.594C122.666 189.255 118.754 184.796 113.75 181.906V180.836L177.017 125.764C177.796 125.834 178.579 125.875 179.375 125.875C186.337 125.875 193.014 123.109 197.937 118.187C202.859 113.264 205.625 106.587 205.625 99.625C205.625 92.663 202.859 85.9862 197.937 81.0634C193.014 76.1406 186.337 73.375 179.375 73.375ZM100.625 60.25C103.221 60.25 105.758 61.0197 107.917 62.4619C110.075 63.9041 111.758 65.954 112.751 68.3522C113.744 70.7505 114.004 73.3895 113.498 75.9355C112.991 78.4815 111.741 80.8202 109.906 82.6557C108.07 84.4913 105.732 85.7413 103.186 86.2478C100.64 86.7542 98.0006 86.4943 95.6023 85.5009C93.204 84.5075 91.1542 82.8252 89.712 80.6668C88.2698 78.5084 87.5 75.9708 87.5 73.375C87.5 69.894 88.8828 66.5556 91.3442 64.0942C93.8057 61.6328 97.144 60.25 100.625 60.25ZM100.625 217.75C98.0291 217.75 95.4915 216.98 93.3332 215.538C91.1748 214.096 89.4925 212.046 88.4991 209.648C87.5057 207.249 87.2458 204.61 87.7522 202.064C88.2586 199.518 89.5087 197.18 91.3442 195.344C93.1798 193.509 95.5184 192.259 98.0644 191.752C100.61 191.246 103.249 191.506 105.648 192.499C108.046 193.492 110.096 195.175 111.538 197.333C112.98 199.491 113.75 202.029 113.75 204.625C113.75 208.106 112.367 211.444 109.906 213.906C107.444 216.367 104.106 217.75 100.625 217.75ZM179.375 112.75C176.779 112.75 174.242 111.98 172.083 110.538C169.925 109.096 168.242 107.046 167.249 104.648C166.256 102.249 165.996 99.6104 166.502 97.0644C167.009 94.5184 168.259 92.1798 170.094 90.3442C171.93 88.5086 174.268 87.2586 176.814 86.7522C179.36 86.2457 181.999 86.5056 184.398 87.499C186.796 88.4924 188.846 90.1747 190.288 92.3331C191.73 94.4915 192.5 97.0291 192.5 99.625C192.5 103.106 191.117 106.444 188.656 108.906C186.194 111.367 182.856 112.75 179.375 112.75Z" fill="#CBACF8"/>
<defs>
<filter id="filter0_d_523_1824" x="0" y="0" width="256" height="280.554" filterUnits="userSpaceOnUse" color-interpolation-filters="sRGB">
<feFlood flood-opacity="0" result="BackgroundImageFix"/>
<feColorMatrix in="SourceAlpha" type="matrix" values="0 0 0 0 0 0 0 0 0 0 0 0 0 0 0 0 0 0 127 0" result="hardAlpha"/>
<feOffset dy="4"/>
<feGaussianBlur stdDeviation="7"/>
<feComposite in2="hardAlpha" operator="out"/>
<feColorMatrix type="matrix" values="0 0 0 0 0 0 0 0 0 0 0 0 0 0 0 0 0 0 0.3 0"/>
<feBlend mode="normal" in2="BackgroundImageFix" result="effect1_dropShadow_523_1824"/>
<feBlend mode="normal" in="SourceGraphic" in2="effect1_dropShadow_523_1824" result="shape"/>
</filter>
</defs>
</svg>
