<svg width="268" height="268" viewBox="0 0 268 268" fill="none" xmlns="http://www.w3.org/2000/svg">
<circle cx="131" cy="130" r="84" fill="#FFBA6D"/>
<path d="M134 146.562C140.938 146.562 146.562 140.938 146.562 134C146.562 127.062 140.938 121.438 134 121.438C127.062 121.438 121.438 127.062 121.438 134C121.438 140.938 127.062 146.562 134 146.562Z" fill="#5C6284"/>
<path d="M134 25.125C73.967 25.125 25.125 73.967 25.125 134C25.125 194.033 73.967 242.875 134 242.875C194.033 242.875 242.875 194.033 242.875 134C242.875 73.967 194.033 25.125 134 25.125ZM188.998 84.4462L164.459 145.793C162.774 150.006 160.251 153.833 157.042 157.042C153.833 160.251 150.006 162.774 145.793 164.459L84.4462 188.998C83.6852 189.302 82.8515 189.377 82.0486 189.212C81.2456 189.047 80.5086 188.651 79.929 188.071C79.3494 187.491 78.9527 186.754 78.788 185.951C78.6233 185.148 78.6978 184.315 79.0024 183.554L103.541 122.207C105.226 117.994 107.749 114.167 110.958 110.958C114.167 107.749 117.994 105.226 122.207 103.541L183.554 79.0024C184.315 78.6978 185.148 78.6233 185.951 78.788C186.754 78.9527 187.491 79.3494 188.071 79.929C188.651 80.5086 189.047 81.2456 189.212 82.0486C189.377 82.8515 189.302 83.6852 188.998 84.4462Z" fill="#5C6284"/>
</svg>
