<svg width="256" height="256" viewBox="0 0 256 256" fill="none" xmlns="http://www.w3.org/2000/svg">
<circle cx="127.5" cy="127.5" r="74.5" fill="#D6D9ED"/>
<path d="M128 24C70.565 24 24 70.565 24 128C24 185.435 70.565 232 128 232C185.435 232 232 185.435 232 128C232 70.565 185.435 24 128 24ZM169.845 165.325C162.651 173.353 153.296 179.14 142.901 181.992C132.505 184.845 121.507 184.643 111.223 181.41C100.939 178.178 91.8037 172.052 84.9091 163.765C78.0145 155.478 73.6526 145.38 72.345 134.68C70.6907 135.775 68.6887 136.216 66.7276 135.917C64.7665 135.619 62.9861 134.603 61.732 133.066C60.4779 131.529 59.8395 129.581 59.9408 127.6C60.042 125.619 60.8757 123.746 62.28 122.345L74.08 110.545C75.5584 109.067 77.5566 108.226 79.647 108.203C81.7375 108.179 83.754 108.975 85.265 110.42L97.6 122.22C98.9851 123.534 99.8543 125.301 100.051 127.2C100.247 129.1 99.7575 131.007 98.6706 132.577C97.5837 134.146 95.9711 135.276 94.1242 135.761C92.2773 136.246 90.3178 136.054 88.6 135.22C89.9702 142.593 93.3792 149.434 98.4403 154.968C103.501 160.502 110.012 164.507 117.234 166.528C124.455 168.55 132.099 168.507 139.297 166.405C146.496 164.303 152.961 160.225 157.96 154.635C159.395 153.118 161.366 152.221 163.452 152.138C165.539 152.054 167.575 152.789 169.127 154.187C170.679 155.585 171.622 157.533 171.756 159.617C171.891 161.701 171.205 163.755 169.845 165.34V165.325ZM193.725 133.655L181.925 145.455C180.447 146.933 178.448 147.774 176.358 147.797C174.268 147.821 172.251 147.025 170.74 145.58L158.405 133.78C157.047 132.472 156.194 130.727 155.997 128.852C155.8 126.977 156.271 125.092 157.329 123.531C158.386 121.969 159.961 120.832 161.775 120.318C163.589 119.805 165.527 119.949 167.245 120.725C165.871 113.368 162.465 106.543 157.413 101.023C152.361 95.5016 145.864 91.5053 138.658 89.4859C131.452 87.4664 123.824 87.5046 116.639 89.5961C109.453 91.6876 102.997 95.7488 98 101.32C97.2984 102.102 96.4497 102.738 95.5022 103.192C94.5548 103.646 93.5272 103.909 92.4781 103.966C91.429 104.023 90.379 103.873 89.3881 103.524C88.3971 103.175 87.4845 102.634 86.7025 101.933C85.9205 101.231 85.2843 100.382 84.8303 99.4347C84.3763 98.4873 84.1133 97.4597 84.0565 96.4106C83.9996 95.3615 84.1499 94.3115 84.4988 93.3206C84.8477 92.3296 85.3884 91.417 86.09 90.635C93.2899 82.6074 102.651 76.8256 113.053 73.9821C123.455 71.1387 134.456 71.3542 144.738 74.6028C155.021 77.8514 164.149 83.9953 171.029 92.2988C177.909 100.602 182.249 110.713 183.53 121.42C185.173 120.3 187.174 119.832 189.144 120.107C191.113 120.382 192.91 121.381 194.183 122.909C195.456 124.436 196.114 126.383 196.029 128.37C195.945 130.357 195.123 132.241 193.725 133.655Z" fill="#5572DA"/>
</svg>
