<svg width="76" height="76" viewBox="0 0 76 76" fill="none" xmlns="http://www.w3.org/2000/svg">
<g clip-path="url(#clip0_433_2879)">
<path d="M38 6.33203C22.2617 6.33203 9.5 19.0937 9.5 34.832C9.5 48.037 18.4933 59.1204 30.685 62.3504L38 69.6654L45.315 62.3504C57.5067 59.1204 66.5 48.037 66.5 34.832C66.5 19.0937 53.7383 6.33203 38 6.33203ZM38 12.6654C43.2567 12.6654 47.5 16.9087 47.5 22.1654C47.5 27.422 43.2567 31.6654 38 31.6654C32.7433 31.6654 28.5 27.422 28.5 22.1654C28.5 16.9087 32.7433 12.6654 38 12.6654ZM38 57.9487C30.0833 57.9487 23.085 53.8954 19 47.752C19.095 41.4504 31.6667 37.9987 38 37.9987C44.3017 37.9987 56.905 41.4504 57 47.752C52.915 53.8954 45.9167 57.9487 38 57.9487Z" fill="#5572DA"/>
</g>
<defs>
<clipPath id="clip0_433_2879">
<rect width="76" height="76" fill="white"/>
</clipPath>
</defs>
</svg>
