<svg width="261" height="261" viewBox="0 0 261 261" fill="none" xmlns="http://www.w3.org/2000/svg">
<rect x="17" y="76" width="228" height="122" fill="#D47205"/>
<path d="M16.3125 212.062C16.3125 214.226 17.1718 216.3 18.7014 217.83C20.231 219.359 22.3056 220.219 24.4688 220.219H236.531C238.694 220.219 240.769 219.359 242.299 217.83C243.828 216.3 244.688 214.226 244.688 212.062V113.168H16.3125V212.062ZM49.957 141.715C49.957 140.633 50.3867 139.596 51.1515 138.831C51.9163 138.066 52.9536 137.637 54.0352 137.637H100.934C102.015 137.637 103.052 138.066 103.817 138.831C104.582 139.596 105.012 140.633 105.012 141.715V174.34C105.012 175.421 104.582 176.459 103.817 177.224C103.052 177.988 102.015 178.418 100.934 178.418H54.0352C52.9536 178.418 51.9163 177.988 51.1515 177.224C50.3867 176.459 49.957 175.421 49.957 174.34V141.715ZM236.531 40.7812H24.4688C22.3056 40.7812 20.231 41.6406 18.7014 43.1702C17.1718 44.6998 16.3125 46.7743 16.3125 48.9375V82.582H244.688V48.9375C244.688 46.7743 243.828 44.6998 242.299 43.1702C240.769 41.6406 238.694 40.7812 236.531 40.7812Z" fill="#2E3142"/>
</svg>
