<svg width="247" height="226" viewBox="0 0 247 226" fill="none" xmlns="http://www.w3.org/2000/svg">
<path d="M236.708 0H82.3333C79.6038 0 76.9861 1.0823 75.056 3.00881C73.126 4.93532 72.0417 7.54823 72.0417 10.2727V102.727H170.694L129.527 61.6364L144.083 47.1069L202.817 105.738C204.745 107.665 205.829 110.277 205.829 113C205.829 115.723 204.745 118.335 202.817 120.262L144.083 178.893L129.527 164.364L170.694 123.273H72.0417V215.727C72.0417 218.452 73.126 221.065 75.056 222.991C76.9861 224.918 79.6038 226 82.3333 226H236.708C239.438 226 242.056 224.918 243.986 222.991C245.916 221.065 247 218.452 247 215.727V10.2727C247 7.54823 245.916 4.93532 243.986 3.00881C242.056 1.0823 239.438 0 236.708 0ZM0 102.727H72.0417V123.273H0V102.727Z" fill="white"/>
</svg>
