<svg width="256" height="281" viewBox="0 0 256 281" fill="none" xmlns="http://www.w3.org/2000/svg">
<g filter="url(#filter0_d_433_2916)">
<path d="M14 30C14 18.9543 22.9543 10 34 10H222C233.046 10 242 18.9543 242 30V242.554C242 253.6 233.046 262.554 222 262.554H34C22.9543 262.554 14 253.6 14 242.554V30Z" fill="white"/>
</g>
<g clip-path="url(#clip0_433_2916)">
<path d="M187.375 114.361V76.6438C187.38 74.8405 187.03 73.0538 186.343 71.3863C185.656 69.7189 184.647 68.2034 183.373 66.927C182.099 65.6506 180.586 64.6384 178.92 63.9484C177.254 63.2584 175.468 62.9042 173.665 62.9063H135.969C133.498 62.9113 131.128 63.8909 129.373 65.6323L54.0135 140.971C51.4432 143.549 50 147.041 50 150.682C50 154.323 51.4432 157.815 54.0135 160.393L89.8904 196.27C92.4679 198.841 95.9598 200.285 99.6002 200.285C103.241 200.285 106.732 198.841 109.31 196.27L184.648 120.956C186.39 119.203 187.37 116.832 187.375 114.361ZM157.937 102.156C155.996 102.156 154.099 101.581 152.485 100.503C150.872 99.4243 149.614 97.8918 148.871 96.0988C148.129 94.3058 147.934 92.3329 148.313 90.4294C148.692 88.526 149.626 86.7776 150.999 85.4053C152.371 84.033 154.119 83.0984 156.023 82.7198C157.926 82.3412 159.899 82.5355 161.692 83.2782C163.485 84.0209 165.018 85.2786 166.096 86.8922C167.174 88.5059 167.75 90.403 167.75 92.3438C167.75 94.9462 166.716 97.442 164.876 99.2822C163.035 101.122 160.539 102.156 157.937 102.156Z" fill="#5572DA"/>
<path d="M202.094 77.625C200.792 77.625 199.545 78.1419 198.624 79.062C197.704 79.9821 197.187 81.23 197.187 82.5312V121.588L117.059 201.719C116.584 202.17 116.205 202.712 115.943 203.312C115.68 203.912 115.541 204.559 115.533 205.214C115.524 205.868 115.647 206.518 115.894 207.125C116.14 207.731 116.506 208.283 116.969 208.746C117.432 209.209 117.983 209.574 118.59 209.821C119.197 210.068 119.846 210.191 120.501 210.182C121.156 210.174 121.803 210.034 122.403 209.772C123.003 209.51 123.544 209.13 123.995 208.656L204.335 128.316C205.19 127.457 205.865 126.437 206.323 125.316C206.78 124.194 207.01 122.993 207 121.781V82.5312C207 81.23 206.483 79.9821 205.563 79.062C204.643 78.1419 203.395 77.625 202.094 77.625Z" fill="#5572DA"/>
</g>
<defs>
<filter id="filter0_d_433_2916" x="0" y="0" width="256" height="280.554" filterUnits="userSpaceOnUse" color-interpolation-filters="sRGB">
<feFlood flood-opacity="0" result="BackgroundImageFix"/>
<feColorMatrix in="SourceAlpha" type="matrix" values="0 0 0 0 0 0 0 0 0 0 0 0 0 0 0 0 0 0 127 0" result="hardAlpha"/>
<feOffset dy="4"/>
<feGaussianBlur stdDeviation="7"/>
<feComposite in2="hardAlpha" operator="out"/>
<feColorMatrix type="matrix" values="0 0 0 0 0 0 0 0 0 0 0 0 0 0 0 0 0 0 0.3 0"/>
<feBlend mode="normal" in2="BackgroundImageFix" result="effect1_dropShadow_433_2916"/>
<feBlend mode="normal" in="SourceGraphic" in2="effect1_dropShadow_433_2916" result="shape"/>
</filter>
<clipPath id="clip0_433_2916">
<rect width="157" height="157" fill="white" transform="translate(50 58)"/>
</clipPath>
</defs>
</svg>
