<svg width="256" height="281" viewBox="0 0 256 281" fill="none" xmlns="http://www.w3.org/2000/svg">
<g filter="url(#filter0_d_787_2080)">
<path d="M14 30C14 18.9543 22.9543 10 34 10H222C233.046 10 242 18.9543 242 30V242.554C242 253.6 233.046 262.554 222 262.554H34C22.9543 262.554 14 253.6 14 242.554V30Z" fill="white"/>
</g>
<path d="M68.4521 98.4532H177.344V83.5907C177.344 82.9202 177.195 82.258 176.908 81.652C176.621 81.0459 176.204 80.5111 175.685 80.086C175.167 79.661 174.56 79.3563 173.91 79.1939C173.259 79.0316 172.581 79.0156 171.923 79.1472L67.7045 96.2753C66.9284 96.4298 66.2064 96.7848 65.6102 97.305C65.0139 97.8252 64.5643 98.4925 64.3061 99.2405C65.626 98.7186 67.0328 98.4515 68.4521 98.4532ZM186.265 105.25H68.4521C67.2504 105.25 66.0978 105.727 65.2481 106.577C64.3983 107.427 63.9209 108.58 63.9209 109.781V191.344C63.9209 192.546 64.3983 193.698 65.2481 194.548C66.0978 195.398 67.2504 195.875 68.4521 195.875H186.265C187.466 195.875 188.619 195.398 189.469 194.548C190.319 193.698 190.796 192.546 190.796 191.344V109.781C190.796 108.58 190.319 107.427 189.469 106.577C188.619 105.727 187.466 105.25 186.265 105.25ZM159.219 159.625C157.426 159.625 155.674 159.094 154.184 158.098C152.694 157.102 151.532 155.687 150.846 154.031C150.16 152.375 149.981 150.552 150.33 148.795C150.68 147.037 151.543 145.422 152.811 144.154C154.078 142.887 155.693 142.024 157.451 141.674C159.209 141.324 161.031 141.504 162.687 142.19C164.343 142.876 165.758 144.037 166.754 145.528C167.75 147.018 168.281 148.77 168.281 150.563C168.281 152.966 167.326 155.271 165.627 156.971C163.927 158.67 161.622 159.625 159.219 159.625Z" fill="#5C6284"/>
<path d="M63.873 142.491V101.852C63.873 98.3597 65.493 96.618 68.24 96.1875C78.2088 94.6214 98.9902 93.7803 98.9902 93.7803C98.9902 93.7803 96.6312 98.3115 91.2503 98.3115V105.25C96.4896 105.25 100.123 111.905 100.123 111.905L79.0244 135.836L63.873 142.491Z" fill="#5C6284"/>
<defs>
<filter id="filter0_d_787_2080" x="0" y="0" width="256" height="280.554" filterUnits="userSpaceOnUse" color-interpolation-filters="sRGB">
<feFlood flood-opacity="0" result="BackgroundImageFix"/>
<feColorMatrix in="SourceAlpha" type="matrix" values="0 0 0 0 0 0 0 0 0 0 0 0 0 0 0 0 0 0 127 0" result="hardAlpha"/>
<feOffset dy="4"/>
<feGaussianBlur stdDeviation="7"/>
<feComposite in2="hardAlpha" operator="out"/>
<feColorMatrix type="matrix" values="0 0 0 0 0 0 0 0 0 0 0 0 0 0 0 0 0 0 0.3 0"/>
<feBlend mode="normal" in2="BackgroundImageFix" result="effect1_dropShadow_787_2080"/>
<feBlend mode="normal" in="SourceGraphic" in2="effect1_dropShadow_787_2080" result="shape"/>
</filter>
</defs>
</svg>
