<svg width="321" height="106" viewBox="0 0 321 106" fill="none" xmlns="http://www.w3.org/2000/svg">
<path d="M0 63H82V105H12.9272C5.78768 105 0 99.2123 0 92.0728V63Z" fill="#FFBA6D"/>
<path d="M0 12.9272C0 5.78768 5.78768 0 12.9272 0H308.073C315.212 0 321 5.78768 321 12.9272V63H0V12.9272Z" fill="#D6D9ED"/>
<rect x="81.6523" y="63.416" width="79.7828" height="42.0477" fill="#5C6284"/>
<rect x="161.435" y="63.416" width="79.7828" height="42.0477" fill="#CBACF8"/>
<path d="M241.217 63.416H321V92.5366C321 99.676 315.212 105.464 308.072 105.464H241.217V63.416Z" fill="#2E3142"/>
<path d="M19.8504 32V19.5899L21.2078 20.9473H17.1357V18.4265H22.9917V32H19.8504ZM31.1669 32.2327C30.0552 32.2327 29.0598 31.9612 28.1807 31.4183C27.3017 30.8624 26.6101 30.0609 26.1059 29.0138C25.6018 27.9667 25.3497 26.6999 25.3497 25.2132C25.3497 23.7266 25.6018 22.4598 26.1059 21.4127C26.6101 20.3656 27.3017 19.5705 28.1807 19.0276C29.0598 18.4717 30.0552 18.1938 31.1669 18.1938C32.2916 18.1938 33.2869 18.4717 34.1531 19.0276C35.0321 19.5705 35.7237 20.3656 36.2279 21.4127C36.732 22.4598 36.9841 23.7266 36.9841 25.2132C36.9841 26.6999 36.732 27.9667 36.2279 29.0138C35.7237 30.0609 35.0321 30.8624 34.1531 31.4183C33.2869 31.9612 32.2916 32.2327 31.1669 32.2327ZM31.1669 29.5762C31.6969 29.5762 32.1558 29.4275 32.5436 29.1302C32.9444 28.8328 33.2546 28.361 33.4744 27.7146C33.7071 27.0683 33.8234 26.2345 33.8234 25.2132C33.8234 24.192 33.7071 23.3582 33.4744 22.7118C33.2546 22.0655 32.9444 21.5936 32.5436 21.2963C32.1558 20.999 31.6969 20.8503 31.1669 20.8503C30.6498 20.8503 30.1909 20.999 29.7902 21.2963C29.4023 21.5936 29.0921 22.0655 28.8594 22.7118C28.6396 23.3582 28.5298 24.192 28.5298 25.2132C28.5298 26.2345 28.6396 27.0683 28.8594 27.7146C29.0921 28.361 29.4023 28.8328 29.7902 29.1302C30.1909 29.4275 30.6498 29.5762 31.1669 29.5762ZM38.3183 32V29.964L43.5538 25.0193C43.9675 24.6445 44.2712 24.3083 44.4651 24.011C44.6591 23.7137 44.7883 23.4422 44.853 23.1966C44.9305 22.951 44.9693 22.7248 44.9693 22.5179C44.9693 21.975 44.7819 21.5613 44.407 21.2769C44.045 20.9796 43.5085 20.8309 42.7975 20.8309C42.2288 20.8309 41.6987 20.9408 41.2075 21.1606C40.7292 21.3803 40.322 21.7229 39.9859 22.1883L37.6978 20.7146C38.2149 19.939 38.9388 19.3249 39.8695 18.8725C40.8003 18.42 41.8733 18.1938 43.0884 18.1938C44.0967 18.1938 44.9758 18.3619 45.7255 18.698C46.4882 19.0211 47.0764 19.4801 47.4901 20.0747C47.9167 20.6694 48.13 21.3803 48.13 22.2077C48.13 22.6472 48.0718 23.0867 47.9555 23.5263C47.8521 23.9528 47.6323 24.4053 47.2962 24.8836C46.973 25.3619 46.4947 25.8984 45.8613 26.493L41.5178 30.5845L40.9166 29.4404H48.576V32H38.3183ZM58.7182 32.2327C57.8004 32.2327 56.9537 32.0646 56.1781 31.7285C55.4154 31.3795 54.7884 30.8883 54.2972 30.2548L56.0423 28.1606C56.4172 28.6519 56.8115 29.0268 57.2252 29.2853C57.6388 29.5309 58.0848 29.6537 58.5631 29.6537C59.8429 29.6537 60.4828 28.9039 60.4828 27.4044V20.9473H55.7127V18.4265H63.6047V27.2299C63.6047 28.9104 63.191 30.1643 62.3637 30.9917C61.5364 31.819 60.3212 32.2327 58.7182 32.2327ZM70.8959 32.1551C70.0298 32.1551 69.2542 31.9871 68.569 31.651C67.8968 31.3149 67.3733 30.8042 66.9984 30.1191C66.6235 29.421 66.4361 28.5355 66.4361 27.4626V21.5678H69.461V27.0166C69.461 27.8827 69.642 28.5226 70.0039 28.9363C70.3788 29.337 70.9024 29.5374 71.5746 29.5374C72.04 29.5374 72.4536 29.4404 72.8156 29.2465C73.1776 29.0397 73.462 28.7294 73.6688 28.3158C73.8756 27.8892 73.979 27.3592 73.979 26.7257V21.5678H77.004V32H74.1342V29.1302L74.6577 29.964C74.3087 30.6879 73.7916 31.2373 73.1065 31.6122C72.4343 31.9741 71.6974 32.1551 70.8959 32.1551ZM86.1472 21.4127C86.9745 21.4127 87.7114 21.5807 88.3577 21.9168C89.017 22.24 89.5341 22.7442 89.909 23.4293C90.2839 24.1015 90.4713 24.9676 90.4713 26.0277V32H87.4464V26.493C87.4464 25.6528 87.2589 25.0323 86.884 24.6315C86.5221 24.2308 86.005 24.0304 85.3328 24.0304C84.8545 24.0304 84.4214 24.1338 84.0336 24.3407C83.6587 24.5346 83.3614 24.8384 83.1416 25.252C82.9348 25.6657 82.8314 26.1957 82.8314 26.8421V32H79.8064V21.5678H82.6956V24.457L82.1527 23.5844C82.5276 22.8864 83.0641 22.3499 83.7621 21.975C84.4602 21.6001 85.2552 21.4127 86.1472 21.4127ZM93.2133 32V21.5678H96.2382V32H93.2133ZM94.7258 20.1135C94.1699 20.1135 93.7174 19.9519 93.3684 19.6287C93.0194 19.3055 92.8449 18.9048 92.8449 18.4265C92.8449 17.9482 93.0194 17.5474 93.3684 17.2243C93.7174 16.9011 94.1699 16.7395 94.7258 16.7395C95.2816 16.7395 95.7341 16.8946 96.0831 17.2049C96.4321 17.5022 96.6067 17.89 96.6067 18.3683C96.6067 18.8725 96.4321 19.2926 96.0831 19.6287C95.747 19.9519 95.2946 20.1135 94.7258 20.1135ZM104.01 32.1551C102.898 32.1551 101.909 31.9224 101.043 31.4571C100.19 30.9917 99.511 30.3583 99.0069 29.5568C98.5156 28.7424 98.27 27.8181 98.27 26.7839C98.27 25.7368 98.5156 24.8125 99.0069 24.011C99.511 23.1966 100.19 22.5632 101.043 22.1107C101.909 21.6454 102.898 21.4127 104.01 21.4127C105.108 21.4127 106.091 21.6454 106.957 22.1107C107.823 22.5632 108.502 23.1901 108.993 23.9916C109.484 24.7931 109.73 25.7239 109.73 26.7839C109.73 27.8181 109.484 28.7424 108.993 29.5568C108.502 30.3583 107.823 30.9917 106.957 31.4571C106.091 31.9224 105.108 32.1551 104.01 32.1551ZM104.01 29.6731C104.514 29.6731 104.966 29.5568 105.367 29.3241C105.768 29.0914 106.084 28.7617 106.317 28.3352C106.55 27.8956 106.666 27.3785 106.666 26.7839C106.666 26.1763 106.55 25.6592 106.317 25.2326C106.084 24.806 105.768 24.4764 105.367 24.2437C104.966 24.011 104.514 23.8947 104.01 23.8947C103.506 23.8947 103.053 24.011 102.652 24.2437C102.252 24.4764 101.928 24.806 101.683 25.2326C101.45 25.6592 101.334 26.1763 101.334 26.7839C101.334 27.3785 101.45 27.8956 101.683 28.3352C101.928 28.7617 102.252 29.0914 102.652 29.3241C103.053 29.5568 103.506 29.6731 104.01 29.6731ZM111.752 32V21.5678H114.641V24.5152L114.234 23.662C114.544 22.9251 115.042 22.3693 115.727 21.9944C116.412 21.6066 117.246 21.4127 118.228 21.4127V24.2049C118.099 24.192 117.983 24.1855 117.879 24.1855C117.776 24.1726 117.666 24.1661 117.55 24.1661C116.722 24.1661 116.05 24.4053 115.533 24.8836C115.029 25.349 114.777 26.0794 114.777 27.0748V32H111.752ZM130.267 32.2327C129.182 32.2327 128.141 32.0905 127.146 31.8061C126.15 31.5088 125.349 31.1274 124.741 30.662L125.808 28.2964C126.389 28.71 127.074 29.0526 127.863 29.3241C128.664 29.5826 129.472 29.7119 130.287 29.7119C130.907 29.7119 131.405 29.6537 131.78 29.5374C132.168 29.4081 132.452 29.2336 132.633 29.0138C132.814 28.7941 132.905 28.542 132.905 28.2576C132.905 27.8956 132.762 27.6112 132.478 27.4044C132.194 27.1846 131.819 27.0101 131.353 26.8808C130.888 26.7386 130.371 26.6094 129.802 26.493C129.246 26.3638 128.684 26.2086 128.115 26.0277C127.559 25.8467 127.049 25.614 126.583 25.3296C126.118 25.0452 125.736 24.6703 125.439 24.2049C125.155 23.7395 125.013 23.1449 125.013 22.421C125.013 21.6454 125.219 20.9408 125.633 20.3074C126.06 19.661 126.693 19.1504 127.533 18.7755C128.387 18.3877 129.453 18.1938 130.733 18.1938C131.586 18.1938 132.426 18.2972 133.254 18.5041C134.081 18.698 134.811 18.9953 135.445 19.396L134.475 21.7811C133.842 21.4191 133.208 21.1541 132.575 20.9861C131.942 20.8051 131.321 20.7146 130.713 20.7146C130.106 20.7146 129.608 20.7857 129.22 20.9279C128.833 21.0701 128.555 21.2575 128.387 21.4902C128.219 21.71 128.134 21.9685 128.134 22.2659C128.134 22.6149 128.277 22.8993 128.561 23.119C128.845 23.3259 129.22 23.4939 129.686 23.6232C130.151 23.7525 130.662 23.8817 131.218 24.011C131.786 24.1403 132.349 24.289 132.905 24.457C133.473 24.6251 133.99 24.8513 134.456 25.1357C134.921 25.4201 135.296 25.795 135.581 26.2603C135.878 26.7257 136.027 27.3139 136.027 28.0249C136.027 28.7876 135.813 29.4857 135.387 30.1191C134.96 30.7525 134.32 31.2632 133.467 31.651C132.627 32.0388 131.56 32.2327 130.267 32.2327ZM142.361 32.1551C141.495 32.1551 140.72 31.9871 140.034 31.651C139.362 31.3149 138.839 30.8042 138.464 30.1191C138.089 29.421 137.901 28.5355 137.901 27.4626V21.5678H140.926V27.0166C140.926 27.8827 141.107 28.5226 141.469 28.9363C141.844 29.337 142.368 29.5374 143.04 29.5374C143.505 29.5374 143.919 29.4404 144.281 29.2465C144.643 29.0397 144.927 28.7294 145.134 28.3158C145.341 27.8892 145.444 27.3592 145.444 26.7257V21.5678H148.469V32H145.6V29.1302L146.123 29.964C145.774 30.6879 145.257 31.2373 144.572 31.6122C143.9 31.9741 143.163 32.1551 142.361 32.1551ZM151.272 32V21.5678H154.297V32H151.272ZM152.784 20.1135C152.228 20.1135 151.776 19.9519 151.427 19.6287C151.078 19.3055 150.903 18.9048 150.903 18.4265C150.903 17.9482 151.078 17.5474 151.427 17.2243C151.776 16.9011 152.228 16.7395 152.784 16.7395C153.34 16.7395 153.793 16.8946 154.142 17.2049C154.491 17.5022 154.665 17.89 154.665 18.3683C154.665 18.8725 154.491 19.2926 154.142 19.6287C153.806 19.9519 153.353 20.1135 152.784 20.1135ZM161.37 32.1551C160.142 32.1551 159.185 31.8449 158.5 31.2244C157.815 30.5909 157.473 29.6537 157.473 28.4127V19.2603H160.498V28.3739C160.498 28.8135 160.614 29.156 160.847 29.4016C161.079 29.6343 161.396 29.7507 161.797 29.7507C162.275 29.7507 162.682 29.6214 163.018 29.3629L163.833 31.4958C163.523 31.7156 163.148 31.8837 162.708 32C162.282 32.1034 161.836 32.1551 161.37 32.1551ZM155.863 24.1274V21.8005H163.096V24.1274H155.863ZM170.386 32.1551C169.197 32.1551 168.15 31.9224 167.245 31.4571C166.353 30.9917 165.661 30.3583 165.17 29.5568C164.679 28.7424 164.433 27.8181 164.433 26.7839C164.433 25.7368 164.672 24.8125 165.151 24.011C165.642 23.1966 166.308 22.5632 167.148 22.1107C167.988 21.6454 168.938 21.4127 169.998 21.4127C171.02 21.4127 171.938 21.6324 172.752 22.0719C173.579 22.4985 174.232 23.119 174.71 23.9335C175.189 24.7349 175.428 25.698 175.428 26.8227C175.428 26.939 175.421 27.0748 175.408 27.2299C175.396 27.3721 175.383 27.5078 175.37 27.6371H166.896V25.8725H173.78L172.616 26.3961C172.616 25.8531 172.506 25.3813 172.287 24.9806C172.067 24.5798 171.763 24.2696 171.375 24.0498C170.987 23.8171 170.535 23.7008 170.018 23.7008C169.501 23.7008 169.042 23.8171 168.641 24.0498C168.253 24.2696 167.949 24.5863 167.73 24.9999C167.51 25.4007 167.4 25.879 167.4 26.4349V26.9002C167.4 27.469 167.523 27.9732 167.769 28.4127C168.027 28.8393 168.383 29.169 168.835 29.4016C169.3 29.6214 169.843 29.7313 170.464 29.7313C171.02 29.7313 171.504 29.6473 171.918 29.4792C172.345 29.3112 172.733 29.0591 173.082 28.723L174.691 30.4681C174.213 31.0111 173.612 31.4312 172.888 31.7285C172.164 32.0129 171.33 32.1551 170.386 32.1551Z" fill="#2E3142"/>
<circle cx="117.5" cy="68.5371" r="26.145" fill="#D47205"/>
<path d="M104.557 72.6925V63.734H107.058V72.6925H104.557ZM101.202 69.3961V67.0304H110.432V69.3961H101.202ZM116.387 75.2327C115.443 75.2327 114.506 75.1099 113.575 74.8643C112.645 74.6057 111.856 74.2438 111.21 73.7784L112.431 71.3739C112.949 71.7488 113.55 72.0461 114.235 72.2659C114.92 72.4857 115.612 72.5955 116.31 72.5955C117.098 72.5955 117.719 72.4404 118.171 72.1302C118.624 71.8199 118.85 71.3933 118.85 70.8504C118.85 70.3333 118.649 69.9261 118.249 69.6288C117.848 69.3314 117.202 69.1828 116.31 69.1828H114.875V67.108L118.656 62.8226L119.005 63.9473H111.888V61.4265H121.39V63.4625L117.628 67.7479L116.038 66.8365H116.949C118.617 66.8365 119.877 67.2114 120.731 67.9612C121.584 68.7109 122.01 69.674 122.01 70.8504C122.01 71.6131 121.81 72.3305 121.409 73.0028C121.009 73.662 120.395 74.1985 119.567 74.6122C118.74 75.0259 117.68 75.2327 116.387 75.2327ZM129.278 75.2327C128.166 75.2327 127.171 74.9612 126.292 74.4183C125.413 73.8624 124.721 73.0609 124.217 72.0138C123.713 70.9667 123.461 69.6999 123.461 68.2132C123.461 66.7266 123.713 65.4598 124.217 64.4127C124.721 63.3656 125.413 62.5705 126.292 62.0276C127.171 61.4717 128.166 61.1938 129.278 61.1938C130.403 61.1938 131.398 61.4717 132.264 62.0276C133.143 62.5705 133.835 63.3656 134.339 64.4127C134.843 65.4598 135.095 66.7266 135.095 68.2132C135.095 69.6999 134.843 70.9667 134.339 72.0138C133.835 73.0609 133.143 73.8624 132.264 74.4183C131.398 74.9612 130.403 75.2327 129.278 75.2327ZM129.278 72.5762C129.808 72.5762 130.267 72.4275 130.655 72.1302C131.056 71.8328 131.366 71.361 131.586 70.7146C131.818 70.0683 131.935 69.2345 131.935 68.2132C131.935 67.192 131.818 66.3582 131.586 65.7118C131.366 65.0655 131.056 64.5936 130.655 64.2963C130.267 63.999 129.808 63.8503 129.278 63.8503C128.761 63.8503 128.302 63.999 127.901 64.2963C127.513 64.5936 127.203 65.0655 126.971 65.7118C126.751 66.3582 126.641 67.192 126.641 68.2132C126.641 69.2345 126.751 70.0683 126.971 70.7146C127.203 71.361 127.513 71.8328 127.901 72.1302C128.302 72.4275 128.761 72.5762 129.278 72.5762Z" fill="white"/>
<path d="M289.28 92.5403L282.892 72.39L285.942 70.9889L292.357 91.1267L289.28 92.5403ZM277.203 92.8121L275.839 89.8439L293.431 81.7623L294.794 84.7305L277.203 92.8121ZM282.227 95.7805L275.839 75.6302L278.889 74.229L285.277 94.3793L282.227 95.7805ZM274.739 85.0071L273.375 82.0388L290.939 73.9698L292.33 76.9255L274.739 85.0071Z" fill="white"/>
<path d="M201.522 68.8077C193.639 68.7012 187.204 75.1358 187.311 83.0177C187.416 90.5768 193.571 96.7317 201.131 96.8368C209.014 96.9447 215.448 90.5101 215.34 82.6282C215.236 75.0678 209.081 68.9128 201.522 68.8077ZM200.39 81.7759L203.864 77.8006C204.052 77.5853 204.318 77.4535 204.603 77.4343C204.889 77.4151 205.17 77.51 205.385 77.6982C205.6 77.8864 205.732 78.1524 205.751 78.4377C205.771 78.723 205.676 79.0043 205.488 79.2196L202.014 83.1949C201.921 83.3015 201.808 83.3887 201.681 83.4516C201.554 83.5144 201.416 83.5517 201.275 83.5612C201.133 83.5707 200.992 83.5523 200.857 83.507C200.723 83.4617 200.599 83.3905 200.493 83.2973C200.386 83.2041 200.299 83.0909 200.236 82.964C200.173 82.8371 200.136 82.6991 200.126 82.5578C200.117 82.4165 200.135 82.2748 200.18 82.1406C200.226 82.0064 200.297 81.8825 200.39 81.7759ZM197.772 87.8972C197.57 88.0992 197.296 88.2127 197.01 88.2127C196.724 88.2127 196.45 88.0992 196.248 87.8972L193.017 84.663C192.917 84.5629 192.837 84.444 192.783 84.3131C192.729 84.1823 192.701 84.0421 192.701 83.9005C192.701 83.7589 192.729 83.6187 192.783 83.488C192.838 83.3572 192.917 83.2383 193.017 83.1383C193.118 83.0382 193.236 82.9588 193.367 82.9047C193.498 82.8506 193.638 82.8228 193.78 82.8228C193.922 82.8229 194.062 82.8508 194.193 82.9051C194.323 82.9593 194.442 83.0388 194.542 83.1389L197.776 86.3731C197.978 86.5759 198.091 86.8503 198.09 87.1361C198.089 87.4219 197.974 87.6956 197.772 87.8972ZM209.685 79.2196L202.146 87.8439C202.049 87.9552 201.93 88.0454 201.797 88.1088C201.663 88.1722 201.518 88.2075 201.371 88.2125H201.334C201.193 88.2125 201.052 88.1846 200.921 88.1304C200.791 88.0762 200.672 87.9967 200.571 87.8965L197.341 84.6624C197.139 84.4601 197.026 84.1858 197.026 83.8998C197.026 83.6139 197.14 83.3397 197.342 83.1376C197.544 82.9355 197.818 82.822 198.104 82.8222C198.39 82.8223 198.665 82.936 198.867 83.1383L200.875 85.1482C200.927 85.2004 200.989 85.2413 201.058 85.2684C201.127 85.2955 201.2 85.3082 201.274 85.3058C201.348 85.3033 201.42 85.2857 201.487 85.2541C201.554 85.2225 201.613 85.1775 201.662 85.1219L208.063 77.8006C208.251 77.5853 208.517 77.4535 208.802 77.4343C209.088 77.4151 209.369 77.51 209.584 77.6982C209.8 77.8864 209.931 78.1524 209.951 78.4377C209.97 78.723 209.875 79.0043 209.687 79.2196H209.685Z" fill="black"/>
<path d="M53.9293 82.6286C53.2071 82.3116 52.4269 82.1482 51.6382 82.1489H31.0187C30.23 82.1481 29.4499 82.3112 28.7276 82.6279C27.7068 83.0743 26.8382 83.8084 26.2278 84.7405C25.6175 85.6726 25.292 86.7624 25.291 87.8765V95.8952C25.291 96.199 25.4117 96.4904 25.6265 96.7052C25.8414 96.9201 26.1327 97.0408 26.4365 97.0408C26.7404 97.0408 27.0317 96.9201 27.2466 96.7052C27.4614 96.4904 27.5821 96.199 27.5821 95.8952V95.3225C27.5839 95.1711 27.6449 95.0265 27.7519 94.9195C27.8589 94.8125 28.0035 94.7516 28.1548 94.7497H54.502C54.6534 94.7516 54.798 94.8125 54.905 94.9195C55.012 95.0265 55.0729 95.1711 55.0748 95.3225V95.8952C55.0748 96.199 55.1955 96.4904 55.4103 96.7052C55.6251 96.9201 55.9165 97.0408 56.2203 97.0408C56.5241 97.0408 56.8155 96.9201 57.0303 96.7052C57.2452 96.4904 57.3658 96.199 57.3658 95.8952V87.8765C57.3647 86.7625 57.0391 85.6729 56.4288 84.7409C55.8185 83.809 54.95 83.0749 53.9293 82.6286ZM49.9199 71.8391H32.737C31.6736 71.8391 30.6538 72.2615 29.9019 73.0134C29.15 73.7653 28.7276 74.7851 28.7276 75.8485V81.0033C28.7276 81.0477 28.738 81.0915 28.7578 81.1312C28.7777 81.1709 28.8065 81.2054 28.8419 81.2321C28.8774 81.2587 28.9186 81.2768 28.9623 81.2848C29.0059 81.2928 29.0508 81.2906 29.0935 81.2783C29.7188 81.0954 30.3671 81.0028 31.0187 81.0033H31.3215C31.3922 81.0038 31.4606 80.9781 31.5134 80.9312C31.5663 80.8842 31.5999 80.8194 31.6079 80.7492C31.6704 80.1894 31.9369 79.6723 32.3564 79.2966C32.776 78.9209 33.3193 78.7129 33.8825 78.7123H37.8918C38.4554 78.7123 38.9992 78.9201 39.4193 79.2959C39.8393 79.6717 40.1061 80.1891 40.1686 80.7492C40.1765 80.8194 40.2102 80.8842 40.2631 80.9312C40.3159 80.9781 40.3843 81.0038 40.455 81.0033H42.2062C42.2769 81.0038 42.3452 80.9781 42.3981 80.9312C42.451 80.8842 42.4846 80.8194 42.4926 80.7492C42.555 80.1898 42.8212 79.673 43.2403 79.2973C43.6594 78.9216 44.2022 78.7134 44.765 78.7123H48.7744C49.338 78.7123 49.8818 78.9201 50.3018 79.2959C50.7218 79.6717 50.9886 80.1891 51.0511 80.7492C51.0591 80.8194 51.0927 80.8842 51.1456 80.9312C51.1985 80.9781 51.2668 81.0038 51.3375 81.0033H51.6382C52.2898 81.003 52.9381 81.0959 53.5634 81.279C53.6061 81.2913 53.6511 81.2936 53.6948 81.2855C53.7385 81.2774 53.7797 81.2593 53.8152 81.2326C53.8507 81.2058 53.8795 81.1712 53.8993 81.1314C53.9191 81.0916 53.9293 81.0478 53.9293 81.0033V75.8485C53.9293 74.7851 53.5068 73.7653 52.7549 73.0134C52.003 72.2615 50.9833 71.8391 49.9199 71.8391Z" fill="black"/>
</svg>
