<svg width="256" height="281" viewBox="0 0 256 281" fill="none" xmlns="http://www.w3.org/2000/svg">
<g filter="url(#filter0_d_433_2932)">
<path d="M14 30C14 18.9543 22.9543 10 34 10H222C233.046 10 242 18.9543 242 30V242.554C242 253.6 233.046 262.554 222 262.554H34C22.9543 262.554 14 253.6 14 242.554V30Z" fill="#5C6284"/>
</g>
<path d="M187.484 116.808L140.867 113.222L147.74 86.5064C149.533 78.5576 147.507 73.9945 141.026 71.9833L130.659 69.0399C130.414 68.9749 130.154 68.9896 129.918 69.082C129.681 69.1744 129.481 69.3397 129.344 69.5539L90.7955 130.019C90.5818 130.366 90.2825 130.654 89.9263 130.853C89.57 131.052 89.1687 131.157 88.7605 131.157H56V193.308H91.1452C92.6869 193.307 94.2186 193.555 95.6814 194.043L118.482 201.642C120.92 202.455 123.473 202.87 126.042 202.87H179.213C184.891 202.87 188.626 198.83 189.741 193.26L199.438 150.748V128.761C199.438 122.169 194.059 117.405 187.484 116.808Z" fill="#FFBA6D"/>
<defs>
<filter id="filter0_d_433_2932" x="0" y="0" width="256" height="280.554" filterUnits="userSpaceOnUse" color-interpolation-filters="sRGB">
<feFlood flood-opacity="0" result="BackgroundImageFix"/>
<feColorMatrix in="SourceAlpha" type="matrix" values="0 0 0 0 0 0 0 0 0 0 0 0 0 0 0 0 0 0 127 0" result="hardAlpha"/>
<feOffset dy="4"/>
<feGaussianBlur stdDeviation="7"/>
<feComposite in2="hardAlpha" operator="out"/>
<feColorMatrix type="matrix" values="0 0 0 0 0 0 0 0 0 0 0 0 0 0 0 0 0 0 0.3 0"/>
<feBlend mode="normal" in2="BackgroundImageFix" result="effect1_dropShadow_433_2932"/>
<feBlend mode="normal" in="SourceGraphic" in2="effect1_dropShadow_433_2932" result="shape"/>
</filter>
</defs>
</svg>
