<svg width="256" height="281" viewBox="0 0 256 281" fill="none" xmlns="http://www.w3.org/2000/svg">
<g filter="url(#filter0_d_433_2992)">
<path d="M14 30C14 18.9543 22.9543 10 34 10H222C233.046 10 242 18.9543 242 30V242.554C242 253.6 233.046 262.554 222 262.554H34C22.9543 262.554 14 253.6 14 242.554V30Z" fill="white"/>
</g>
<path d="M196 97.3568C196 92.1661 193.953 87.188 190.309 83.5177C186.666 79.8473 181.724 77.7853 176.571 77.7853H171.714V73.03C171.714 70.3971 169.705 68.1372 167.091 68.0057C166.434 67.9738 165.778 68.0766 165.162 68.3078C164.546 68.539 163.982 68.8938 163.506 69.3507C163.03 69.8076 162.652 70.3571 162.393 70.9659C162.134 71.5747 162 72.2301 162 72.8924V77.7853H94V73.03C94 70.3971 91.9904 68.1372 89.3766 68.0057C88.7199 67.9738 88.0636 68.0766 87.4474 68.3078C86.8313 68.539 86.2682 68.8938 85.7922 69.3507C85.3162 69.8076 84.9372 70.3571 84.6783 70.9659C84.4193 71.5747 84.2858 72.2301 84.2857 72.8924V77.7853H79.4286C74.2758 77.7853 69.3341 79.8473 65.6905 83.5177C62.0469 87.188 60 92.1661 60 97.3568V101.026C60 101.351 60.1279 101.662 60.3557 101.891C60.5834 102.121 60.8922 102.25 61.2143 102.25H194.786C195.108 102.25 195.417 102.121 195.644 101.891C195.872 101.662 196 101.351 196 101.026V97.3568ZM60 185.429C60 190.619 62.0469 195.597 65.6905 199.268C69.3341 202.938 74.2758 205 79.4286 205H176.571C181.724 205 186.666 202.938 190.309 199.268C193.953 195.597 196 190.619 196 185.429V112.953C196 112.71 195.904 112.476 195.733 112.304C195.562 112.132 195.331 112.035 195.089 112.035H60.9107C60.6692 112.035 60.4375 112.132 60.2667 112.304C60.096 112.476 60 112.71 60 112.953V185.429ZM164.429 121.821C165.87 121.821 167.278 122.252 168.476 123.058C169.674 123.865 170.608 125.011 171.16 126.352C171.711 127.693 171.855 129.169 171.574 130.592C171.293 132.016 170.599 133.324 169.58 134.35C168.561 135.377 167.263 136.076 165.85 136.359C164.437 136.642 162.972 136.497 161.64 135.941C160.309 135.386 159.171 134.445 158.371 133.238C157.57 132.031 157.143 130.612 157.143 129.16C157.143 127.214 157.91 125.347 159.277 123.971C160.643 122.594 162.496 121.821 164.429 121.821ZM164.429 146.286C165.87 146.286 167.278 146.716 168.476 147.522C169.674 148.329 170.608 149.475 171.16 150.816C171.711 152.157 171.855 153.633 171.574 155.057C171.293 156.48 170.599 157.788 169.58 158.815C168.561 159.841 167.263 160.54 165.85 160.823C164.437 161.106 162.972 160.961 161.64 160.405C160.309 159.85 159.171 158.909 158.371 157.702C157.57 156.495 157.143 155.076 157.143 153.625C157.143 151.678 157.91 149.812 159.277 148.435C160.643 147.059 162.496 146.286 164.429 146.286ZM140.143 121.821C141.584 121.821 142.992 122.252 144.191 123.058C145.389 123.865 146.323 125.011 146.874 126.352C147.425 127.693 147.57 129.169 147.289 130.592C147.007 132.016 146.314 133.324 145.295 134.35C144.276 135.377 142.978 136.076 141.564 136.359C140.151 136.642 138.686 136.497 137.355 135.941C136.023 135.386 134.886 134.445 134.085 133.238C133.284 132.031 132.857 130.612 132.857 129.16C132.857 127.214 133.625 125.347 134.991 123.971C136.357 122.594 138.211 121.821 140.143 121.821ZM140.143 146.286C141.584 146.286 142.992 146.716 144.191 147.522C145.389 148.329 146.323 149.475 146.874 150.816C147.425 152.157 147.57 153.633 147.289 155.057C147.007 156.48 146.314 157.788 145.295 158.815C144.276 159.841 142.978 160.54 141.564 160.823C140.151 161.106 138.686 160.961 137.355 160.405C136.023 159.85 134.886 158.909 134.085 157.702C133.284 156.495 132.857 155.076 132.857 153.625C132.857 151.678 133.625 149.812 134.991 148.435C136.357 147.059 138.211 146.286 140.143 146.286ZM140.143 170.75C141.584 170.75 142.992 171.18 144.191 171.987C145.389 172.793 146.323 173.939 146.874 175.281C147.425 176.622 147.57 178.097 147.289 179.521C147.007 180.945 146.314 182.252 145.295 183.279C144.276 184.305 142.978 185.004 141.564 185.287C140.151 185.571 138.686 185.425 137.355 184.87C136.023 184.314 134.886 183.374 134.085 182.167C133.284 180.96 132.857 179.541 132.857 178.089C132.857 176.143 133.625 174.276 134.991 172.9C136.357 171.523 138.211 170.75 140.143 170.75ZM115.857 146.286C117.298 146.286 118.707 146.716 119.905 147.522C121.103 148.329 122.037 149.475 122.588 150.816C123.14 152.157 123.284 153.633 123.003 155.057C122.722 156.48 122.028 157.788 121.009 158.815C119.99 159.841 118.692 160.54 117.279 160.823C115.865 161.106 114.4 160.961 113.069 160.405C111.738 159.85 110.6 158.909 109.799 157.702C108.999 156.495 108.571 155.076 108.571 153.625C108.571 151.678 109.339 149.812 110.705 148.435C112.072 147.059 113.925 146.286 115.857 146.286ZM115.857 170.75C117.298 170.75 118.707 171.18 119.905 171.987C121.103 172.793 122.037 173.939 122.588 175.281C123.14 176.622 123.284 178.097 123.003 179.521C122.722 180.945 122.028 182.252 121.009 183.279C119.99 184.305 118.692 185.004 117.279 185.287C115.865 185.571 114.4 185.425 113.069 184.87C111.738 184.314 110.6 183.374 109.799 182.167C108.999 180.96 108.571 179.541 108.571 178.089C108.571 176.143 109.339 174.276 110.705 172.9C112.072 171.523 113.925 170.75 115.857 170.75ZM91.5714 146.286C93.0124 146.286 94.421 146.716 95.6192 147.522C96.8173 148.329 97.7511 149.475 98.3026 150.816C98.854 152.157 98.9983 153.633 98.7172 155.057C98.436 156.48 97.7421 157.788 96.7232 158.815C95.7043 159.841 94.4061 160.54 92.9928 160.823C91.5795 161.106 90.1146 160.961 88.7833 160.405C87.452 159.85 86.3141 158.909 85.5136 157.702C84.713 156.495 84.2857 155.076 84.2857 153.625C84.2857 151.678 85.0533 149.812 86.4196 148.435C87.786 147.059 89.6391 146.286 91.5714 146.286ZM91.5714 170.75C93.0124 170.75 94.421 171.18 95.6192 171.987C96.8173 172.793 97.7511 173.939 98.3026 175.281C98.854 176.622 98.9983 178.097 98.7172 179.521C98.436 180.945 97.7421 182.252 96.7232 183.279C95.7043 184.305 94.4061 185.004 92.9928 185.287C91.5795 185.571 90.1146 185.425 88.7833 184.87C87.452 184.314 86.3141 183.374 85.5136 182.167C84.713 180.96 84.2857 179.541 84.2857 178.089C84.2857 176.143 85.0533 174.276 86.4196 172.9C87.786 171.523 89.6391 170.75 91.5714 170.75Z" fill="#D47205"/>
<defs>
<filter id="filter0_d_433_2992" x="0" y="0" width="256" height="280.554" filterUnits="userSpaceOnUse" color-interpolation-filters="sRGB">
<feFlood flood-opacity="0" result="BackgroundImageFix"/>
<feColorMatrix in="SourceAlpha" type="matrix" values="0 0 0 0 0 0 0 0 0 0 0 0 0 0 0 0 0 0 127 0" result="hardAlpha"/>
<feOffset dy="4"/>
<feGaussianBlur stdDeviation="7"/>
<feComposite in2="hardAlpha" operator="out"/>
<feColorMatrix type="matrix" values="0 0 0 0 0 0 0 0 0 0 0 0 0 0 0 0 0 0 0.3 0"/>
<feBlend mode="normal" in2="BackgroundImageFix" result="effect1_dropShadow_433_2992"/>
<feBlend mode="normal" in="SourceGraphic" in2="effect1_dropShadow_433_2992" result="shape"/>
</filter>
</defs>
</svg>
