<svg width="150" height="150" viewBox="0 0 150 150" fill="none" xmlns="http://www.w3.org/2000/svg">
<path d="M133.594 56.25L87.8906 52.7344L94.6289 26.543C96.3867 18.75 94.4004 14.2764 88.0459 12.3047L77.8828 9.41899C77.6423 9.35524 77.3877 9.36971 77.1559 9.46031C76.9242 9.55091 76.7273 9.71292 76.5938 9.9229L38.8008 69.2022C38.5912 69.5431 38.2978 69.8247 37.9485 70.0201C37.5993 70.2154 37.2058 70.3182 36.8057 70.3184H4.6875V131.25H39.1436C40.6551 131.25 42.1568 131.493 43.5908 131.971L65.9443 139.421C68.3343 140.218 70.8371 140.625 73.3564 140.625H125.484C131.051 140.625 134.713 136.664 135.806 131.203L145.312 89.5254V67.9688C145.312 61.5059 140.039 56.836 133.594 56.25Z" fill="#5572DA"/>
</svg>
