<svg width="337" height="337" viewBox="0 0 337 337" fill="none" xmlns="http://www.w3.org/2000/svg">
<path d="M251.434 89.5156C224.533 89.5156 203.082 103.029 189.826 114.369L189.358 114.771L181.809 122.979L198.475 150.367L210.809 137.999C223.717 127.099 238.125 121.109 251.434 121.109C278.288 121.109 300.141 142.369 300.141 168.5C300.141 194.631 278.288 215.891 251.434 215.891C210.625 215.891 182.888 161.951 182.612 161.405C181.006 158.16 145.831 89.5156 85.5664 89.5156C41.2891 89.5156 5.26562 124.947 5.26562 168.5C5.26562 212.053 41.2891 247.484 85.5664 247.484C107.254 247.484 128.6 238.855 147.299 222.525L147.701 222.17L155.191 214.021L138.519 186.633L126.125 199.06C113.211 210.23 99.5598 215.891 85.5664 215.891C58.7117 215.891 36.8594 194.631 36.8594 168.5C36.8594 142.369 58.7117 121.109 85.5664 121.109C126.375 121.109 154.112 175.049 154.388 175.595C155.994 178.84 191.169 247.484 251.434 247.484C295.711 247.484 331.734 212.053 331.734 168.5C331.734 124.947 295.711 89.5156 251.434 89.5156Z" fill="#5572DA"/>
</svg>
