<svg width="256" height="281" viewBox="0 0 256 281" fill="none" xmlns="http://www.w3.org/2000/svg">
<g filter="url(#filter0_d_523_1787)">
<path d="M14 30C14 18.9543 22.9543 10 34 10H222C233.046 10 242 18.9543 242 30V242.554C242 253.6 233.046 262.554 222 262.554H34C22.9543 262.554 14 253.6 14 242.554V30Z" fill="#2E3142"/>
</g>
<path d="M199.812 140.594H187.925C186.23 144.122 184.289 147.526 182.115 150.781H199.812V140.594ZM57.1875 130.406V140.594H69.075C67.5018 137.303 66.1821 133.898 65.1274 130.406H57.1875Z" fill="#FFBA6D"/>
<path d="M143.781 136.703L127.313 169.641L112.031 118.703L101.086 140.594H69.0752C72.2588 147.254 76.5566 153.777 82.0101 160.23C94.7827 175.339 112.016 185.619 125.625 194.715L128.491 196.625L131.356 194.715C144.975 185.619 162.208 175.339 174.971 160.23C177.532 157.221 179.917 154.066 182.115 150.781H150.82L143.781 136.703Z" fill="#FFBA6D"/>
<path d="M114.406 91.1716L129.687 142.109L143.781 113.922L157.117 140.594H187.925C192.51 131.138 194.835 120.746 194.719 110.238C194.518 90.4649 178.654 74.375 159.355 74.375C144.039 74.375 133.855 83.2891 128.5 89.7231C123.145 83.2891 112.961 74.375 97.6444 74.375C78.3455 74.375 62.4816 90.4649 62.2811 110.238C62.2003 117.066 63.16 123.867 65.1272 130.406H94.7887L114.406 91.1716Z" fill="#FFBA6D"/>
<defs>
<filter id="filter0_d_523_1787" x="0" y="0" width="256" height="280.554" filterUnits="userSpaceOnUse" color-interpolation-filters="sRGB">
<feFlood flood-opacity="0" result="BackgroundImageFix"/>
<feColorMatrix in="SourceAlpha" type="matrix" values="0 0 0 0 0 0 0 0 0 0 0 0 0 0 0 0 0 0 127 0" result="hardAlpha"/>
<feOffset dy="4"/>
<feGaussianBlur stdDeviation="7"/>
<feComposite in2="hardAlpha" operator="out"/>
<feColorMatrix type="matrix" values="0 0 0 0 0 0 0 0 0 0 0 0 0 0 0 0 0 0 0.3 0"/>
<feBlend mode="normal" in2="BackgroundImageFix" result="effect1_dropShadow_523_1787"/>
<feBlend mode="normal" in="SourceGraphic" in2="effect1_dropShadow_523_1787" result="shape"/>
</filter>
</defs>
</svg>
