<svg width="256" height="281" viewBox="0 0 256 281" fill="none" xmlns="http://www.w3.org/2000/svg">
<g filter="url(#filter0_d_785_2071)">
<path d="M14 30C14 18.9543 22.9543 10 34 10H222C233.046 10 242 18.9543 242 30V242.554C242 253.6 233.046 262.554 222 262.554H34C22.9543 262.554 14 253.6 14 242.554V30Z" fill="white"/>
</g>
<path d="M90.2653 133.236C81.551 133.236 74.8976 130.822 70.305 125.994C65.7123 121.048 63.416 114.748 63.416 107.093C63.416 98.2611 65.7123 91.3133 70.305 86.2496C74.8976 81.0682 81.551 78.4774 90.2653 78.4774C99.0973 78.4774 105.81 81.0682 110.402 86.2496C114.995 91.3133 117.291 98.2611 117.291 107.093C117.291 114.748 114.995 121.048 110.402 125.994C105.81 130.822 99.0973 133.236 90.2653 133.236ZM81.7866 194L141.138 80.2438H172.58L113.052 194H81.7866ZM90.2653 115.925C93.5626 115.925 95.9178 115.101 97.3309 113.452C98.744 111.686 99.4506 109.331 99.4506 106.387C99.4506 99.321 96.3888 95.7882 90.2653 95.7882C87.0858 95.7882 84.7894 96.6125 83.3763 98.2611C81.9632 99.9098 81.2566 102.618 81.2566 106.387C81.2566 109.331 81.9632 111.686 83.3763 113.452C84.7894 115.101 87.0858 115.925 90.2653 115.925ZM164.101 195.766C155.387 195.766 148.733 193.352 144.14 188.524C139.548 183.578 137.252 177.278 137.252 169.624C137.252 160.909 139.548 154.02 144.14 148.957C148.733 143.775 155.387 141.185 164.101 141.185C172.933 141.185 179.645 143.775 184.238 148.957C188.83 154.02 191.127 160.909 191.127 169.624C191.127 177.278 188.83 183.578 184.238 188.524C179.645 193.352 172.933 195.766 164.101 195.766ZM164.101 178.632C167.398 178.632 169.753 177.808 171.166 176.159C172.58 174.393 173.286 172.038 173.286 169.094C173.286 162.028 170.224 158.495 164.101 158.495C160.921 158.495 158.625 159.32 157.212 160.968C155.799 162.617 155.092 165.325 155.092 169.094C155.092 172.038 155.799 174.393 157.212 176.159C158.625 177.808 160.921 178.632 164.101 178.632Z" fill="#D47205"/>
<defs>
<filter id="filter0_d_785_2071" x="0" y="0" width="256" height="280.554" filterUnits="userSpaceOnUse" color-interpolation-filters="sRGB">
<feFlood flood-opacity="0" result="BackgroundImageFix"/>
<feColorMatrix in="SourceAlpha" type="matrix" values="0 0 0 0 0 0 0 0 0 0 0 0 0 0 0 0 0 0 127 0" result="hardAlpha"/>
<feOffset dy="4"/>
<feGaussianBlur stdDeviation="7"/>
<feComposite in2="hardAlpha" operator="out"/>
<feColorMatrix type="matrix" values="0 0 0 0 0 0 0 0 0 0 0 0 0 0 0 0 0 0 0.3 0"/>
<feBlend mode="normal" in2="BackgroundImageFix" result="effect1_dropShadow_785_2071"/>
<feBlend mode="normal" in="SourceGraphic" in2="effect1_dropShadow_785_2071" result="shape"/>
</filter>
</defs>
</svg>
