<svg width="211" height="211" viewBox="0 0 211 211" fill="none" xmlns="http://www.w3.org/2000/svg">
<rect x="59" y="65" width="99" height="96" fill="#D47205"/>
<path d="M178.031 59.3438H153.717C152.48 59.3438 150.947 58.5443 149.752 57.2832L139.062 40.4114C138.893 40.1437 138.704 39.8888 138.498 39.649C134.805 35.3425 129.814 32.9688 124.457 32.9688H86.543C81.1855 32.9688 76.1949 35.3425 72.5024 39.649C72.2956 39.8888 72.1069 40.1437 71.9378 40.4114L61.2477 57.3079C60.3328 58.3052 59.047 59.3685 57.6953 59.3685V56.0716C57.6953 54.3228 57.0006 52.6457 55.764 51.4091C54.5275 50.1725 52.8503 49.4778 51.1016 49.4778H41.2109C39.4622 49.4778 37.785 50.1725 36.5485 51.4091C35.3119 52.6457 34.6172 54.3228 34.6172 56.0716V59.3685H32.9688C27.7241 59.3739 22.6958 61.4598 18.9873 65.1683C15.2788 68.8768 13.193 73.9051 13.1875 79.1497V158.25C13.193 163.495 15.2788 168.523 18.9873 172.231C22.6958 175.94 27.7241 178.026 32.9688 178.031H178.031C183.276 178.026 188.304 175.94 192.013 172.231C195.721 168.523 197.807 163.495 197.812 158.25V79.125C197.807 73.8804 195.721 68.8521 192.013 65.1436C188.304 61.435 183.276 59.3492 178.031 59.3438ZM130.573 142.713C125.185 147.119 118.731 150.026 111.862 151.142C104.993 152.258 97.9504 151.544 91.4452 149.071C84.94 146.597 79.2018 142.453 74.8089 137.055C70.4161 131.657 67.5238 125.197 66.4238 118.325C65.016 118.803 63.488 118.79 62.0879 118.291C60.6879 117.791 59.4978 116.832 58.7108 115.571C57.9239 114.31 57.5863 112.82 57.7528 111.342C57.9193 109.865 58.5802 108.487 59.6281 107.433L67.8703 99.1906C69.1067 97.955 70.7832 97.2609 72.5312 97.2609C74.2793 97.2609 75.9558 97.955 77.1922 99.1906L85.4344 107.433C86.3559 108.355 86.9834 109.53 87.2376 110.808C87.4918 112.087 87.3612 113.412 86.8624 114.617C86.3636 115.821 85.5189 116.851 84.4351 117.575C83.3514 118.3 82.0771 118.687 80.7734 118.688C80.4978 118.684 80.2226 118.665 79.9492 118.63C81.0525 122.927 83.2209 126.877 86.2541 130.115C89.2874 133.353 93.0877 135.775 97.304 137.156C101.52 138.537 106.017 138.834 110.378 138.018C114.739 137.202 118.824 135.301 122.256 132.489C122.927 131.938 123.7 131.524 124.531 131.272C125.362 131.021 126.235 130.936 127.099 131.022C127.963 131.108 128.802 131.364 129.566 131.776C130.331 132.187 131.007 132.745 131.555 133.419C132.104 134.092 132.514 134.867 132.762 135.699C133.01 136.531 133.091 137.404 133.001 138.268C132.911 139.131 132.651 139.969 132.237 140.732C131.822 141.494 131.261 142.168 130.585 142.713H130.573ZM151.372 116.751L143.13 124.993C141.893 126.228 140.217 126.923 138.469 126.923C136.721 126.923 135.044 126.228 133.808 124.993L125.566 116.751C124.602 115.784 123.962 114.542 123.734 113.196C123.506 111.849 123.701 110.466 124.293 109.236C124.885 108.005 125.845 106.989 127.039 106.328C128.233 105.666 129.603 105.391 130.96 105.541C129.858 101.236 127.687 97.2796 124.647 94.0383C121.608 90.797 117.798 88.3762 113.573 87.0007C109.348 85.6251 104.843 85.3394 100.478 86.17C96.113 87.0007 92.0283 88.9208 88.6035 91.752C87.9413 92.338 87.1679 92.7847 86.3295 93.0657C85.4911 93.3467 84.6048 93.4562 83.7232 93.3877C82.8416 93.3192 81.9828 93.074 81.1979 92.6668C80.413 92.2597 79.718 91.6988 79.1542 91.0175C78.5905 90.3363 78.1695 89.5486 77.9164 88.7014C77.6633 87.8541 77.5831 86.9646 77.6807 86.0858C77.7784 85.207 78.0518 84.3567 78.4847 83.5857C78.9176 82.8147 79.5011 82.1386 80.2006 81.5977C85.58 77.1494 92.0405 74.2037 98.9264 73.0594C105.812 71.9151 112.878 72.613 119.407 75.0823C125.936 77.5515 131.696 81.7043 136.101 87.1189C140.506 92.5336 143.4 99.0174 144.49 105.912C145.898 105.41 147.435 105.402 148.849 105.888C150.263 106.375 151.47 107.328 152.271 108.59C153.072 109.853 153.42 111.35 153.258 112.837C153.096 114.323 152.434 115.711 151.38 116.771L151.372 116.751Z" fill="#2E3142"/>
</svg>
