<svg width="260" height="261" viewBox="0 0 260 261" fill="none" xmlns="http://www.w3.org/2000/svg">
<path d="M48.7207 38.8462L211.475 42.4146L235.342 168.072L25.1074 170.875L48.7207 38.8462Z" fill="#FFBA6D"/>
<path d="M243.577 136.974L227.327 59.5865C224.189 42.7031 212.103 32.625 195 32.625H65C56.4688 32.625 49.2579 35.0158 43.6211 39.7311C37.9844 44.4465 34.2926 51.104 32.6625 59.5559L16.4125 136.974C16.3028 137.528 16.2483 138.091 16.25 138.656V195.75C16.25 204.403 19.6741 212.701 25.7691 218.819C31.864 224.938 40.1305 228.375 48.75 228.375H211.25C219.87 228.375 228.136 224.938 234.231 218.819C240.326 212.701 243.75 204.403 243.75 195.75V138.656C243.748 138.091 243.691 137.528 243.577 136.974ZM48.5774 62.8541V62.7114C50.3801 53.3164 55.5903 48.9477 64.9746 48.9477H195C204.45 48.9477 209.661 53.3062 211.387 62.6655C211.387 62.7318 211.413 62.798 211.423 62.8643L225.098 128.053C225.16 128.35 225.155 128.657 225.084 128.952C225.013 129.247 224.877 129.522 224.686 129.758C224.495 129.993 224.254 130.183 223.981 130.313C223.708 130.443 223.41 130.511 223.107 130.51H162.5C160.358 130.499 158.299 131.343 156.775 132.855C155.252 134.367 154.388 136.424 154.375 138.575C154.375 145.064 151.807 151.288 147.236 155.877C142.665 160.465 136.465 163.043 130 163.043C123.535 163.043 117.336 160.465 112.764 155.877C108.193 151.288 105.625 145.064 105.625 138.575C105.62 137.509 105.405 136.455 104.994 135.472C104.583 134.49 103.983 133.598 103.228 132.848C102.474 132.098 101.58 131.505 100.597 131.102C99.614 130.699 98.5617 130.495 97.5 130.5H36.8926C36.5903 130.5 36.2918 130.433 36.0187 130.303C35.7456 130.173 35.505 129.983 35.3142 129.748C35.1235 129.512 34.9875 129.237 34.9162 128.942C34.8449 128.647 34.84 128.34 34.902 128.043L48.5774 62.8541Z" fill="#2E3142"/>
<path d="M186.875 81.5625H73.125C70.9701 81.5625 68.9035 80.7032 67.3798 79.1736C65.856 77.644 65 75.5694 65 73.4062C65 71.2431 65.856 69.1685 67.3798 67.6389C68.9035 66.1093 70.9701 65.25 73.125 65.25H186.875C189.03 65.25 191.097 66.1093 192.62 67.6389C194.144 69.1685 195 71.2431 195 73.4062C195 75.5694 194.144 77.644 192.62 79.1736C191.097 80.7032 189.03 81.5625 186.875 81.5625ZM195 114.188H65C62.8451 114.188 60.7785 113.328 59.2548 111.799C57.731 110.269 56.875 108.194 56.875 106.031C56.875 103.868 57.731 101.794 59.2548 100.264C60.7785 98.7343 62.8451 97.875 65 97.875H195C197.155 97.875 199.222 98.7343 200.745 100.264C202.269 101.794 203.125 103.868 203.125 106.031C203.125 108.194 202.269 110.269 200.745 111.799C199.222 113.328 197.155 114.188 195 114.188Z" fill="#2E3142"/>
</svg>
