<svg width="96" height="96" viewBox="0 0 96 96" fill="none" xmlns="http://www.w3.org/2000/svg">
<g clip-path="url(#clip0_473_1956)">
<path d="M48 8C28.12 8 12 24.12 12 44C12 60.68 23.36 74.68 38.76 78.76L48 88L57.24 78.76C72.64 74.68 84 60.68 84 44C84 24.12 67.88 8 48 8ZM48 16C54.64 16 60 21.36 60 28C60 34.64 54.64 40 48 40C41.36 40 36 34.64 36 28C36 21.36 41.36 16 48 16ZM48 73.2C38 73.2 29.16 68.08 24 60.32C24.12 52.36 40 48 48 48C55.96 48 71.88 52.36 72 60.32C66.84 68.08 58 73.2 48 73.2Z" fill="#5572DA"/>
</g>
<defs>
<clipPath id="clip0_473_1956">
<rect width="96" height="96" fill="white"/>
</clipPath>
</defs>
</svg>
