<svg width="133" height="94" viewBox="0 0 133 94" fill="none" xmlns="http://www.w3.org/2000/svg">
<path d="M47.0001 82.25C45.8209 82.2485 44.6694 81.8922 43.6954 81.2274C29.2668 71.4327 23.0191 64.7168 19.573 60.518C12.2293 51.5678 8.71344 42.3789 8.81259 32.4282C8.92825 21.0252 18.0767 11.75 29.2062 11.75C37.299 11.75 42.9041 16.3086 46.1684 20.1054C46.2718 20.2244 46.3996 20.3199 46.5431 20.3853C46.6865 20.4507 46.8424 20.4846 47.0001 20.4846C47.1578 20.4846 47.3136 20.4507 47.4571 20.3853C47.6006 20.3199 47.7284 20.2244 47.8318 20.1054C51.0961 16.305 56.7012 11.75 64.794 11.75C75.9234 11.75 85.0719 21.0252 85.1876 32.43C85.2867 42.3826 81.7672 51.5715 74.4272 60.5198C70.9811 64.7186 64.7334 71.4345 50.3048 81.2292C49.3306 81.8934 48.1791 82.2491 47.0001 82.25Z" fill="#CBACF8"/>
<path d="M33.188 56V52.22L42.908 43.04C43.676 42.344 44.24 41.72 44.6 41.168C44.96 40.616 45.2 40.112 45.32 39.656C45.464 39.2 45.536 38.78 45.536 38.396C45.536 37.388 45.188 36.62 44.492 36.092C43.82 35.54 42.824 35.264 41.504 35.264C40.448 35.264 39.464 35.468 38.552 35.876C37.664 36.284 36.908 36.92 36.284 37.784L32.036 35.048C32.996 33.608 34.34 32.468 36.068 31.628C37.796 30.788 39.788 30.368 42.044 30.368C43.916 30.368 45.548 30.68 46.94 31.304C48.356 31.904 49.448 32.756 50.216 33.86C51.008 34.964 51.404 36.284 51.404 37.82C51.404 38.636 51.296 39.452 51.08 40.268C50.888 41.06 50.48 41.9 49.856 42.788C49.256 43.676 48.368 44.672 47.192 45.776L39.128 53.372L38.012 51.248H52.232V56H33.188ZM65.4384 56.432C63.3744 56.432 61.5264 55.928 59.8944 54.92C58.2624 53.888 56.9784 52.4 56.0424 50.456C55.1064 48.512 54.6384 46.16 54.6384 43.4C54.6384 40.64 55.1064 38.288 56.0424 36.344C56.9784 34.4 58.2624 32.924 59.8944 31.916C61.5264 30.884 63.3744 30.368 65.4384 30.368C67.5264 30.368 69.3744 30.884 70.9824 31.916C72.6144 32.924 73.8984 34.4 74.8344 36.344C75.7704 38.288 76.2384 40.64 76.2384 43.4C76.2384 46.16 75.7704 48.512 74.8344 50.456C73.8984 52.4 72.6144 53.888 70.9824 54.92C69.3744 55.928 67.5264 56.432 65.4384 56.432ZM65.4384 51.5C66.4224 51.5 67.2744 51.224 67.9944 50.672C68.7384 50.12 69.3144 49.244 69.7224 48.044C70.1544 46.844 70.3704 45.296 70.3704 43.4C70.3704 41.504 70.1544 39.956 69.7224 38.756C69.3144 37.556 68.7384 36.68 67.9944 36.128C67.2744 35.576 66.4224 35.3 65.4384 35.3C64.4784 35.3 63.6264 35.576 62.8824 36.128C62.1624 36.68 61.5864 37.556 61.1544 38.756C60.7464 39.956 60.5424 41.504 60.5424 43.4C60.5424 45.296 60.7464 46.844 61.1544 48.044C61.5864 49.244 62.1624 50.12 62.8824 50.672C63.6264 51.224 64.4784 51.5 65.4384 51.5ZM89.872 56.432C87.808 56.432 85.96 55.928 84.328 54.92C82.696 53.888 81.412 52.4 80.476 50.456C79.54 48.512 79.072 46.16 79.072 43.4C79.072 40.64 79.54 38.288 80.476 36.344C81.412 34.4 82.696 32.924 84.328 31.916C85.96 30.884 87.808 30.368 89.872 30.368C91.96 30.368 93.808 30.884 95.416 31.916C97.048 32.924 98.332 34.4 99.268 36.344C100.204 38.288 100.672 40.64 100.672 43.4C100.672 46.16 100.204 48.512 99.268 50.456C98.332 52.4 97.048 53.888 95.416 54.92C93.808 55.928 91.96 56.432 89.872 56.432ZM89.872 51.5C90.856 51.5 91.708 51.224 92.428 50.672C93.172 50.12 93.748 49.244 94.156 48.044C94.588 46.844 94.804 45.296 94.804 43.4C94.804 41.504 94.588 39.956 94.156 38.756C93.748 37.556 93.172 36.68 92.428 36.128C91.708 35.576 90.856 35.3 89.872 35.3C88.912 35.3 88.06 35.576 87.316 36.128C86.596 36.68 86.02 37.556 85.588 38.756C85.18 39.956 84.976 41.504 84.976 43.4C84.976 45.296 85.18 46.844 85.588 48.044C86.02 49.244 86.596 50.12 87.316 50.672C88.06 51.224 88.912 51.5 89.872 51.5Z" fill="#2E3142"/>
<path d="M110.562 51.716V35.084H115.206V51.716H110.562ZM104.334 45.596V41.204H121.47V45.596H104.334Z" fill="#D47205"/>
</svg>
