<svg width="229" height="201" viewBox="0 0 229 201" fill="none" xmlns="http://www.w3.org/2000/svg">
<rect x="92" y="74" width="45" height="69" fill="#CBACF8"/>
<path d="M211.422 70.7568C205.492 66.9864 198.081 64.2447 189.918 62.7374C188.542 62.474 187.274 61.8127 186.271 60.8356C185.268 59.8585 184.573 58.6085 184.273 57.2405C180.758 41.8053 173.271 28.5573 162.29 18.5162C149.454 6.77549 132.485 0.3125 114.5 0.3125C98.6892 0.3125 84.0859 5.2682 72.2915 14.625C64.3258 20.976 57.9095 29.0563 53.5288 38.254C53.0414 39.2912 52.3129 40.1966 51.404 40.8946C50.4952 41.5925 49.4325 42.0628 48.3047 42.266C36.1704 44.4576 25.7044 48.8319 17.7072 55.1025C6.12754 64.1955 0 77.0454 0 92.2703C0 122.416 25.0156 143.438 60.8281 143.438H107.344V86.3888C107.344 82.5378 110.305 79.2325 114.156 79.0402C115.123 78.9936 116.09 79.1439 116.998 79.482C117.906 79.8202 118.735 80.3391 119.437 81.0074C120.138 81.6756 120.696 82.4793 121.078 83.3698C121.459 84.2602 121.656 85.2188 121.656 86.1875V143.438H177.117C209.607 143.438 229 128.123 229 102.468C229 89.0276 222.922 78.0607 211.422 70.7568ZM107.344 176.276L90.9291 159.888C89.5791 158.58 87.7686 157.855 85.8888 157.871C84.0089 157.887 82.2108 158.642 80.883 159.972C79.5552 161.303 78.8043 163.103 78.7927 164.983C78.7811 166.862 79.5096 168.671 80.8209 170.019L109.446 198.594C110.787 199.933 112.605 200.684 114.5 200.684C116.395 200.684 118.213 199.933 119.554 198.594L148.179 170.019C149.49 168.671 150.219 166.862 150.207 164.983C150.196 163.103 149.445 161.303 148.117 159.972C146.789 158.642 144.991 157.887 143.111 157.871C141.231 157.855 139.421 158.58 138.071 159.888L121.656 176.276V143.438H107.344V176.276Z" fill="#5572DA"/>
</svg>
