<svg width="320" height="110" viewBox="0 0 320 110" fill="none" xmlns="http://www.w3.org/2000/svg">
<path d="M0 30C0 13.4315 13.4315 0 30 0H290C306.569 0 320 13.4315 320 30V80C320 96.5685 306.569 110 290 110H30C13.4315 110 0 96.5685 0 80V30Z" fill="#5C6284"/>
<path d="M0 30C0 13.4315 13.4315 0 30 0H109V110H30C13.4315 110 0 96.5685 0 80V30Z" fill="#FFBA6D"/>
<path d="M136.414 48V27.6397H140.312L148.979 42.0083H146.914L155.436 27.6397H159.305L159.363 48H154.942L154.913 34.4168H155.727L148.921 45.8476H146.798L139.846 34.4168H140.835V48H136.414ZM173.472 48V44.946L173.181 44.277V38.8088C173.181 37.8393 172.881 37.083 172.28 36.5401C171.698 35.9971 170.796 35.7257 169.575 35.7257C168.741 35.7257 167.917 35.8614 167.102 36.1329C166.307 36.385 165.629 36.734 165.066 37.18L163.437 34.0096C164.291 33.4085 165.318 32.9431 166.521 32.6135C167.723 32.2838 168.944 32.119 170.185 32.119C172.57 32.119 174.422 32.6813 175.741 33.806C177.059 34.9306 177.719 36.6855 177.719 39.0706V48H173.472ZM168.702 48.2327C167.48 48.2327 166.433 48.0291 165.561 47.6219C164.688 47.1953 164.019 46.6233 163.554 45.9058C163.088 45.1883 162.856 44.3836 162.856 43.4917C162.856 42.5609 163.079 41.7465 163.525 41.0484C163.99 40.3504 164.717 39.8074 165.706 39.4196C166.695 39.0124 167.985 38.8088 169.575 38.8088H173.734V41.4556H170.069C169.003 41.4556 168.266 41.6301 167.858 41.9792C167.471 42.3282 167.277 42.7645 167.277 43.2881C167.277 43.8698 167.5 44.3352 167.946 44.6842C168.411 45.0138 169.041 45.1786 169.836 45.1786C170.593 45.1786 171.271 45.0041 171.872 44.6551C172.473 44.2867 172.91 43.7534 173.181 43.0554L173.879 45.1496C173.55 46.1579 172.949 46.9238 172.076 47.4474C171.203 47.9709 170.079 48.2327 168.702 48.2327ZM191.336 32.119C192.577 32.119 193.683 32.3711 194.652 32.8752C195.641 33.36 196.417 34.1162 196.979 35.1439C197.541 36.1523 197.823 37.4514 197.823 39.0415V48H193.285V39.7395C193.285 38.4792 193.004 37.5484 192.442 36.9473C191.899 36.3462 191.123 36.0456 190.115 36.0456C189.397 36.0456 188.748 36.2007 188.166 36.511C187.604 36.8019 187.158 37.2575 186.828 37.878C186.518 38.4985 186.363 39.2936 186.363 40.2631V48H181.825V32.3517H186.159V36.6855L185.345 35.3766C185.907 34.3295 186.712 33.5248 187.759 32.9625C188.806 32.4002 189.998 32.119 191.336 32.119ZM208.538 48.2327C207.239 48.2327 206.075 47.9806 205.048 47.4765C204.039 46.9723 203.254 46.2064 202.692 45.1786C202.129 44.1315 201.848 42.8033 201.848 41.1939V32.3517H206.386V40.5249C206.386 41.8241 206.657 42.7839 207.2 43.4044C207.762 44.0055 208.548 44.3061 209.556 44.3061C210.254 44.3061 210.875 44.1606 211.418 43.8698C211.961 43.5595 212.387 43.0941 212.697 42.4736C213.008 41.8337 213.163 41.0387 213.163 40.0886V32.3517H217.7V48H213.395V43.6953L214.181 44.946C213.657 46.0318 212.882 46.8559 211.854 47.4183C210.846 47.9612 209.74 48.2327 208.538 48.2327ZM231.502 48V44.946L231.211 44.277V38.8088C231.211 37.8393 230.911 37.083 230.31 36.5401C229.728 35.9971 228.826 35.7257 227.605 35.7257C226.771 35.7257 225.947 35.8614 225.132 36.1329C224.337 36.385 223.659 36.734 223.096 37.18L221.468 34.0096C222.321 33.4085 223.348 32.9431 224.551 32.6135C225.753 32.2838 226.975 32.119 228.216 32.119C230.601 32.119 232.452 32.6813 233.771 33.806C235.09 34.9306 235.749 36.6855 235.749 39.0706V48H231.502ZM226.732 48.2327C225.511 48.2327 224.463 48.0291 223.591 47.6219C222.718 47.1953 222.049 46.6233 221.584 45.9058C221.119 45.1883 220.886 44.3836 220.886 43.4917C220.886 42.5609 221.109 41.7465 221.555 41.0484C222.02 40.3504 222.747 39.8074 223.736 39.4196C224.725 39.0124 226.015 38.8088 227.605 38.8088H231.764V41.4556H228.099C227.033 41.4556 226.296 41.6301 225.889 41.9792C225.501 42.3282 225.307 42.7645 225.307 43.2881C225.307 43.8698 225.53 44.3352 225.976 44.6842C226.441 45.0138 227.071 45.1786 227.867 45.1786C228.623 45.1786 229.301 45.0041 229.903 44.6551C230.504 44.2867 230.94 43.7534 231.211 43.0554L231.909 45.1496C231.58 46.1579 230.979 46.9238 230.106 47.4474C229.234 47.9709 228.109 48.2327 226.732 48.2327ZM239.855 48V26.4181H244.393V48H239.855ZM256.37 48.2327C254.586 48.2327 253.015 47.8837 251.658 47.1856C250.32 46.4875 249.283 45.5374 248.546 44.3352C247.809 43.1135 247.441 41.7271 247.441 40.1758C247.441 38.6052 247.799 37.2188 248.517 36.0165C249.254 34.7949 250.252 33.8448 251.513 33.1661C252.773 32.468 254.198 32.119 255.788 32.119C257.32 32.119 258.697 32.4486 259.918 33.1079C261.159 33.7478 262.139 34.6786 262.856 35.9002C263.574 37.1024 263.932 38.547 263.932 40.234C263.932 40.4085 263.923 40.6121 263.903 40.8448C263.884 41.0581 263.864 41.2617 263.845 41.4556H251.134V38.8088H261.46L259.715 39.5941C259.715 38.7797 259.55 38.0719 259.22 37.4708C258.891 36.8697 258.435 36.4043 257.853 36.0747C257.272 35.7257 256.593 35.5512 255.817 35.5512C255.042 35.5512 254.353 35.7257 253.752 36.0747C253.17 36.4043 252.715 36.8794 252.385 37.4999C252.056 38.101 251.891 38.8185 251.891 39.6523V40.3504C251.891 41.2035 252.075 41.9598 252.443 42.6191C252.831 43.259 253.364 43.7534 254.043 44.1025C254.741 44.4321 255.556 44.5969 256.486 44.5969C257.32 44.5969 258.047 44.4709 258.668 44.2188C259.308 43.9667 259.889 43.5886 260.413 43.0845L262.827 45.7022C262.11 46.5166 261.208 47.1468 260.122 47.5928C259.036 48.0194 257.785 48.2327 256.37 48.2327ZM272.218 48.2327C270.88 48.2327 269.59 48.0776 268.349 47.7673C267.128 47.4377 266.158 47.0305 265.441 46.5457L266.953 43.2881C267.671 43.734 268.514 44.1025 269.484 44.3933C270.473 44.6648 271.442 44.8005 272.392 44.8005C273.439 44.8005 274.176 44.6745 274.603 44.4224C275.049 44.1703 275.272 43.8213 275.272 43.3753C275.272 43.0069 275.097 42.7354 274.748 42.5609C274.419 42.367 273.973 42.2216 273.41 42.1246C272.848 42.0277 272.227 41.9307 271.549 41.8337C270.89 41.7368 270.221 41.6108 269.542 41.4556C268.863 41.2811 268.243 41.029 267.68 40.6994C267.118 40.3697 266.662 39.9238 266.313 39.3614C265.984 38.7991 265.819 38.0719 265.819 37.18C265.819 36.191 266.1 35.3185 266.662 34.5622C267.244 33.806 268.078 33.2146 269.164 32.788C270.25 32.342 271.549 32.119 273.061 32.119C274.128 32.119 275.214 32.2353 276.319 32.468C277.424 32.7007 278.345 33.0401 279.082 33.486L277.57 36.7146C276.813 36.2686 276.047 35.9681 275.272 35.8129C274.516 35.6384 273.779 35.5512 273.061 35.5512C272.053 35.5512 271.316 35.6869 270.851 35.9584C270.385 36.2298 270.153 36.5789 270.153 37.0055C270.153 37.3933 270.317 37.6841 270.647 37.878C270.996 38.0719 271.452 38.2271 272.014 38.3434C272.577 38.4598 273.187 38.5664 273.847 38.6634C274.525 38.7409 275.204 38.867 275.883 39.0415C276.561 39.216 277.172 39.4681 277.715 39.7977C278.277 40.108 278.733 40.5443 279.082 41.1066C279.431 41.6495 279.606 42.367 279.606 43.259C279.606 44.2285 279.315 45.0914 278.733 45.8476C278.151 46.5845 277.308 47.1662 276.203 47.5928C275.117 48.0194 273.788 48.2327 272.218 48.2327ZM142.813 83.2327C141.339 83.2327 140.011 82.903 138.828 82.2438C137.645 81.5651 136.705 80.6246 136.007 79.4224C135.328 78.2202 134.989 76.8047 134.989 75.1758C134.989 73.5276 135.328 72.1024 136.007 70.9002C136.705 69.698 137.645 68.7672 138.828 68.1079C140.011 67.4486 141.339 67.119 142.813 67.119C144.132 67.119 145.285 67.4099 146.274 67.9916C147.263 68.5733 148.029 69.4556 148.572 70.6384C149.115 71.8212 149.387 73.3337 149.387 75.1758C149.387 76.9986 149.125 78.511 148.601 79.7133C148.078 80.8961 147.321 81.7784 146.333 82.3601C145.363 82.9418 144.19 83.2327 142.813 83.2327ZM143.598 79.5097C144.335 79.5097 145.004 79.3352 145.605 78.9861C146.206 78.6371 146.682 78.1426 147.031 77.5027C147.399 76.8434 147.583 76.0678 147.583 75.1758C147.583 74.2645 147.399 73.4888 147.031 72.849C146.682 72.2091 146.206 71.7146 145.605 71.3656C145.004 71.0165 144.335 70.842 143.598 70.842C142.842 70.842 142.163 71.0165 141.562 71.3656C140.961 71.7146 140.477 72.2091 140.108 72.849C139.759 73.4888 139.585 74.2645 139.585 75.1758C139.585 76.0678 139.759 76.8434 140.108 77.5027C140.477 78.1426 140.961 78.6371 141.562 78.9861C142.163 79.3352 142.842 79.5097 143.598 79.5097ZM147.7 83V79.8005L147.787 75.1468L147.496 70.5221V61.4181H152.033V83H147.7ZM163.999 83.2327C162.215 83.2327 160.644 82.8837 159.287 82.1856C157.949 81.4875 156.912 80.5374 156.175 79.3352C155.438 78.1135 155.069 76.7271 155.069 75.1758C155.069 73.6052 155.428 72.2188 156.146 71.0165C156.882 69.7949 157.881 68.8448 159.142 68.1661C160.402 67.468 161.827 67.119 163.417 67.119C164.949 67.119 166.326 67.4486 167.547 68.1079C168.788 68.7478 169.768 69.6786 170.485 70.9002C171.203 72.1024 171.561 73.547 171.561 75.234C171.561 75.4085 171.552 75.6121 171.532 75.8448C171.513 76.0581 171.493 76.2617 171.474 76.4556H158.763V73.8088H169.089L167.344 74.5941C167.344 73.7797 167.179 73.0719 166.849 72.4708C166.52 71.8697 166.064 71.4043 165.482 71.0747C164.901 70.7257 164.222 70.5512 163.446 70.5512C162.671 70.5512 161.982 70.7257 161.381 71.0747C160.799 71.4043 160.344 71.8794 160.014 72.4999C159.684 73.101 159.52 73.8185 159.52 74.6523V75.3504C159.52 76.2035 159.704 76.9598 160.072 77.6191C160.46 78.259 160.993 78.7534 161.672 79.1025C162.37 79.4321 163.184 79.5969 164.115 79.5969C164.949 79.5969 165.676 79.4709 166.297 79.2188C166.937 78.9667 167.518 78.5886 168.042 78.0845L170.456 80.7022C169.739 81.5166 168.837 82.1468 167.751 82.5928C166.665 83.0194 165.414 83.2327 163.999 83.2327ZM192.418 83V79.946L192.127 79.277V73.8088C192.127 72.8393 191.826 72.083 191.225 71.5401C190.644 70.9971 189.742 70.7257 188.52 70.7257C187.686 70.7257 186.862 70.8614 186.048 71.1329C185.253 71.385 184.574 71.734 184.012 72.18L182.383 69.0096C183.236 68.4085 184.264 67.9431 185.466 67.6135C186.668 67.2838 187.89 67.119 189.131 67.119C191.516 67.119 193.368 67.6813 194.687 68.806C196.005 69.9306 196.664 71.6855 196.664 74.0706V83H192.418ZM187.648 83.2327C186.426 83.2327 185.379 83.0291 184.506 82.6219C183.634 82.1953 182.965 81.6233 182.499 80.9058C182.034 80.1883 181.801 79.3836 181.801 78.4917C181.801 77.5609 182.024 76.7465 182.47 76.0484C182.936 75.3504 183.663 74.8074 184.652 74.4196C185.641 74.0124 186.93 73.8088 188.52 73.8088H192.68V76.4556H189.015C187.948 76.4556 187.211 76.6301 186.804 76.9792C186.416 77.3282 186.222 77.7645 186.222 78.2881C186.222 78.8698 186.445 79.3352 186.891 79.6842C187.357 80.0138 187.987 80.1786 188.782 80.1786C189.538 80.1786 190.217 80.0041 190.818 79.6551C191.419 79.2867 191.855 78.7534 192.127 78.0554L192.825 80.1496C192.495 81.1579 191.894 81.9238 191.022 82.4474C190.149 82.9709 189.024 83.2327 187.648 83.2327ZM202.465 88.8754C201.65 88.8754 200.846 88.7494 200.051 88.4973C199.256 88.2452 198.606 87.8962 198.102 87.4502L199.76 84.2216C200.109 84.5319 200.506 84.7743 200.952 84.9488C201.418 85.1233 201.873 85.2105 202.319 85.2105C202.959 85.2105 203.463 85.0554 203.832 84.7452C204.22 84.4543 204.569 83.9598 204.879 83.2618L205.693 81.3421L206.042 80.8476L211.656 67.3517H216.019L208.951 83.9598C208.447 85.2202 207.865 86.2092 207.206 86.9266C206.566 87.6441 205.848 88.1482 205.053 88.4391C204.278 88.73 203.415 88.8754 202.465 88.8754ZM205.141 83.6108L198.16 67.3517H202.843L208.253 80.4404L205.141 83.6108ZM224.473 83.2327C223.174 83.2327 222.01 82.9806 220.983 82.4765C219.974 81.9723 219.189 81.2064 218.627 80.1786C218.064 79.1315 217.783 77.8033 217.783 76.1939V67.3517H222.321V75.5249C222.321 76.8241 222.592 77.7839 223.135 78.4044C223.697 79.0055 224.483 79.3061 225.491 79.3061C226.189 79.3061 226.81 79.1606 227.352 78.8698C227.895 78.5595 228.322 78.0941 228.632 77.4736C228.943 76.8337 229.098 76.0387 229.098 75.0886V67.3517H233.635V83H229.33V78.6953L230.116 79.946C229.592 81.0318 228.816 81.8559 227.789 82.4183C226.78 82.9612 225.675 83.2327 224.473 83.2327ZM244.558 83.2327C243.084 83.2327 241.756 82.903 240.573 82.2438C239.39 81.5651 238.45 80.6246 237.751 79.4224C237.073 78.2202 236.733 76.8047 236.733 75.1758C236.733 73.5276 237.073 72.1024 237.751 70.9002C238.45 69.698 239.39 68.7672 240.573 68.1079C241.756 67.4486 243.084 67.119 244.558 67.119C245.876 67.119 247.03 67.4099 248.019 67.9916C249.008 68.5733 249.774 69.4556 250.317 70.6384C250.86 71.8212 251.131 73.3337 251.131 75.1758C251.131 76.9986 250.869 78.511 250.346 79.7133C249.822 80.8961 249.066 81.7784 248.077 82.3601C247.107 82.9418 245.934 83.2327 244.558 83.2327ZM245.343 79.5097C246.08 79.5097 246.749 79.3352 247.35 78.9861C247.951 78.6371 248.426 78.1426 248.775 77.5027C249.144 76.8434 249.328 76.0678 249.328 75.1758C249.328 74.2645 249.144 73.4888 248.775 72.849C248.426 72.2091 247.951 71.7146 247.35 71.3656C246.749 71.0165 246.08 70.842 245.343 70.842C244.587 70.842 243.908 71.0165 243.307 71.3656C242.706 71.7146 242.221 72.2091 241.853 72.849C241.504 73.4888 241.329 74.2645 241.329 75.1758C241.329 76.0678 241.504 76.8434 241.853 77.5027C242.221 78.1426 242.706 78.6371 243.307 78.9861C243.908 79.3352 244.587 79.5097 245.343 79.5097ZM249.444 83V79.8005L249.531 75.1468L249.24 70.5221V61.4181H253.778V83H249.444ZM267.576 83V79.946L267.285 79.277V73.8088C267.285 72.8393 266.984 72.083 266.383 71.5401C265.802 70.9971 264.9 70.7257 263.678 70.7257C262.844 70.7257 262.02 70.8614 261.206 71.1329C260.411 71.385 259.732 71.734 259.17 72.18L257.541 69.0096C258.394 68.4085 259.422 67.9431 260.624 67.6135C261.826 67.2838 263.048 67.119 264.289 67.119C266.674 67.119 268.526 67.6813 269.845 68.806C271.163 69.9306 271.822 71.6855 271.822 74.0706V83H267.576ZM262.806 83.2327C261.584 83.2327 260.537 83.0291 259.664 82.6219C258.792 82.1953 258.123 81.6233 257.657 80.9058C257.192 80.1883 256.959 79.3836 256.959 78.4917C256.959 77.5609 257.182 76.7465 257.628 76.0484C258.094 75.3504 258.821 74.8074 259.81 74.4196C260.799 74.0124 262.088 73.8088 263.678 73.8088H267.838V76.4556H264.173C263.106 76.4556 262.369 76.6301 261.962 76.9792C261.574 77.3282 261.38 77.7645 261.38 78.2881C261.38 78.8698 261.603 79.3352 262.049 79.6842C262.515 80.0138 263.145 80.1786 263.94 80.1786C264.696 80.1786 265.375 80.0041 265.976 79.6551C266.577 79.2867 267.014 78.7534 267.285 78.0554L267.983 80.1496C267.653 81.1579 267.052 81.9238 266.18 82.4474C265.307 82.9709 264.182 83.2327 262.806 83.2327Z" fill="white"/>
</svg>
