<svg width="229" height="229" viewBox="0 0 229 229" fill="none" xmlns="http://www.w3.org/2000/svg">
<path d="M211.422 84.7568C205.492 80.9864 198.081 78.2447 189.918 76.7374C188.542 76.474 187.274 75.8127 186.271 74.8356C185.268 73.8585 184.573 72.6085 184.273 71.2405C180.758 55.8053 173.271 42.5573 162.29 32.5162C149.454 20.7755 132.485 14.3125 114.5 14.3125C98.6892 14.3125 84.0859 19.2682 72.2915 28.625C64.3258 34.976 57.9095 43.0563 53.5288 52.254C53.0414 53.2912 52.3129 54.1966 51.404 54.8946C50.4952 55.5925 49.4325 56.0628 48.3047 56.266C36.1704 58.4576 25.7044 62.8319 17.7072 69.1025C6.12754 78.1955 0 91.0454 0 106.27C0 136.416 25.0156 157.438 60.8281 157.438H107.344V100.389C107.344 96.5378 110.305 93.2325 114.156 93.0402C115.123 92.9936 116.09 93.1439 116.998 93.482C117.906 93.8202 118.735 94.3391 119.437 95.0074C120.138 95.6756 120.696 96.4793 121.078 97.3698C121.459 98.2602 121.656 99.2188 121.656 100.188V157.438H177.117C209.607 157.438 229 142.123 229 116.468C229 103.028 222.922 92.0607 211.422 84.7568ZM107.344 190.276L90.9291 173.888C89.5791 172.58 87.7686 171.855 85.8888 171.871C84.0089 171.887 82.2108 172.641 80.883 173.972C79.5552 175.303 78.8043 177.103 78.7927 178.983C78.7811 180.863 79.5096 182.671 80.8209 184.019L109.446 212.594C110.787 213.933 112.605 214.684 114.5 214.684C116.395 214.684 118.213 213.933 119.554 212.594L148.179 184.019C149.49 182.671 150.219 180.863 150.207 178.983C150.196 177.103 149.445 175.303 148.117 173.972C146.789 172.641 144.991 171.887 143.111 171.871C141.231 171.855 139.421 172.58 138.071 173.888L121.656 190.276V157.438H107.344V190.276Z" fill="#5572DA"/>
</svg>
