<svg width="256" height="281" viewBox="0 0 256 281" fill="none" xmlns="http://www.w3.org/2000/svg">
<g filter="url(#filter0_d_787_2081)">
<path d="M14 30C14 18.9543 22.9543 10 34 10H222C233.046 10 242 18.9543 242 30V242.554C242 253.6 233.046 262.554 222 262.554H34C22.9543 262.554 14 253.6 14 242.554V30Z" fill="white"/>
</g>
<path d="M115.477 187H102.469C99.8584 187 97.3546 185.963 95.5086 184.117C93.6625 182.271 92.6254 179.767 92.6254 177.156V105.437C96.9587 103.039 100.379 99.2773 102.357 94.7364C104.335 90.1956 104.759 85.129 103.564 80.3226C102.368 75.5161 99.6206 71.2383 95.7465 68.1526C91.8723 65.0669 87.0883 63.3457 82.1363 63.2559C77.1842 63.1662 72.341 64.7129 68.3576 67.6562C64.3741 70.5995 61.4732 74.7749 60.1046 79.5349C58.736 84.2949 58.9762 89.3735 60.788 93.983C62.5998 98.5926 65.882 102.475 70.1254 105.03V177.156C70.1347 185.731 73.5454 193.953 79.609 200.016C85.6726 206.08 93.8939 209.491 102.469 209.5H115.477V228.91L145.497 198.25L115.477 167.59V187ZM81.727 74.5C83.952 74.5 86.1271 75.1598 87.9771 76.3959C89.8272 77.6321 91.2691 79.3891 92.1206 81.4448C92.9721 83.5004 93.1949 85.7624 92.7608 87.9447C92.3267 90.127 91.2553 92.1316 89.6819 93.7049C88.1086 95.2782 86.104 96.3497 83.9217 96.7838C81.7395 97.2179 79.4775 96.9951 77.4218 96.1436C75.3661 95.2921 73.6091 93.8502 72.373 92.0001C71.1368 90.1501 70.477 87.975 70.477 85.75C70.477 82.7663 71.6622 79.9048 73.772 77.795C75.8818 75.6852 78.7433 74.5 81.727 74.5ZM193.875 178.777V106.844C193.866 98.2685 190.455 90.0471 184.392 83.9835C178.328 77.9199 170.107 74.5093 161.532 74.5H149.227V55.491L118.339 85.75L149.227 116.009V97H161.532C164.142 97 166.646 98.0371 168.492 99.8831C170.338 101.729 171.375 104.233 171.375 106.844V178.777C167.086 181.253 163.734 185.076 161.838 189.652C159.943 194.228 159.61 199.302 160.892 204.086C162.174 208.87 164.999 213.098 168.928 216.113C172.858 219.128 177.672 220.762 182.625 220.762C187.578 220.762 192.393 219.128 196.323 216.113C200.252 213.098 203.077 208.87 204.359 204.086C205.641 199.302 205.308 194.228 203.413 189.652C201.517 185.076 198.165 181.253 193.875 178.777ZM182.625 209.5C180.4 209.5 178.225 208.84 176.375 207.604C174.525 206.368 173.083 204.611 172.232 202.555C171.38 200.499 171.158 198.237 171.592 196.055C172.026 193.873 173.097 191.868 174.67 190.295C176.244 188.722 178.248 187.65 180.431 187.216C182.613 186.782 184.875 187.005 186.931 187.856C188.986 188.708 190.743 190.15 191.979 192C193.216 193.85 193.875 196.025 193.875 198.25C193.875 201.234 192.69 204.095 190.58 206.205C188.471 208.315 185.609 209.5 182.625 209.5Z" fill="#D47205"/>
<defs>
<filter id="filter0_d_787_2081" x="0" y="0" width="256" height="280.554" filterUnits="userSpaceOnUse" color-interpolation-filters="sRGB">
<feFlood flood-opacity="0" result="BackgroundImageFix"/>
<feColorMatrix in="SourceAlpha" type="matrix" values="0 0 0 0 0 0 0 0 0 0 0 0 0 0 0 0 0 0 127 0" result="hardAlpha"/>
<feOffset dy="4"/>
<feGaussianBlur stdDeviation="7"/>
<feComposite in2="hardAlpha" operator="out"/>
<feColorMatrix type="matrix" values="0 0 0 0 0 0 0 0 0 0 0 0 0 0 0 0 0 0 0.3 0"/>
<feBlend mode="normal" in2="BackgroundImageFix" result="effect1_dropShadow_787_2081"/>
<feBlend mode="normal" in="SourceGraphic" in2="effect1_dropShadow_787_2081" result="shape"/>
</filter>
</defs>
</svg>
