<svg width="256" height="281" viewBox="0 0 256 281" fill="none" xmlns="http://www.w3.org/2000/svg">
<g filter="url(#filter0_d_515_1849)">
<path d="M14 30C14 18.9543 22.9543 10 34 10H222C233.046 10 242 18.9543 242 30V242.554C242 253.6 233.046 262.554 222 262.554H34C22.9543 262.554 14 253.6 14 242.554V30Z" fill="#D47205"/>
</g>
<path d="M202.375 76.625H72.2812V166.538C72.2781 167.467 72.4597 168.387 72.8153 169.245C73.171 170.104 73.6936 170.882 74.3529 171.537L84.8346 182.022C85.4899 182.681 86.2694 183.204 87.1281 183.559C87.9868 183.915 88.9075 184.097 89.8368 184.094H162.194C163.124 184.097 164.044 183.915 164.903 183.559C165.762 183.204 166.541 182.681 167.197 182.022L177.678 171.537C178.338 170.882 178.86 170.104 179.216 169.245C179.572 168.387 179.753 167.467 179.75 166.538V121.875H191.062C192.562 121.874 194.001 121.278 195.061 120.217L206.373 108.905C207.434 107.844 208.031 106.406 208.031 104.906V82.2812C208.031 80.7811 207.435 79.3424 206.375 78.2817C205.314 77.2209 203.875 76.625 202.375 76.625ZM196.719 102.562L188.719 110.562H179.75V87.9375H196.719V102.562ZM60.9688 195.406H191.062V206.719H60.9688V195.406Z" fill="white"/>
<defs>
<filter id="filter0_d_515_1849" x="0" y="0" width="256" height="280.554" filterUnits="userSpaceOnUse" color-interpolation-filters="sRGB">
<feFlood flood-opacity="0" result="BackgroundImageFix"/>
<feColorMatrix in="SourceAlpha" type="matrix" values="0 0 0 0 0 0 0 0 0 0 0 0 0 0 0 0 0 0 127 0" result="hardAlpha"/>
<feOffset dy="4"/>
<feGaussianBlur stdDeviation="7"/>
<feComposite in2="hardAlpha" operator="out"/>
<feColorMatrix type="matrix" values="0 0 0 0 0 0 0 0 0 0 0 0 0 0 0 0 0 0 0.3 0"/>
<feBlend mode="normal" in2="BackgroundImageFix" result="effect1_dropShadow_515_1849"/>
<feBlend mode="normal" in="SourceGraphic" in2="effect1_dropShadow_515_1849" result="shape"/>
</filter>
</defs>
</svg>
