<svg width="256" height="281" viewBox="0 0 256 281" fill="none" xmlns="http://www.w3.org/2000/svg">
<g filter="url(#filter0_d_523_1841)">
<path d="M14 30C14 18.9543 22.9543 10 34 10H222C233.046 10 242 18.9543 242 30V242.554C242 253.6 233.046 262.554 222 262.554H34C22.9543 262.554 14 253.6 14 242.554V30Z" fill="white"/>
</g>
<path d="M161.562 112.25H107.25V87.5625C107.25 82.3245 109.331 77.301 113.035 73.5971C116.738 69.8933 121.762 67.8125 127 67.8125C132.238 67.8125 137.262 69.8933 140.965 73.5971C144.669 77.301 146.75 82.3245 146.75 87.5625C146.75 88.872 147.27 90.1279 148.196 91.0538C149.122 91.9798 150.378 92.5 151.688 92.5C152.997 92.5 154.253 91.9798 155.179 91.0538C156.105 90.1279 156.625 88.872 156.625 87.5625C156.625 79.7055 153.504 72.1702 147.948 66.6145C142.392 61.0587 134.857 57.9375 127 57.9375C119.143 57.9375 111.608 61.0587 106.052 66.6145C100.496 72.1702 97.375 79.7055 97.375 87.5625V112.25H92.4375C87.2012 112.256 82.1811 114.338 78.4785 118.041C74.7759 121.744 72.6932 126.764 72.6875 132V186.312C72.6932 191.549 74.7759 196.569 78.4785 200.272C82.1811 203.974 87.2012 206.057 92.4375 206.062H161.562C166.799 206.057 171.819 203.974 175.522 200.272C179.224 196.569 181.307 191.549 181.312 186.312V132C181.307 126.764 179.224 121.744 175.522 118.041C171.819 114.338 166.799 112.256 161.562 112.25Z" fill="#CBACF8"/>
<defs>
<filter id="filter0_d_523_1841" x="0" y="0" width="256" height="280.554" filterUnits="userSpaceOnUse" color-interpolation-filters="sRGB">
<feFlood flood-opacity="0" result="BackgroundImageFix"/>
<feColorMatrix in="SourceAlpha" type="matrix" values="0 0 0 0 0 0 0 0 0 0 0 0 0 0 0 0 0 0 127 0" result="hardAlpha"/>
<feOffset dy="4"/>
<feGaussianBlur stdDeviation="7"/>
<feComposite in2="hardAlpha" operator="out"/>
<feColorMatrix type="matrix" values="0 0 0 0 0 0 0 0 0 0 0 0 0 0 0 0 0 0 0.3 0"/>
<feBlend mode="normal" in2="BackgroundImageFix" result="effect1_dropShadow_523_1841"/>
<feBlend mode="normal" in="SourceGraphic" in2="effect1_dropShadow_523_1841" result="shape"/>
</filter>
</defs>
</svg>
