<svg width="1698" height="1615" viewBox="0 0 1698 1615" fill="none" xmlns="http://www.w3.org/2000/svg">
<g style="mix-blend-mode:multiply">
<path d="M812.33 271.866L310.143 19.9209C257.14 -6.6403 194.738 -6.6403 141.734 19.9209L-360.453 271.866C-407.354 295.385 -437 343.406 -437 395.92V662.819C-437 715.333 -407.354 763.354 -360.453 786.896L-93.5656 920.638C-69.8346 932.526 -47.5531 947.153 -27.1654 964.166L198.689 1152.72L226.488 1176L254.311 1152.72L480.165 964.166C500.53 947.153 522.811 932.526 546.542 920.638L813.429 786.896C860.354 763.354 889.977 715.333 890 662.819V395.92C889.766 343.148 859.676 295.081 812.33 271.866Z" fill="url(#paint0_linear_534_11437)"/>
</g>
<g style="mix-blend-mode:multiply" opacity="0.4">
<circle cx="1087.5" cy="405.499" r="342.5" transform="rotate(-90 1087.5 405.499)" fill="url(#paint1_linear_534_11437)" fill-opacity="0.9" style="mix-blend-mode:soft-light"/>
</g>
<g style="mix-blend-mode:multiply" opacity="0.4">
<circle cx="1111.5" cy="1028.5" r="586.5" transform="rotate(-90 1111.5 1028.5)" fill="url(#paint2_linear_534_11437)" fill-opacity="0.9" style="mix-blend-mode:soft-light"/>
</g>
<defs>
<linearGradient id="paint0_linear_534_11437" x1="92.5001" y1="502" x2="979" y2="508.499" gradientUnits="userSpaceOnUse">
<stop offset="0.324399" stop-color="#FEFEFE"/>
<stop offset="1" stop-color="#D6D9ED"/>
</linearGradient>
<linearGradient id="paint1_linear_534_11437" x1="1087.5" y1="62.9993" x2="1087.5" y2="747.999" gradientUnits="userSpaceOnUse">
<stop stop-color="#9747FF" stop-opacity="0.51"/>
<stop offset="1" stop-color="#D9D9D9" stop-opacity="0"/>
</linearGradient>
<linearGradient id="paint2_linear_534_11437" x1="978" y1="463.999" x2="688" y2="1029" gradientUnits="userSpaceOnUse">
<stop stop-color="#FFBA6D" stop-opacity="0.71"/>
<stop offset="1" stop-color="#D9D9D9" stop-opacity="0"/>
</linearGradient>
</defs>
</svg>
